<svg width="1068" height="301" viewBox="0 0 1068 301" fill="none" xmlns="http://www.w3.org/2000/svg">
<g opacity="0.2" clip-path="url(#clip0_258_22988)">
<path d="M73.4299 224.04C188.56 270.82 312.17 300.39 436.82 301.31C558.53 302.22 678.76 273.44 782.24 208.24C884.84 143.59 971.09 52.3399 1084.24 4.99988C1138.92 -17.8601 1202.06 -24.5701 1250.57 -60.6801C1297.47 -95.59 1318.12 -153.3 1330.98 -208.16C1347.47 -278.51 1356.4 -350.86 1358.54 -423.07C1360.44 -487.35 1357.64 -552.36 1345.33 -615.6C1334.17 -672.93 1314.74 -729.38 1282.26 -778.27C1252.26 -823.49 1211.63 -859.63 1161.76 -881.55C1116.56 -901.42 1065.05 -909.73 1016.32 -899.8C992.804 -895.107 970.443 -885.83 950.51 -872.5C925.71 -855.74 905.92 -832.68 889.43 -807.91C856.21 -757.97 831.96 -701.73 807.1 -647.33C782.37 -593.25 758.02 -538.85 728.76 -487.01C699.76 -435.72 665.7 -386.86 622.76 -346.24C576.47 -302.44 520.83 -270.81 463.38 -244.06C404.91 -216.84 344.5 -194 286.45 -165.85C224.828 -135.97 165.62 -101.349 109.36 -62.2999C64.5998 -31.2299 11.6998 9.49005 1.40984 66.7001C-8.39016 121.18 32.1899 166.05 80.5099 184.1C111.24 195.58 144.38 197.99 176.9 198.55C208.13 199.1 239.4 198.74 270.62 198.13C332.13 196.91 393.62 193.66 454.77 186.48C573.77 172.48 692.95 143.09 797.24 82.38C849.24 52.1 894.32 13.28 939.13 -26.62C983.4 -66.01 1028.83 -106.18 1083.13 -131.31C1109.54 -143.53 1137.36 -149.42 1165.13 -157.62C1189.37 -164.79 1213.97 -175.62 1227.49 -198.19C1242.6 -223.44 1240.96 -254.87 1239.41 -283.13C1237.6 -316.143 1234.37 -349.03 1229.72 -381.79C1220.05 -449.842 1204.39 -516.906 1182.92 -582.2C1162.38 -644.66 1137.24 -706.95 1104.92 -764.3C1079.47 -809.44 1042.15 -855.3 986.75 -859.98C932.75 -864.57 883.28 -829.47 851.67 -788.61C811.86 -737.16 797.26 -671.19 774.54 -611.49C752.04 -552.36 717.95 -500.97 673.61 -455.93C631.02 -412.68 582.31 -376.03 533.23 -340.55C475.87 -299.07 418.4 -257.77 361.6 -215.55C302.32 -171.47 243.523 -126.757 185.21 -81.41C170.817 -70.2167 156.456 -58.9901 142.13 -47.7301C131.13 -39.0801 119.93 -30.4101 110.75 -19.7301C92.6699 1.2699 89.1098 28.2101 106.33 50.9701C123.55 73.7301 151.43 81.9701 178.8 83.7001C213.8 85.8901 249.62 82.45 284.63 80.9C358.696 77.6334 432.696 73.3834 506.63 68.15C576.26 63.22 646.54 58.28 714.32 40.59C778.32 23.8799 836.82 -6.2301 891.2 -43.4701C944.46 -79.9401 995.63 -121.03 1043.48 -164.34C1088.76 -205.34 1130.36 -252.18 1153.48 -309.46C1200.77 -426.66 1164.58 -558.46 1110.26 -666.55C1096.9 -693.13 1082.68 -720.01 1065.1 -744.08C1049.74 -765.08 1030.8 -785.57 1006.92 -796.88C985.28 -807.13 960.81 -807.23 939.78 -795.31C915.03 -781.31 898.05 -755.39 884.26 -731.31C854.2 -678.76 838.58 -619.73 819.26 -562.79C800.26 -506.88 776.48 -453.33 736.76 -408.9C664.05 -327.58 560.18 -283.96 465.88 -233.58C418.88 -208.49 370.31 -181.7 330.36 -146.07C320.84 -137.58 311.72 -127.32 309.08 -114.46C306.78 -103.24 310.08 -92.09 316.55 -82.86C331.89 -60.99 359.2 -50.05 383.13 -40.6901C493.95 2.64996 620.06 4.36011 732.53 -34.0099C842.06 -71.3799 934.53 -148.1 994.62 -246.72C1051.77 -340.57 1082.74 -457.88 1061.7 -567.25C1051.7 -618.98 1029.06 -669.59 989.19 -705.13C972.59 -719.93 946.12 -740.33 925.29 -721.06C915.48 -711.97 908.02 -699.24 901.44 -687.73C894.27 -675.069 888.059 -661.889 882.86 -648.3C861.97 -594.54 853.69 -536.98 835.37 -482.42C826.07 -454.7 813.95 -427.98 797.11 -403.99C781.616 -382.233 763.195 -362.716 742.37 -345.99C657.64 -277.04 548.59 -248.63 453 -198.87C429.95 -186.87 406.64 -170.39 409.12 -141.27C411.17 -117.27 428.38 -96.0499 447.17 -82.2699C492.93 -48.6999 558.17 -49.9299 610.65 -63.5099C670.48 -78.9999 724.8 -110.73 774.65 -146.51C824.5 -182.29 871.06 -223.61 909.3 -271.88C948.47 -321.34 978.3 -378.15 992.94 -439.71C1000.39 -470.522 1003.64 -502.198 1002.61 -533.88C1001.53 -563.16 997.94 -595.5 984.61 -622C975.61 -640.07 959.54 -660.54 937.51 -661.5C909.13 -662.75 894.44 -631.91 885.35 -609.81C861.06 -550.81 860.54 -484.81 833.6 -426.61C809.177 -374.41 769.171 -331.067 719.09 -302.55C692.09 -287.2 662.94 -278.76 633.37 -269.83C605.16 -261.31 576.21 -250.88 555.93 -228.47C539.27 -210.07 527.93 -183.53 536.24 -158.82C543.47 -137.3 563.7 -123.91 585.15 -119.3C644.15 -106.63 693.23 -157.83 732.21 -194.14C780.4 -239.04 826.86 -286.86 868.21 -338.24C904.45 -383.31 940.32 -441.92 922.51 -501.89C922.32 -502.51 921.12 -502.53 920.75 -502.11L799.13 -362.46L738.79 -293.19C720.19 -271.83 700.59 -250.98 683.72 -228.19C667.35 -206.07 654.16 -181.04 654.02 -152.92C654.02 -152.19 655.84 -152.01 655.84 -152.69C656.1 -206.48 701.99 -248.45 734.77 -286.09L854.48 -423.53C877.147 -449.53 899.813 -475.553 922.48 -501.6L920.73 -501.82C939.5 -438.64 898.73 -377.31 860.07 -330.89C816.644 -279.035 769.753 -230.183 719.72 -184.67C679.19 -147.67 618.94 -93.2999 561.23 -130.05C536.89 -145.55 529.84 -174.64 540.4 -200.81C551.55 -228.45 575.68 -246.61 602.4 -257.81C630.8 -269.65 661.33 -275.22 689.79 -286.86C713.973 -296.8 736.598 -310.171 756.97 -326.56C798.943 -360.12 830.251 -405.162 847.08 -456.2C866.14 -514.7 866.97 -581.07 899.56 -634.71C908.14 -648.83 921.56 -662.14 939.42 -660.35C953.32 -658.95 964.74 -648.79 972.84 -638.11C990.93 -614.28 996.47 -583.11 999.38 -553.99C1011.9 -428.74 950.45 -309.99 863.83 -223.51C820.951 -180.812 772.957 -143.579 720.94 -112.66C668.34 -81.4 608.26 -55.9901 546.14 -55.66C515.43 -55.5001 482.02 -61.6599 455.58 -78.0099C433.42 -91.7499 412.28 -115.64 410.82 -142.85C409.08 -174.93 438.93 -190.31 463.56 -202.7C486.77 -214.36 510.56 -224.92 534.35 -235.21C625.35 -274.51 726.92 -311.38 790.27 -391.95C824.15 -435.03 840.27 -487.03 853.52 -539.42C867.32 -593.91 879.05 -650.86 910.16 -698.68C919.16 -712.47 930.34 -730.68 949.41 -727.68C965 -725.17 978.88 -712.84 990.14 -702.46C1010.06 -684.09 1025.79 -661.56 1037.43 -637.16C1060.43 -588.94 1068.22 -534.16 1065.92 -481.08C1061.18 -371.57 1016.03 -264.56 945.34 -181.36C869.838 -92.6179 765.308 -33.5317 650.34 -14.61C590.49 -4.70752 529.361 -5.45227 469.77 -16.8099C439.345 -22.6305 409.544 -31.3365 380.77 -42.8099C356.26 -52.6099 325.77 -65.02 313.83 -90.6C300.02 -120.28 327.68 -142.92 348.72 -159.08C369.421 -174.802 391.01 -189.319 413.38 -202.56C459.08 -229.93 506.99 -253.29 554.09 -278.08C643.19 -324.97 732.57 -379.67 782.42 -470.56C810.23 -521.25 825.42 -577.47 843.84 -631.94C853.31 -659.94 863.65 -687.8 877.02 -714.24C890.02 -739.95 905.86 -766.99 928.31 -785.61C952.72 -805.85 983.64 -808.68 1011.31 -793.33C1035.98 -779.65 1055.04 -756.81 1070.47 -733.65C1087.47 -708.18 1101.82 -680.65 1115.04 -653.04C1128.31 -625.543 1139.74 -597.19 1149.23 -568.17C1167.89 -510.52 1178.14 -449.11 1171.31 -388.54C1164.5 -328.18 1139.39 -273.23 1101.13 -226.36C1062.41 -178.9 1014.13 -139.99 966.54 -101.88C916.44 -61.77 864.27 -23.3801 806.47 4.99988C745.9 34.7399 680.47 49.66 613.76 57.65C543.45 66.07 472.42 69.6499 401.76 73.7799C366.427 75.8399 331.093 77.6732 295.76 79.2799C261.22 80.8599 226.46 83.2799 191.87 83.0399C158.93 82.7999 122.7 75.5899 104.22 45.2999C96.5899 32.8099 94.0998 17.95 98.6198 3.89001C103.26 -10.52 113.93 -22.11 125.04 -31.9401C150.26 -54.3201 178.12 -74.1799 204.77 -94.8099C232.463 -116.25 260.263 -137.543 288.17 -158.69C344.37 -201.27 401.003 -243.27 458.07 -284.69C552.94 -353.56 657.47 -418.85 726.4 -516C743.641 -540.386 758.092 -566.631 769.48 -594.24C781.38 -622.92 790.7 -652.56 801.03 -681.82C821.28 -739.12 846.96 -795.28 898.03 -831.46C921.1 -847.8 948.5 -859.24 977.11 -859.35C1006.73 -859.45 1034.01 -846.62 1055.66 -826.95C1076.81 -807.73 1092.66 -783.23 1106.3 -758.3C1121.3 -730.86 1134.4 -702.3 1146.63 -673.56C1198.56 -551.393 1229.18 -421.235 1237.17 -288.73C1238.88 -259.99 1241.41 -227.99 1227.33 -201.73C1213.67 -176.2 1186.52 -164.98 1160.05 -157.49C1134.22 -150.18 1108.49 -144.37 1083.93 -133.2C1059.1 -121.91 1035.93 -107.31 1013.93 -91.13C968.13 -57.34 927.7 -17.0401 884.01 19.2999C839.12 56.7429 789.406 87.9889 736.2 112.2C627.98 161.31 509.2 182.36 391.37 191.39C331.82 195.96 272.07 197.46 212.37 197.57C150 197.68 78.1799 198.9 30.9299 151.16C11.4599 131.48 -0.0101428 105.23 1.92986 77.3099C3.86986 49.39 18.1598 24.2501 35.6698 3.21008C54.6698 -19.5999 77.8699 -38.4201 102.02 -55.4801C129.213 -74.6868 157.11 -92.8467 185.71 -109.96C241.71 -143.48 300.13 -172.08 360.07 -197.78C415.95 -221.78 472.6 -244.45 525.67 -274.34C576.28 -302.84 621.73 -338.47 659.43 -382.77C695.64 -425.32 724.55 -473.5 750.09 -523.04C776.19 -573.68 798.94 -625.96 822.93 -677.62C834.93 -703.54 847.32 -729.32 860.57 -754.62C874.35 -780.96 889.07 -807.08 907.79 -830.29C943.04 -874 992.1 -900.03 1048.36 -902.72C1100.53 -905.22 1153.17 -889.3 1197.09 -861.5C1295.46 -799.23 1337.09 -680.16 1350.76 -569.85C1358.88 -504.41 1358.99 -437.75 1353.99 -372.06C1348.99 -305.96 1339.57 -238.3 1320.16 -174.75C1311.8 -147.4 1300.63 -120.53 1283.87 -97.2001C1266.34 -72.7901 1243 -54.6201 1215.87 -41.9401C1189.12 -29.4501 1160.45 -21.8599 1132.31 -13.2799C1104.38 -4.7699 1077.31 5.52991 1051.31 18.7999C948.53 71.1799 867.09 155.67 768.67 214.87C664.26 277.68 542.8 303.08 421.75 299.95C302.53 296.87 184.62 267.95 74.4399 223.21C73.7599 222.93 72.2999 223.53 73.4399 223.98L73.4299 224.04Z" fill="#F5523D"/>
</g>
<defs>
<clipPath id="clip0_258_22988">
<rect width="1359" height="301" fill="white"/>
</clipPath>
</defs>
</svg>
