<svg width="550" height="555" viewBox="0 0 550 555" fill="none" xmlns="http://www.w3.org/2000/svg">
<path d="M266.482 405.377L266.499 405.413C266.901 405.38 267.298 405.3 267.682 405.177C267.72 405.206 267.762 405.228 267.807 405.243C267.919 405.301 268.041 405.335 268.167 405.341C268.275 405.363 268.385 405.37 268.495 405.361C268.717 405.346 268.935 405.299 269.143 405.222C269.958 405.462 272.842 404.814 275.849 403.012C276.706 402.492 277.51 401.889 278.248 401.211C279.492 400.759 280.685 400.18 281.81 399.484C284.607 397.769 287.031 395.186 289.428 392.56C289.552 392.413 289.692 392.272 289.844 392.118L290.02 391.948C290.658 391.301 291.24 390.655 291.777 390.032L291.807 390.017C295.009 386.621 297.997 383.539 300.52 381.047C308.178 375.789 316.14 370.987 324.363 366.666C328.529 364.458 332.93 362.296 337.564 360.192C339.658 359.585 341.798 359.15 343.962 358.891C345.795 358.667 347.647 358.643 349.485 358.818L349.409 359.08C348.876 360.843 348.668 362.689 348.795 364.527C366.716 361.409 386.139 366.841 399.502 379.327C386.158 366.882 366.736 361.4 348.795 364.527C348.913 366.923 349.36 369.29 350.123 371.564C350.49 372.641 350.891 373.659 351.338 374.667C352.139 376.475 353.063 378.226 354.105 379.907C361.391 391.758 373.025 399.095 373.025 399.095C376.033 407.969 394.002 411.049 412.705 410.501C415.957 410.404 419.231 410.197 422.434 409.904C424.832 409.681 427.251 409.385 429.57 409.023C432.228 408.638 434.805 408.186 437.264 407.67C440.383 407.03 443.464 406.218 446.493 405.239L446.662 405.159C448 405.019 449.28 404.54 450.383 403.77C452.435 402.934 454.429 401.965 456.354 400.869C445.704 402.933 434.688 401.988 424.545 398.139C434.688 401.988 445.704 402.933 456.354 400.869C456.641 400.733 456.907 400.556 457.179 400.39L456.777 400.268C445.397 396.754 431.98 388.085 423.925 381.142C420.133 377.859 417.538 374.96 416.937 373.192C416.718 372.532 416.77 372.245 416.646 371.878C416.15 370.411 409.844 364.835 400.34 359.93C388.225 353.692 370.903 348.547 353.707 354.381C352.418 354.808 351.295 355.63 350.497 356.73C348.912 356.565 347.316 356.533 345.726 356.633C349.915 354.909 354.21 353.291 358.641 351.76C364.204 349.847 369.726 348.242 375.147 346.872C375.915 346.777 376.757 346.69 377.633 346.613C380.091 346.385 382.924 346.275 386.043 346.254C389.221 347.675 392.205 349.032 395.014 350.259C395.573 350.501 396.125 350.74 396.672 350.969C406.745 355.24 415.271 357.473 427.563 353.308C433.002 351.461 438.268 348.856 443.396 347.106C447.708 345.643 454.305 339.429 463.293 332.625C465.067 331.283 466.941 329.918 468.879 328.567C475.003 324.258 481.575 320.622 488.481 317.725C488.991 317.482 489.545 317.264 490.096 317.053C488.893 316.997 487.691 316.904 486.494 316.808C464.365 315.013 444.08 307.869 416.264 317.307C415.941 317.417 415.645 317.532 415.334 317.642C402.895 322.052 395.193 328.496 389.826 335.704C395.526 336.455 401.512 335.762 407.226 334.761C418.647 332.762 429.848 329.668 440.675 325.523C429.848 329.668 418.647 332.762 407.226 334.761C401.512 335.762 395.516 336.46 389.826 335.704C388.509 337.475 387.295 339.32 386.188 341.228L385.988 341.599C376.374 343.404 366.9 345.89 357.637 349.037C345.67 353.157 334.097 358.341 323.055 364.526C315.98 368.469 309.131 372.803 302.541 377.51C305.711 374.523 309.052 371.355 312.498 368.05C314.435 366.197 316.324 364.371 318.166 362.571C322.331 362.199 326.439 361.337 330.402 360.002C343.426 355.584 353.209 348.065 360.874 339.079C361.16 338.743 361.452 338.41 361.72 338.052C368.548 329.807 373.646 320.367 377.873 310.991C385.076 295.014 389.702 279.196 395.941 269.522C396.142 269.208 396.346 268.898 396.551 268.607C393.793 269.796 390.977 270.813 388.157 271.768C386.272 272.412 384.375 273.03 382.505 273.667C364.718 279.706 349.394 294.753 337.758 311.412C327.464 326.151 320.096 342.112 316.524 354.188C333.266 343.631 347.023 328.959 356.483 311.573C347.023 328.959 333.266 343.631 316.524 354.188C315.665 357.005 314.991 359.876 314.504 362.781L314.803 362.764L310.953 366.43C302.835 374.198 295.433 381.42 289.584 387.204C289.584 387.204 289.549 387.221 289.538 387.226L288.848 387.854L286.023 390.489C285.21 391.069 284.367 391.694 283.499 392.343C281.407 393.924 279.43 395.349 277.776 396.572L277.637 396.675C276.439 397.462 274.994 398.492 273.49 399.688C273.05 399.896 272.585 400.117 272.135 400.368C271.879 400.489 271.636 400.636 271.396 400.749C270.414 401.159 269.595 401.478 269.036 401.737C268.427 401.549 267.774 401.558 267.171 401.764C265.859 402.243 265.055 403.187 265.332 403.732C265.332 403.732 265.347 403.763 265.354 403.778L261.726 406.012L265.921 405.436C266.11 405.444 266.299 405.424 266.482 405.377ZM452.526 401.189C453.263 401.04 453.987 400.865 454.694 400.667L454.74 400.646C454.02 400.868 453.263 401.014 452.526 401.189ZM468.352 320.463C463.242 320.743 458.181 321.611 453.269 323.048C458.181 321.615 463.242 320.752 468.351 320.476L468.352 320.463ZM381.792 285.094C378.734 288.543 375.541 291.864 372.212 295.058C375.534 291.876 378.727 288.559 381.792 285.107L381.792 285.094ZM367.728 299.8L362.185 307.167L367.728 299.8Z" fill="white" stroke="#FDDCD8" stroke-width="2" stroke-miterlimit="10"/>
<path d="M154.293 320.139C154.03 320.306 153.732 320.412 153.422 320.447C153.119 320.505 152.809 320.517 152.502 320.482L153.397 320.323C153.692 320.245 153.991 320.183 154.293 320.139Z" fill="white"/>
<path d="M267 303.739C269.565 298.736 271.02 295.473 271.12 295.292C270.98 295.446 268.822 297.919 265.631 302.006C264.153 296.64 262.744 291.37 261.382 286.275C260.307 282.272 259.295 278.418 258.597 274.675C259.983 272.312 261.597 270.089 263.416 268.04C270.129 260.441 279.204 255.237 287.951 251.165C290.56 249.959 293.19 248.85 295.673 247.789C298.502 246.601 301.201 245.491 303.677 244.421C304.8 243.933 305.848 243.456 306.863 242.981C304.402 245.134 301.877 247.243 299.557 249.525C295.355 253.632 291.77 258.326 288.916 263.462C291.77 258.326 295.355 253.632 299.557 249.525C301.883 247.252 304.409 245.143 306.863 242.981L308.018 242.442C307.484 243.364 306.954 244.366 306.43 245.447C303.059 248.583 300.219 252.246 298.022 256.291C300.219 252.246 303.059 248.583 306.43 245.447C305.186 248.025 304.139 250.694 303.298 253.431C302.886 254.809 302.455 256.296 302.085 257.859L301.689 259.524C301.039 262.377 300.487 265.065 300.002 267.595C294.943 294.141 297.245 303.881 269.24 314.734C268.328 311.481 267.399 308.206 266.431 304.874L267 303.739Z" fill="white" stroke="#FDDCD8" stroke-width="2" stroke-miterlimit="10"/>
<path d="M246.666 357.462C245.517 356.197 244.445 354.954 243.38 353.788C242.835 353.204 242.301 352.633 241.769 352.067C241.238 351.501 240.69 350.96 240.174 350.425C235.871 346.105 231.735 342.346 228.459 338.942C225.803 336.303 223.376 333.443 221.204 330.393C220.979 330.075 220.767 329.775 220.575 329.502C216.826 325.615 213.058 321.416 209.384 316.86C208.066 315.209 206.778 313.502 205.45 311.788C204.123 310.075 202.909 308.239 201.631 306.428C199.138 302.761 196.767 298.912 194.453 294.96C189.833 287.044 185.486 278.664 180.748 270.326C178.378 266.157 175.962 262.097 173.407 258.205C170.852 254.312 168.177 250.642 165.395 247.104C159.827 240.023 153.951 233.554 148.303 227.408C142.655 221.263 137.227 215.419 132.367 209.741C127.819 204.494 123.568 198.996 119.637 193.272C119.02 192.399 118.466 191.516 117.907 190.645C113.123 192.839 107.603 192.806 102.567 191.163C99.3683 190.117 96.4137 188.436 93.8794 186.222C93.1033 185.546 92.3765 184.815 91.7045 184.034C90.2471 182.343 88.8643 181.091 91.9187 178.456L92.2374 178.231C94.5617 177.739 96.9877 177.646 99.01 178.294C100.048 178.61 100.991 179.178 101.756 179.948C104.218 181.67 106.524 183.759 108.307 185.137C109.336 185.919 110.374 186.771 111.462 187.547C113.279 188.846 115.219 189.926 117.523 190.092C115.109 186.34 112.918 182.448 110.962 178.438C109.876 176.194 108.956 174.068 108.184 172.093C103.868 170.627 99.4107 171.069 95.0103 171.012C93.0832 170.989 90.8985 171.071 88.7934 170.903C88.0704 170.839 87.3518 170.732 86.6418 170.581C84.9741 170.29 83.4491 169.457 82.3032 168.211C81.6232 167.425 80.4306 166.01 83.1065 163.712C85.1592 161.984 87.6064 160.788 90.2316 160.231C92.8567 159.674 95.5788 159.773 98.1566 160.519C100.864 161.322 103.281 162.893 105.115 165.04C105.485 165.469 105.828 165.92 106.144 166.39C105.65 164.711 105.185 163.219 104.906 161.893C104.662 160.861 104.431 159.965 104.278 159.18C101.724 156.107 99.8703 152.515 98.8453 148.653C97.3044 142.736 97.9492 136.425 102.289 131.768C104.334 129.577 106.013 128.73 107.247 128.496C107.621 128.39 108.013 128.367 108.397 128.429C108.781 128.49 109.147 128.634 109.47 128.851C109.736 129.129 109.914 129.48 109.982 129.858C110.05 130.237 110.005 130.628 109.853 130.982C107.831 134.992 106.282 139.223 105.239 143.592C104.58 146.406 104.211 149.28 104.139 152.169C104.081 154.699 104.276 157.228 104.721 159.719C104.691 159.677 104.662 159.635 104.63 159.589C104.817 160.246 105.045 160.971 105.286 161.784C105.644 163.095 106.233 164.576 106.786 166.221C108.31 170.215 110.104 174.101 112.154 177.852C113.702 180.691 115.53 183.712 117.643 186.851C117.307 183.17 118.251 179.271 119.85 175.713C120.233 174.854 120.65 174.013 121.102 173.202C123.999 167.972 128.217 164.89 130.553 164.452C130.967 164.344 131.405 164.378 131.798 164.549C132.49 164.932 133.493 170.273 128.979 178.438C127.92 180.349 126.727 182.236 125.581 184.153C125.108 184.944 124.626 185.741 124.192 186.518C123.216 188.238 122.389 190.038 121.719 191.898L121.562 192.39C125.61 197.763 129.927 202.927 134.496 207.864C139.493 213.334 145.049 218.977 150.863 225.005C156.678 231.033 162.735 237.464 168.516 244.623C171.405 248.204 174.211 251.982 176.843 255.944C179.475 259.907 181.961 264.035 184.362 268.258C189.163 276.705 193.466 285.073 197.98 292.906C200.247 296.842 202.524 300.606 204.923 304.2C206.169 305.964 207.402 307.71 208.59 309.461C209.87 311.146 211.109 312.832 212.378 314.462C221.868 326.52 231.98 336.262 240.904 344.274C241.604 344.902 242.3 345.525 242.986 346.134C252.425 354.482 260.402 360.887 265.828 365.424C265.93 365.511 266.033 365.598 266.14 365.681C267.235 366.251 268.346 366.844 269.515 367.451C269.978 367.685 270.445 367.916 270.929 368.149C271.412 368.382 271.926 368.649 272.455 368.947C273.669 369.596 274.725 370.505 275.546 371.61L278.061 375.171L273.686 374.279C270.277 373.579 267.116 371.935 264.09 370.306C260.856 368.647 257.726 366.794 254.717 364.756C253.2 363.703 251.751 362.555 250.379 361.319C249.077 360.097 247.838 358.81 246.666 357.462Z" fill="white" stroke="#FDDCD8" stroke-width="2" stroke-miterlimit="10"/>
<path d="M135.616 225.225C135.017 225.853 134.33 226.391 133.579 226.825C132.756 227.303 131.879 227.682 130.968 227.955C129.12 228.507 127.188 228.722 125.265 228.59C123.994 228.516 122.74 228.268 121.538 227.852C119.958 227.292 117.828 225.755 115.529 223.754C113.988 222.42 112.38 220.858 110.822 219.264C108.071 216.444 105.446 213.445 103.581 211.082C101.81 208.839 100.721 207.172 100.858 206.788C101.016 206.368 101.28 205.997 101.623 205.71L101.83 205.846L101.623 205.71L101.656 205.683C103.61 204.015 107.98 204.688 108.761 204.489C110.462 204.064 112.203 203.688 113.918 203.424C116.172 203.051 118.456 202.888 120.74 202.939C123.023 202.979 125.286 203.376 127.446 204.117C127.957 204.301 128.458 204.513 128.946 204.752C129.166 204.859 129.387 204.975 129.606 205.093C131.358 206.048 132.943 207.283 134.298 208.748C135.754 210.352 136.664 212.045 136.598 213.405C136.59 213.507 136.579 213.606 136.564 213.705L136.553 213.769C136.413 214.497 136.226 215.2 136.067 215.894L136.047 215.987L136.09 216.039L136.145 216.108C136.531 216.647 136.852 217.23 137.104 217.843C137.746 219.358 137.803 221.056 137.263 222.61C136.904 223.588 136.343 224.479 135.616 225.225Z" fill="white" stroke="#FDDCD8" stroke-width="2" stroke-miterlimit="10"/>
<path d="M121.044 162.535C118.771 168.079 114.809 172.261 111.99 177.415C111.981 173.864 111.454 169.667 111.099 165.37C110.827 162.355 110.768 159.324 110.925 156.301C111.284 150.987 112.715 146.094 116.735 142.639C117.829 141.7 118.877 142.213 119.81 143.299C121.1 144.774 122.054 146.512 122.604 148.393C123.707 152.19 123.1 156.349 121.75 160.584C121.559 161.245 121.322 161.889 121.044 162.535Z" fill="white" stroke="#FDDCD8" stroke-width="2" stroke-miterlimit="10"/>
<path d="M136.022 222.894C135.084 221.866 134.298 220.711 133.688 219.461C133.014 218.093 132.504 216.65 132.168 215.163C131.488 212.148 131.356 209.036 131.779 205.975C132.036 203.953 132.57 201.975 133.367 200.098C134.437 197.633 137.128 194.397 140.58 190.942C142.882 188.624 145.555 186.225 148.274 183.91C153.084 179.821 158.168 175.954 162.151 173.232C165.931 170.646 168.715 169.088 169.315 169.35C169.968 169.648 170.533 170.11 170.954 170.691L170.713 171.007L170.954 170.691L170.993 170.747C173.446 174.054 171.89 180.967 172.122 182.236C172.615 185.003 173.025 187.828 173.258 190.599C173.608 194.243 173.617 197.912 173.285 201.558C172.971 205.203 172.087 208.778 170.666 212.15C170.315 212.947 169.921 213.724 169.486 214.478C169.289 214.818 169.08 215.159 168.868 215.496C167.148 218.192 165 220.59 162.509 222.596C159.785 224.747 156.978 226.016 154.811 225.761C154.649 225.737 154.491 225.71 154.335 225.675L154.234 225.649C153.085 225.346 151.982 224.969 150.89 224.639L150.743 224.598L150.656 224.66L150.54 224.741C149.635 225.298 148.668 225.748 147.66 226.083C145.168 226.943 142.446 226.847 140.022 225.814C138.498 225.133 137.135 224.138 136.022 222.894Z" fill="white" stroke="#FDDCD8" stroke-width="2" stroke-miterlimit="10"/>
<path d="M174.461 265.562C173.524 264.534 172.738 263.378 172.127 262.129C171.453 260.761 170.943 259.318 170.608 257.831C169.928 254.816 169.796 251.704 170.219 248.643C170.476 246.621 171.01 244.643 171.807 242.766C172.877 240.301 175.568 237.065 179.019 233.61C181.321 231.292 183.994 228.893 186.714 226.578C191.524 222.489 196.608 218.622 200.59 215.9C204.371 213.314 207.154 211.756 207.754 212.018C208.408 212.316 208.972 212.778 209.394 213.359L209.153 213.675L209.394 213.359L209.433 213.415C211.886 216.722 210.33 223.635 210.562 224.904C211.055 227.671 211.465 230.496 211.698 233.267C212.047 236.911 212.057 240.58 211.725 244.225C211.41 247.871 210.526 251.445 209.105 254.818C208.754 255.615 208.36 256.392 207.925 257.146C207.729 257.485 207.52 257.827 207.308 258.164C205.588 260.86 203.44 263.258 200.949 265.264C198.225 267.415 195.418 268.684 193.251 268.429C193.088 268.405 192.931 268.378 192.775 268.343L192.674 268.317C191.525 268.014 190.421 267.637 189.33 267.307L189.183 267.266L189.095 267.328L188.98 267.409C188.074 267.966 187.108 268.416 186.099 268.751C183.608 269.611 180.886 269.515 178.462 268.482C176.938 267.801 175.575 266.806 174.461 265.562Z" fill="white" stroke="#FDDCD8" stroke-width="2" stroke-miterlimit="10"/>
<path d="M172.293 260.053C171.905 261.388 171.329 262.662 170.581 263.834C169.765 265.123 168.8 266.31 167.706 267.373C165.489 269.525 162.902 271.261 160.07 272.497C158.211 273.332 156.244 273.908 154.228 274.207C151.566 274.58 147.401 273.971 142.654 272.828C139.476 272.073 136.034 271.044 132.641 269.931C126.643 267.96 120.692 265.639 116.293 263.661C112.114 261.784 109.334 260.222 109.244 259.573C109.158 258.861 109.257 258.138 109.533 257.475L109.928 257.516L109.533 257.475L109.56 257.413C111.102 253.595 117.812 251.317 118.774 250.457C120.878 248.593 123.074 246.77 125.317 245.126C128.244 242.927 131.369 241.006 134.653 239.387C137.928 237.754 141.438 236.644 145.056 236.098C145.919 235.982 146.788 235.912 147.658 235.89C148.05 235.881 148.451 235.881 148.849 235.886C152.046 235.947 155.213 236.529 158.223 237.609C161.48 238.81 164.027 240.543 164.939 242.526C165.003 242.677 165.062 242.825 165.114 242.977L165.145 243.076C165.485 244.215 165.739 245.353 166.027 246.456L166.068 246.603L166.167 246.646L166.296 246.702C167.244 247.184 168.132 247.773 168.944 248.459C170.977 250.136 172.315 252.509 172.698 255.116C172.911 256.772 172.773 258.454 172.293 260.053Z" fill="white" stroke="#FDDCD8" stroke-width="2" stroke-miterlimit="10"/>
<path d="M202.717 306.714C202.33 308.049 201.753 309.323 201.006 310.495C200.19 311.784 199.225 312.972 198.131 314.034C195.914 316.186 193.327 317.922 190.495 319.158C188.635 319.993 186.669 320.569 184.652 320.868C181.991 321.241 177.826 320.632 173.078 319.49C169.9 318.734 166.458 317.705 163.065 316.592C157.068 314.621 151.117 312.3 146.717 310.322C142.539 308.446 139.758 306.883 139.668 306.234C139.582 305.522 139.682 304.799 139.958 304.136L140.353 304.177L139.958 304.136L139.985 304.074C141.527 300.256 148.237 297.978 149.199 297.118C151.302 295.255 153.499 293.431 155.741 291.787C158.668 289.588 161.794 287.667 165.077 286.048C168.352 284.415 171.863 283.305 175.481 282.759C176.344 282.643 177.213 282.573 178.083 282.551C178.475 282.542 178.875 282.542 179.273 282.547C182.471 282.608 185.637 283.19 188.648 284.27C191.904 285.472 194.451 287.205 195.363 289.187C195.428 289.338 195.487 289.486 195.538 289.638L195.569 289.738C195.91 290.876 196.164 292.014 196.451 293.117L196.493 293.264L196.591 293.307L196.721 293.363C197.668 293.845 198.556 294.435 199.368 295.12C201.402 296.797 202.739 299.17 203.122 301.777C203.336 303.433 203.198 305.115 202.717 306.714Z" fill="white" stroke="#FDDCD8" stroke-width="2" stroke-miterlimit="10"/>
<path d="M256.978 277.667C257.469 276.628 258.014 275.634 258.587 274.662C258.341 273.334 258.115 272.033 257.965 270.733C257.428 266.014 257.415 261.249 257.929 256.527C258.357 252.354 259.01 248.207 259.887 244.105C260.5 241.18 261.206 238.514 261.948 236.115C263.296 236.249 264.643 236.343 265.984 236.38C265.991 224.55 269.191 212.941 275.248 202.78C269.191 212.941 265.991 224.55 265.984 236.38C267.311 236.419 268.638 236.392 269.962 236.298C288.69 234.951 296.305 222.826 299.49 207.674L299.52 207.528C301.023 200.237 301.528 192.267 301.764 184.485C301.862 180.997 301.909 177.544 301.962 174.198L301.967 173.842C302.067 167.839 302.208 162.195 302.779 157.348C302.715 157.199 302.655 157.055 302.593 156.918C302.409 156.498 302.194 156.092 301.95 155.704C301.806 155.862 301.677 156.022 301.535 156.184C299.352 162.719 296.806 169.128 293.908 175.379C296.806 169.128 299.352 162.719 301.535 156.184C300.317 157.57 299.132 158.95 297.978 160.322C297.155 160.842 296.283 161.353 295.379 161.867C284.279 168.183 267.752 174.696 260.051 190.15C256.952 196.367 255.303 204.01 255.979 213.701C257.32 232.364 258.751 230.018 259.771 234.648C258.656 237.498 257.708 240.409 256.93 243.368C255.819 247.554 254.966 251.804 254.377 256.094C253.676 261.084 253.556 266.14 254.022 271.158C254.08 271.691 254.175 272.227 254.241 272.761C245.979 249.053 236.836 242.232 227.368 239.822C222.945 238.695 218.47 238.533 214.001 238.047C208.692 235.969 203.511 234.504 200.065 233.996L199.891 233.974C198.813 233.762 197.706 233.745 196.621 233.922C199.45 238.178 202.949 241.949 206.983 245.087C202.949 241.949 199.45 238.178 196.621 233.922C196.431 233.961 196.253 234.044 196.101 234.165L196.042 234.082L196.176 245.388C196.445 247.503 197.319 250.692 197.868 253.607L201.292 263.455C202.149 264.954 203.097 266.4 204.133 267.782C213.059 279.698 228.333 286.369 253.32 287.269C253.619 285.12 254.091 282.997 254.73 280.923C254.911 280.338 255.125 279.778 255.328 279.213C255.436 279.718 255.564 280.223 255.695 280.712C256.03 279.834 256.389 278.974 256.772 278.131L256.978 277.667ZM223.448 255.022C222.044 254.416 220.766 253.553 219.679 252.479C220.766 253.553 222.044 254.416 223.448 255.022ZM247.31 279.012C246.712 276.617 244.953 274.695 243.177 272.973C238.026 267.972 232.265 263.657 226.523 259.358C232.265 263.657 238.026 267.972 243.177 272.973C244.96 274.705 246.723 276.623 247.321 279.018L247.31 279.012ZM290.5 179.052C290.461 178.738 290.547 178.42 290.74 178.168C290.933 177.917 291.217 177.751 291.531 177.708C291.217 177.751 290.933 177.917 290.74 178.168C290.547 178.42 290.461 178.738 290.5 179.052ZM280.449 196.47C280.727 194.57 281.516 192.78 282.732 191.293C281.516 192.78 280.727 194.57 280.449 196.47Z" fill="white" stroke="#FDDCD8" stroke-width="2" stroke-miterlimit="10"/>
<path d="M313.122 259.033L312.983 259.139C313.526 259.234 314.08 259.252 314.628 259.193C314.124 259.168 313.621 259.115 313.122 259.033Z" fill="white"/>
<path d="M262.403 304.671L262.512 304.649C262.484 304.647 262.455 304.647 262.427 304.65L262.403 304.671Z" fill="white"/>
<path d="M259.458 305.599L259.479 305.558L259.396 305.605L259.458 305.599Z" fill="white"/>
<path d="M268.505 330.973C267.204 330.494 265.902 329.995 264.586 329.399C262.756 328.604 261.007 327.632 259.366 326.496C257.818 325.439 256.466 324.119 255.373 322.596C255.319 322.504 255.26 322.422 255.204 322.335C255.981 321.536 256.736 320.757 257.449 319.995C261.178 323.852 264.867 327.528 268.505 330.973Z" fill="white"/>
<path d="M314.808 359.223C314.778 359.267 314.753 359.314 314.734 359.363C314.609 359.298 314.474 359.226 314.357 359.12C314.501 359.151 314.664 359.192 314.808 359.223Z" fill="white"/>
<path d="M248.863 310.87C249.36 311.419 249.858 311.955 250.36 312.494L250.339 312.534C249.99 314.423 249.836 316.344 249.882 318.266C249.907 318.734 249.955 319.201 250.028 319.665C249.752 319.462 249.477 319.267 249.188 319.064C244.859 316.034 239.748 312.717 236.712 306.266C235.633 303.978 234.743 301.605 234.053 299.171C233.47 297.074 233.054 294.933 232.812 292.77C234.246 294.49 235.716 296.198 237.223 297.892C240.947 302.11 244.83 306.463 248.863 310.87Z" fill="white" stroke="#FDDCD8" stroke-width="2" stroke-miterlimit="10"/>
<path d="M254.424 320.915C254.332 320.726 254.27 320.527 254.188 320.331C253.877 319.554 253.66 318.743 253.541 317.915C253.427 317.172 253.358 316.423 253.334 315.672C254.715 317.144 256.087 318.584 257.45 319.995C256.736 320.757 255.997 321.543 255.205 322.334C255.02 322.063 254.856 321.778 254.713 321.482C254.613 321.295 254.521 321.106 254.424 320.915Z" fill="white" stroke="#FDDCD8" stroke-width="2" stroke-miterlimit="10"/>
<path d="M314.078 361.535C314.061 362.015 314.088 362.496 314.161 362.971C314.632 363.068 315.114 363.107 315.595 363.086C316.488 363.094 317.351 362.758 318.004 362.148C319.286 360.778 319.492 358.989 318.574 358.232C318.268 358.018 317.91 357.89 317.538 357.861C317.166 357.832 316.793 357.902 316.458 358.065C315.461 357.337 313.837 356.343 311.793 355.077C309.952 353.95 307.756 352.61 305.254 351.161C302.751 349.712 299.988 348.176 297.047 346.625C294.107 345.073 291.301 343.714 288.798 342.424C287.297 341.635 285.83 340.864 284.561 340.107C283.157 338.368 281.45 336.897 279.522 335.766C279.04 335.468 278.55 335.185 277.997 334.888C277.052 333.996 276.11 333.075 275.169 332.125C270.395 327.45 265.429 322.279 260.336 316.837C259.423 317.858 258.473 318.898 257.453 319.978C261.168 323.847 264.87 327.511 268.508 330.956C267.208 330.477 265.905 329.977 264.589 329.382C262.759 328.587 261.011 327.614 259.37 326.479C257.821 325.422 256.47 324.102 255.377 322.579C255.323 322.487 255.264 322.405 255.207 322.317L254.962 322.578L254.306 323.243C253.014 321.897 251.583 320.693 250.036 319.651C250.31 321.472 250.934 323.223 251.874 324.807C253.161 326.867 254.857 328.641 256.857 330.019C260.82 332.786 265.076 334.217 268.772 335.304C271.349 336.064 273.699 336.769 275.733 337.506C277.379 338.933 279.021 340.281 280.626 341.565C281.993 343.173 283.46 344.693 285.018 346.116C287.506 348.378 290.208 350.393 293.086 352.132C298.266 355.233 303.75 357.794 309.453 359.775C311.311 360.419 312.882 360.894 314.1 361.189C314.11 361.328 314.063 361.418 314.078 361.535ZM314.709 359.35C314.584 359.284 314.449 359.213 314.332 359.107C314.501 359.151 314.664 359.192 314.808 359.223C314.77 359.261 314.737 359.304 314.709 359.35Z" fill="white" stroke="#FDDCD8" stroke-width="2" stroke-miterlimit="10"/>
<path d="M253.329 315.671C253.353 316.422 253.422 317.171 253.536 317.913C253.655 318.741 253.872 319.552 254.183 320.329C254.265 320.525 254.327 320.724 254.419 320.913C254.511 321.102 254.609 321.294 254.708 321.48C254.851 321.776 255.015 322.061 255.2 322.332L254.954 322.593L254.298 323.258C253.006 321.912 251.575 320.708 250.028 319.666C249.955 319.202 249.906 318.735 249.882 318.267C249.836 316.345 249.99 314.424 250.339 312.535L250.36 312.495C249.858 311.956 249.36 311.42 248.863 310.871C244.83 306.464 240.947 302.111 237.226 297.888C235.721 296.19 234.25 294.483 232.815 292.766C232.714 291.831 232.642 290.902 232.6 289.977L232.577 289.402C232.542 288.253 232.575 287.121 232.643 285.994C234.97 289.006 237.621 291.983 240.399 295.059C243.929 298.977 247.58 303.03 251.336 307.137C252.327 302.031 253.127 298.868 253.172 298.661C253.18 298.876 253.369 302.444 253.344 308.058L253.318 309.322C255.677 311.884 257.993 314.379 260.304 316.826C259.39 317.847 258.441 318.888 257.42 319.967C256.067 318.571 254.704 317.138 253.329 315.671Z" fill="white" stroke="#FDDCD8" stroke-width="2" stroke-miterlimit="10"/>
<path d="M297.756 408.369C297.137 408.562 296.514 408.751 295.893 408.936C297.399 408.501 298.871 408.023 300.345 407.514C299.482 407.807 298.621 408.096 297.756 408.369Z" fill="white" stroke="#FDDCD8" stroke-width="2" stroke-miterlimit="10"/>
<path d="M293.906 409.494L295.433 409.019L293.906 409.494Z" fill="white" stroke="#FDDCD8" stroke-width="2" stroke-miterlimit="10"/>
<path d="M289.659 410.661L288.568 410.95C290.231 410.509 291.902 410.064 293.565 409.597C292.255 409.975 290.953 410.326 289.659 410.661Z" fill="white" stroke="#FDDCD8" stroke-width="2" stroke-miterlimit="10"/>
<path d="M293.56 409.607L293.927 409.506L293.56 409.607Z" fill="white" stroke="#FDDCD8" stroke-width="2" stroke-miterlimit="10"/>
<path d="M295.463 409.061L295.893 408.936L295.463 409.061Z" fill="white" stroke="#FDDCD8" stroke-width="2" stroke-miterlimit="10"/>
<path d="M300.338 407.51L300.345 407.514L300.338 407.51Z" fill="white" stroke="#FDDCD8" stroke-width="2" stroke-miterlimit="10"/>
<path d="M271.114 414.565L270.443 414.628L271.114 414.565Z" fill="white" stroke="#FDDCD8" stroke-width="2" stroke-miterlimit="10"/>
<path d="M208.821 349.723L209.399 353.074C209.588 352.228 209.756 351.384 209.89 350.534L208.821 349.723Z" fill="white" stroke="#FDDCD8" stroke-width="2" stroke-miterlimit="10"/>
<path d="M337.332 369.564C337.872 369.236 338.385 368.864 338.867 368.454C339.341 368.127 339.764 367.732 340.122 367.281C340.243 367.134 340.348 366.975 340.435 366.807C339.38 367.924 338.17 368.885 336.842 369.658L336.752 369.828C336.928 369.748 337.125 369.653 337.332 369.564Z" fill="white" stroke="#FDDCD8" stroke-width="2" stroke-miterlimit="10"/>
<path d="M317.273 335.28C316.817 334.932 316.417 334.6 316.001 334.248C316.401 334.621 316.826 334.966 317.273 335.28Z" fill="white" stroke="#FDDCD8" stroke-width="2" stroke-miterlimit="10"/>
<path d="M241.557 293.642L241.547 293.88L241.557 293.642Z" fill="white" stroke="#FDDCD8" stroke-width="2" stroke-miterlimit="10"/>
<path d="M292.524 341.264C292.476 340.869 292.402 340.478 292.303 340.093L292.224 339.828C291.931 338.841 291.465 337.913 290.848 337.087C290.451 336.545 289.987 336.057 289.466 335.632C288.732 335.071 287.966 334.552 287.174 334.076C286.943 333.955 286.737 333.789 286.527 333.641C282.867 331.027 280.917 326.668 277.883 323.349C276.351 321.702 274.552 320.325 272.563 319.275L272.612 319.365L272.952 320.042C273.29 320.712 273.621 321.396 273.93 322.083C274.865 324.023 275.551 326.073 275.975 328.184C276.038 328.537 276.097 328.887 276.138 329.247C276.264 330.397 276.296 331.554 276.235 332.709C276.206 333.262 276.161 333.82 276.112 334.376C277.618 335.562 279.009 336.888 280.266 338.335C282.798 338.591 285.309 339.018 287.782 339.615C289.47 339.951 291.089 340.567 292.574 341.437L292.524 341.264Z" fill="white" stroke="#FDDCD8" stroke-width="2" stroke-miterlimit="10"/>
<path d="M334.205 361.814C337.49 356.623 340.235 351.071 342.959 345.546C343.756 343.934 344.571 342.261 344.645 340.467C344.748 338.132 343.614 335.951 342.474 333.915C339.788 329.131 336.898 324.469 333.972 319.827L332.117 316.891C331.791 316.381 331.472 315.869 331.139 315.362C330.087 313.655 328.834 312.081 327.407 310.673C326.883 310.191 326.32 309.754 325.723 309.367C327.285 311.506 328.633 313.793 329.748 316.196C330.12 316.996 330.463 317.815 330.776 318.652C331.616 320.808 332.24 323.042 332.637 325.322C333.055 327.69 333.15 330.104 332.922 332.498C332.799 333.691 332.582 334.874 332.271 336.033C332.529 335.76 332.78 335.477 333.014 335.191C332.786 337.163 332.369 339.108 331.768 341C330.98 343.569 329.951 346.088 328.927 348.558C327.406 352.23 325.85 355.98 323.681 359.343C323.31 359.919 322.924 360.483 322.524 361.034C323.581 361.737 324.719 362.309 325.914 362.739C326.416 362.927 326.933 363.096 327.454 363.248L328.009 363.406C329.129 363.707 330.315 363.979 331.499 364.205C331.834 364.273 332.169 364.34 332.506 364.403C333.09 363.547 333.654 362.681 334.205 361.814Z" fill="white" stroke="#FDDCD8" stroke-width="2" stroke-miterlimit="10"/>
<path d="M284.529 307.519L284.545 307.489C284.465 307.447 284.38 307.402 284.3 307.36L284.529 307.519Z" fill="white" stroke="#FDDCD8" stroke-width="2" stroke-miterlimit="10"/>
<path d="M314.582 323.964C315.053 326.715 315.162 329.545 314.387 332.102C314.725 332.675 315.048 333.215 315.389 333.733C315.448 330.458 315.178 327.185 314.582 323.964Z" fill="white" stroke="#FDDCD8" stroke-width="2" stroke-miterlimit="10"/>
<path d="M314.402 332.111C315.177 329.555 315.058 326.707 314.597 323.974C314.471 323.23 314.324 322.489 314.166 321.767C313.604 319.191 312.849 316.604 311.4 314.379C310.324 312.8 308.964 311.435 307.389 310.355C306.713 309.871 306.01 309.427 305.283 309.025C302.53 307.495 299.384 306.455 296.223 306.818C295.744 306.868 295.271 306.957 294.806 307.083C293.272 307.495 291.871 308.3 290.743 309.419C290.577 309.587 290.42 309.766 290.267 309.948C290.125 310.114 289.994 310.288 289.872 310.468C291.528 311.624 293.083 312.92 294.518 314.341C295.874 315.691 297.121 317.147 298.246 318.696C298.8 318.942 299.354 319.201 299.898 319.468C302.791 320.854 305.736 322.287 308.088 324.449C308.251 324.599 308.418 324.757 308.576 324.917C308.928 325.268 309.26 325.634 309.581 326.019C311.283 328.032 312.634 330.396 314.267 332.43L314.402 332.111Z" fill="white" stroke="#FDDCD8" stroke-width="2" stroke-miterlimit="10"/>
<path d="M211.776 339.422C211.752 339.869 211.723 340.314 211.711 340.761C211.728 340.316 211.757 339.872 211.776 339.422Z" fill="white" stroke="#FDDCD8" stroke-width="2" stroke-miterlimit="10"/>
<path d="M211.921 337.312L211.777 339.421L211.921 337.312Z" fill="white" stroke="#FDDCD8" stroke-width="2" stroke-miterlimit="10"/>
<path d="M300.216 407.687L301.186 407.348C300.86 407.457 300.542 407.577 300.216 407.687Z" fill="white" stroke="#FDDCD8" stroke-width="2" stroke-miterlimit="10"/>
<path d="M212.717 374.799C212.595 374.486 212.497 374.185 212.41 373.877C212.098 372.668 211.858 371.441 211.69 370.203C211.436 368.754 211.237 367.187 210.826 365.77C210.006 362.784 211.26 359.681 210.219 356.789C207.807 350.098 203.928 343.064 204.367 335.63C203.867 336.057 203.37 336.492 202.881 336.938C200.139 339.433 197.642 342.185 195.425 345.156L195.344 345.311C194.486 346.466 193.678 347.647 192.92 348.854C192.232 349.944 191.584 351.052 190.976 352.176C190.067 353.863 189.25 355.597 188.526 357.372C187.272 360.425 186.334 363.598 185.727 366.843C185.062 370.454 184.768 374.247 182.657 377.474C181.774 378.825 183.33 381.578 185.759 384.515C189.472 389.021 195.235 393.966 197.487 395.016C199.957 396.186 201.581 398.445 203.64 400.166C206.207 402.252 209.268 403.64 212.527 404.197C214.554 404.58 216.617 404.732 218.677 404.651C219.464 404.624 220.249 404.564 221.035 404.478C221.938 404.378 222.843 404.234 223.742 404.068C226.887 403.447 229.961 402.514 232.921 401.284C222.49 395.585 217.282 386.351 212.717 374.799ZM211.219 372.703C211.287 372.802 211.361 372.898 211.439 372.99C211.361 372.898 211.287 372.802 211.219 372.703ZM211.513 373.093C211.691 373.302 211.891 373.493 212.108 373.661C211.891 373.493 211.691 373.302 211.513 373.093Z" fill="white" stroke="#FDDCD8" stroke-width="2" stroke-miterlimit="10"/>
<path d="M326.905 412.28C326.687 411.395 326.319 410.553 325.817 409.792C325.53 409.392 325.215 409.013 324.874 408.658C324.24 408.004 323.538 407.421 322.779 406.918C321.942 407.158 321.087 407.326 320.222 407.42L320.08 407.435C320.159 407.515 320.228 407.603 320.305 407.688C320.688 408.094 321.048 408.522 321.382 408.969C320.14 408.476 318.906 407.981 317.686 407.493L317.521 407.406C317.506 407.396 317.489 407.387 317.471 407.38C314.047 408.151 310.529 408.421 307.027 408.183C305.577 408.068 304.137 407.845 302.721 407.517C302.26 407.409 301.799 407.288 301.344 407.158L300.379 407.5C298.907 408.004 297.41 408.494 295.926 408.922L295.496 409.047L293.969 409.522L293.603 409.624C291.939 410.091 290.269 410.535 288.606 410.977L286.689 411.477C286.526 411.519 286.361 411.566 286.193 411.606L284.556 412.023L284.159 412.121C282.798 412.466 281.434 412.789 280.067 413.088L279.735 413.162C279.094 413.299 278.454 413.435 277.807 413.561C277.807 413.561 277.728 413.577 277.685 413.586C276.971 413.729 276.26 413.866 275.555 413.993C274.86 414.101 274.207 414.211 273.533 414.304C273.434 414.322 273.332 414.333 273.236 414.346C272.554 414.444 271.872 414.526 271.19 414.593L270.518 414.655L269.784 414.716L269.166 414.762C268.763 414.787 268.355 414.809 267.95 414.826L267.452 414.839C267.1 414.852 266.746 414.857 266.386 414.86L266.065 414.864C265.613 414.862 265.162 414.856 264.71 414.841L264.354 414.827C263.879 414.807 263.406 414.782 262.949 414.727C262.493 414.673 261.856 414.632 261.316 414.565C260.781 414.501 260.252 414.427 259.712 414.361C259.701 414.358 259.691 414.353 259.682 414.345L259.647 414.327C259.137 414.251 258.621 414.164 258.109 414.055C257.943 414.019 257.777 413.983 257.608 413.952C257.563 413.928 257.505 413.929 257.447 413.918C257.142 413.854 256.84 413.784 256.538 413.715L256.412 413.687C256.082 413.61 255.76 413.53 255.433 413.447L255.388 413.424C254.003 413.07 252.626 412.668 251.257 412.217C251.207 412.191 251.157 412.165 251.107 412.138L250.283 411.859C250.203 411.816 250.123 411.774 250.024 411.767C249.781 411.684 249.537 411.601 249.296 411.512C249.201 411.462 249.09 411.442 248.995 411.405C248.764 411.322 248.538 411.242 248.309 411.153C248.209 411.101 248.093 411.078 247.988 411.036L247.328 410.785C247.223 410.729 247.102 410.704 246.991 410.659C246.786 410.551 246.557 410.488 246.339 410.405C246.234 410.35 246.129 410.295 246.005 410.275C245.795 410.164 245.566 410.101 245.345 410.011L245.029 409.883C244.809 409.767 244.565 409.697 244.334 409.601C244.244 409.554 244.159 409.509 244.069 409.462C243.748 409.331 243.427 409.201 243.108 409.065C241.656 408.462 240.204 407.846 238.779 407.179C239.078 407.63 239.423 408.049 239.808 408.43C241.661 410.24 244.366 410.914 246.146 412.802C246.404 413.085 246.64 413.386 246.854 413.704C248.534 416.171 248.784 419.585 249.617 422.668C249.767 423.219 249.938 423.769 250.135 424.294C250.604 425.505 251.25 426.639 252.053 427.659C253.27 429.202 254.786 430.484 256.511 431.427C257.435 431.937 258.408 432.354 259.415 432.671C263.496 433.96 268.008 433.725 272.324 432.685C274.138 432.246 275.997 431.664 277.779 431.955C280.017 432.327 281.739 433.985 283.65 435.175C290.654 439.495 301.209 436.623 306.094 429.028C306.993 427.634 307.758 426.069 308.688 424.725C309.332 423.723 310.172 422.86 311.157 422.19C313.75 420.525 317 421.051 320.001 420.98C322.02 420.93 323.926 420.609 325.455 419.171C325.757 418.882 326.026 418.561 326.258 418.213C326.769 417.322 327.09 416.335 327.201 415.314C327.312 414.293 327.211 413.26 326.905 412.28Z" fill="white" stroke="#FDDCD8" stroke-width="2" stroke-miterlimit="10"/>
<path d="M320.313 407.672C320.236 407.587 320.167 407.5 320.088 407.42C319.912 407.244 319.731 407.066 319.545 406.898C319.403 406.766 319.259 406.639 319.11 406.51C317.052 404.829 314.757 403.462 312.3 402.452L311.924 402.293C311.703 402.177 311.467 402.091 311.237 401.995C309.072 401.082 306.848 400.258 304.735 399.332C293.681 394.5 284.459 386.013 274.34 379.526C271.605 377.747 268.749 376.163 265.793 374.785C263.581 373.765 261.294 372.915 258.952 372.244C258.075 371.994 257.186 371.776 256.3 371.578C254.225 371.127 252.138 370.771 250.041 370.435C247.55 370.033 245.054 369.641 242.602 369.081C232.954 366.91 225.32 362.049 217.7 356.421C215.861 355.059 214.038 353.666 212.18 352.243C211.079 351.404 209.968 350.561 208.847 349.712C209.041 350.849 209.238 351.985 209.438 353.121L209.845 355.481L210.036 356.578L210.28 357.984C210.503 359.417 210.826 360.834 211.247 362.222C211.723 363.895 212.666 365.398 213.964 366.556C214.225 366.766 214.498 366.961 214.782 367.139C215.339 367.478 215.922 367.769 216.527 368.012C217.342 368.345 218.194 368.632 219.025 368.948C219.318 369.057 219.607 369.177 219.89 369.294C220.286 369.464 220.67 369.646 221.043 369.848C221.814 370.292 222.542 370.809 223.214 371.392C224.179 372.218 225.086 373.13 226.025 373.981C226.239 374.17 226.465 374.359 226.674 374.545C229.163 376.66 231.961 378.382 234.97 379.653C240.984 382.198 247.595 382.995 254.042 381.953C256.082 381.622 258.085 381.091 260.022 380.369C260.481 380.201 260.932 380.023 261.389 379.81L261.566 379.73C261.726 379.681 261.896 379.668 262.062 379.692C262.228 379.717 262.387 379.778 262.526 379.871C262.615 380.237 262.709 380.606 262.82 380.964C263.071 381.781 263.388 382.576 263.769 383.341C265.489 386.842 268.396 389.619 271.972 391.178C274.928 392.432 278.254 392.812 281.314 393.737C282.965 394.186 284.523 394.923 285.918 395.914C287.842 397.334 289.223 399.35 290.872 401.073C291.283 401.506 291.758 401.94 292.23 402.342C294.887 404.578 297.996 406.212 301.345 407.132C301.8 407.263 302.26 407.383 302.721 407.491C303.33 407.632 303.945 407.751 304.581 407.83C305.397 407.965 306.225 408.055 307.04 408.132C309.288 408.294 311.546 408.236 313.782 407.958C315.024 407.806 316.26 407.593 317.477 407.344C317.494 407.351 317.511 407.36 317.527 407.371L317.692 407.458C318.931 407.956 320.166 408.451 321.388 408.933C321.054 408.493 320.695 408.072 320.313 407.672Z" fill="white" stroke="#FDDCD8" stroke-width="2" stroke-miterlimit="10"/>
<path d="M292.21 402.357C291.737 401.955 291.288 401.534 290.852 401.088C289.195 399.38 287.814 397.364 285.898 395.929C284.503 394.938 282.944 394.201 281.293 393.752C278.234 392.827 274.908 392.446 271.952 391.193C268.375 389.634 265.469 386.857 263.749 383.356C263.368 382.591 263.051 381.796 262.8 380.979C262.628 380.446 262.487 379.902 262.378 379.352C262.03 379.515 261.686 379.672 261.334 379.819C260.887 380.013 260.436 380.191 259.967 380.378C258.03 381.1 256.027 381.631 253.986 381.962C247.539 383.004 240.929 382.207 234.914 379.662C231.905 378.392 229.107 376.669 226.618 374.554C226.399 374.363 226.178 374.176 225.969 373.99C225.001 373.11 224.068 372.186 223.066 371.346C223.096 371.362 223.131 371.38 223.161 371.396C223.022 371.285 222.875 371.175 222.735 371.064C222.596 370.952 222.405 370.794 222.235 370.667C221.837 370.37 221.421 370.098 220.99 369.853C220.624 369.66 220.259 369.468 219.872 369.316C219.592 369.169 219.293 369.07 218.994 368.957C218.164 368.642 217.312 368.354 216.497 368.022C215.955 367.8 215.429 367.543 214.921 367.251C214.577 367.046 214.247 366.817 213.934 366.566C211.481 364.536 210.789 361.125 210.24 357.988L209.995 356.582L209.805 355.485C209.829 357.325 209.865 359.177 209.936 361.022C210.146 366.153 210.686 371.227 212.211 375.97C212.292 376.217 212.368 376.474 212.448 376.734C214.446 382.498 217.894 387.472 221.396 392.295C223.861 395.673 226.406 399.035 229.562 401.697C232.319 403.945 235.366 405.813 238.621 407.249C240.046 407.916 241.498 408.532 242.95 409.135C243.256 409.296 243.59 409.401 243.911 409.532C244.001 409.579 244.086 409.624 244.176 409.671C244.397 409.787 244.638 409.862 244.871 409.953L245.187 410.081C245.397 410.191 245.626 410.254 245.847 410.345C245.952 410.4 246.057 410.455 246.181 410.475C246.399 410.558 246.615 410.646 246.833 410.729C246.938 410.784 247.044 410.839 247.17 410.855L247.83 411.106C247.93 411.158 248.03 411.211 248.151 411.223C248.366 411.337 248.606 411.392 248.837 411.475C248.927 411.522 249.022 411.572 249.138 411.582C249.379 411.671 249.623 411.754 249.866 411.837C249.946 411.879 250.026 411.921 250.125 411.928L250.949 412.208C250.999 412.235 251.049 412.261 251.099 412.287C252.467 412.738 253.844 413.14 255.23 413.494L255.275 413.517C255.602 413.6 255.924 413.68 256.254 413.757L256.38 413.785C256.682 413.854 256.984 413.924 257.289 413.988C257.339 414.014 257.4 414.008 257.45 414.022C257.619 414.053 257.785 414.089 257.951 414.125C258.463 414.234 258.979 414.321 259.489 414.397L259.524 414.415C259.532 414.423 259.543 414.428 259.554 414.431C260.083 414.518 260.613 414.591 261.158 414.635C261.698 414.702 262.246 414.753 262.791 414.797C263.337 414.841 263.731 414.857 264.196 414.897L264.552 414.911C265.004 414.926 265.454 414.932 265.907 414.934L266.228 414.93C266.588 414.927 266.942 414.922 267.294 414.909L267.792 414.896C268.197 414.879 268.605 414.857 269.007 414.832L269.625 414.786L270.36 414.725C270.583 414.702 270.804 414.684 271.029 414.668C271.712 414.601 272.394 414.519 273.075 414.421C273.171 414.408 273.273 414.397 273.372 414.379C274.057 414.292 274.719 414.186 275.394 414.068C276.1 413.941 276.811 413.804 277.524 413.661C277.554 413.677 277.608 413.648 277.646 413.636C278.294 413.51 278.934 413.374 279.574 413.237L279.907 413.163C281.27 412.862 282.634 412.54 283.998 412.196L284.395 412.098L286.032 411.681C286.2 411.641 286.365 411.594 286.528 411.552L288.445 411.052L289.536 410.763C290.835 410.417 292.137 410.067 293.442 409.699L293.809 409.597L294.473 409.403L295.345 409.153L295.775 409.028C296.396 408.843 297.02 408.653 297.638 408.461C298.503 408.187 299.364 407.899 300.227 407.605L301.193 407.263C297.881 406.291 294.817 404.618 292.21 402.357Z" fill="white" stroke="#FDDCD8" stroke-width="2" stroke-miterlimit="10"/>
<path d="M339.906 391.077C341.957 387.986 343.962 384.864 345.92 381.711C346.618 380.59 347.309 379.471 348.002 378.334L348.617 377.31C347.883 377.811 347.115 378.261 346.319 378.657L346.186 378.727C344.679 379.458 343.097 380.023 341.468 380.412C341.246 380.469 341.033 380.51 340.81 380.558C339.196 380.906 337.559 381.132 335.912 381.236C334.258 381.344 332.599 381.353 330.93 381.307C330.25 381.933 329.612 382.601 328.951 383.25C325.175 387.112 321.519 391.084 317.981 395.166C317.021 396.277 316.065 397.391 315.124 398.512C314.046 399.723 313.087 401.035 312.26 402.43C312.575 402.596 312.907 402.719 313.227 402.875C315.297 403.792 317.234 404.984 318.985 406.418C319.022 406.434 319.057 406.453 319.091 406.474C319.235 406.6 319.379 406.727 319.525 406.862C319.672 406.996 319.898 407.211 320.076 407.394L320.218 407.379C321.795 407.198 323.338 406.789 324.798 406.164C327.092 405.18 329.204 403.818 331.048 402.135C334.569 398.971 337.285 395.02 339.906 391.077Z" fill="white" stroke="#FDDCD8" stroke-width="2" stroke-miterlimit="10"/>
<path d="M265.723 374.396C264.725 366.57 261.959 359.157 258.161 352.223C257.793 351.551 257.422 350.883 257.033 350.225C248.828 341.627 237.301 335.288 232.247 324.462C230.606 320.949 229.738 317.082 227.632 313.797C226.604 312.294 225.477 310.861 224.259 309.507C224.204 309.478 224.172 309.404 224.125 309.348C223.999 309.697 223.868 310.043 223.719 310.412C223.373 311.265 222.992 312.112 222.588 312.954C221.632 314.943 220.526 316.878 219.442 318.831L219.073 319.532C218.567 320.422 218.066 321.315 217.575 322.213C217.254 322.823 216.933 323.434 216.615 324.04C216.215 324.801 215.826 325.541 215.483 326.351C211.828 334.474 210.671 343.5 212.159 352.282C214.022 353.695 215.848 355.096 217.679 356.461C222.244 359.831 226.818 362.93 231.825 365.338C235.262 367.01 238.88 368.283 242.606 369.133C244.323 369.511 246.112 369.839 247.882 370.13C251.598 370.741 255.333 371.267 258.959 372.291C259.905 372.558 260.835 372.855 261.749 373.182C262.78 373.554 263.795 373.955 264.795 374.387C265.115 374.555 265.464 374.681 265.8 374.832L265.723 374.396Z" fill="white" stroke="#FDDCD8" stroke-width="2" stroke-miterlimit="10"/>
<path d="M273.601 281.993C273.348 281.771 273.084 281.556 272.825 281.343C272.087 280.739 271.318 280.175 270.52 279.652C268.464 278.317 266.241 277.259 263.909 276.504C260.505 275.386 256.913 274.958 253.342 275.243C249.884 275.54 246.214 276.652 244.16 279.443C243.4 280.497 242.852 281.688 242.546 282.951C242.192 284.451 241.976 285.98 241.902 287.518L241.875 287.849L241.835 288.607C241.775 289.56 241.715 290.512 241.668 291.464C241.603 292.912 241.544 294.363 241.504 295.811L241.483 296.752C241.469 297.434 241.45 298.114 241.444 298.795C241.402 300.089 241.419 301.407 241.428 302.714C243.149 299.896 244.427 296.83 245.216 293.623C245.417 292.802 245.583 291.976 245.719 291.147C245.785 290.716 245.852 290.284 245.902 289.85C246.493 290.25 247.061 290.683 247.603 291.147C248.827 292.179 249.926 293.351 250.878 294.638C251.61 295.624 252.251 296.675 252.793 297.777C252.939 298.071 253.076 298.38 253.212 298.681C255.87 297.14 258.398 295.383 260.769 293.429C260.912 292.873 261.092 292.327 261.308 291.796C261.936 290.341 262.884 289.048 264.083 288.012C265.281 286.975 266.698 286.224 268.228 285.813C268.904 285.636 269.599 285.538 270.297 285.521C270.942 284.453 271.759 283.499 272.714 282.696C272.995 282.443 273.291 282.209 273.601 281.993Z" fill="white" stroke="#FDDCD8" stroke-width="2" stroke-miterlimit="10"/>
<path d="M276.177 333.382C276.202 333.006 276.225 332.634 276.235 332.263L276.237 331.625C276.245 330.842 276.204 330.059 276.115 329.281C275.692 326.476 274.811 323.76 273.506 321.241C273.195 320.617 272.881 319.999 272.565 319.386L272.516 319.296C271.292 316.896 269.948 314.459 268.059 312.572C267.364 311.853 266.579 311.226 265.724 310.706C263.688 309.489 261.247 308.992 259.206 307.83C258.733 307.567 258.284 307.263 257.864 306.92C255.384 304.882 254.456 301.616 253.145 298.653C253.009 298.352 252.871 298.043 252.726 297.749C251.157 294.559 248.788 291.831 245.85 289.83C245.797 290.282 245.73 290.726 245.655 291.172C245.417 292.665 245.069 294.139 244.615 295.582C244.41 296.24 244.179 296.886 243.934 297.523C243.587 298.427 243.199 299.309 242.77 300.176C242.593 300.511 242.417 300.846 242.244 301.177C241.981 301.677 241.702 302.208 241.373 302.687C241.383 304.289 241.41 305.887 241.453 307.481C241.614 307.565 241.774 307.65 241.954 307.744C246.343 310.051 249.898 313.644 253.274 317.271L255.232 319.379C257.97 322.313 260.783 325.177 264.12 327.384C267.716 329.766 271.83 331.309 275.328 333.83C275.582 334.015 275.834 334.205 276.08 334.392L276.177 333.382Z" fill="white" stroke="#FDDCD8" stroke-width="2" stroke-miterlimit="10"/>
<path d="M354.14 371.09C355.617 367.989 355.899 364.426 357.293 361.288C358.22 359.22 359.609 357.318 359.775 355.081C360.084 350.957 356.254 347.852 354.468 344.128C351.726 338.407 353.734 330.794 349.654 325.916C348.845 324.982 347.898 324.178 346.844 323.533C344.325 321.921 341.358 320.822 339.192 318.744C336.321 315.99 335.164 311.824 332.362 309.011C331.217 307.884 329.883 306.966 328.421 306.3C326.721 305.537 324.955 304.931 323.144 304.492C321.758 304.127 320.36 303.808 318.958 303.512C319.195 303.898 319.44 304.295 319.697 304.692C321.135 306.892 323.571 307.897 325.737 309.342C326.333 309.73 326.896 310.166 327.42 310.648C329.319 312.432 330.733 314.663 332.13 316.867C333.169 318.511 334.206 320.157 335.24 321.803C336.626 324.027 338.003 326.27 339.368 328.534C340.43 330.305 341.468 332.09 342.482 333.888C343.622 335.924 344.741 338.096 344.654 340.439C344.582 342.082 343.894 343.623 343.168 345.114L342.957 345.514C339.779 351.962 336.568 358.451 332.505 364.358C333.5 364.555 334.495 364.765 335.497 364.972C335.973 365.075 336.452 365.186 336.922 365.312C337.777 365.532 338.597 365.771 339.433 366.076C339.806 366.214 340.159 366.4 340.484 366.628L340.534 366.655L340.405 366.791C340.318 366.96 340.213 367.119 340.092 367.265C339.734 367.716 339.311 368.112 338.837 368.439C338.355 368.849 337.842 369.22 337.302 369.548C337.095 369.638 336.898 369.733 336.702 369.827L336.799 369.642C336.381 369.902 335.964 370.149 335.547 370.396L327.514 375.155C325.401 376.325 323.402 377.688 321.541 379.228C321.074 379.646 320.629 380.088 320.207 380.551C320.714 380.594 321.224 380.633 321.737 380.678L324.808 380.912C324.969 380.921 325.133 380.937 325.293 380.95C327.141 381.079 329.048 381.218 330.926 381.279C331.563 381.282 332.235 381.328 332.914 381.301C335.04 381.307 337.163 381.141 339.262 380.805C340.003 380.684 340.742 380.542 341.476 380.359C344.014 379.753 346.425 378.701 348.596 377.253C349.614 376.57 350.557 375.781 351.41 374.9C352.52 373.786 353.442 372.5 354.14 371.09Z" fill="white" stroke="#FDDCD8" stroke-width="2" stroke-miterlimit="10"/>
<path d="M323.686 359.333C324.973 357.279 326.102 355.131 327.063 352.906C327.606 351.69 328.122 350.467 328.624 349.255L328.914 348.558C329.515 347.111 330.116 345.651 330.67 344.172C330.945 343.429 331.216 342.683 331.464 341.932C332.213 339.746 332.728 337.485 333.001 335.19C332.859 335.363 332.712 335.534 332.558 335.705L332.258 336.032C331.501 336.799 330.697 337.518 329.85 338.184C329.256 338.658 328.647 339.136 328.031 339.592C326.316 340.849 324.485 341.938 322.407 342.283C318.263 342.96 314.308 340.531 310.198 339.699C308.033 339.276 305.805 339.295 303.648 339.754C301.49 340.213 299.447 341.102 297.642 342.369C297.362 342.56 297.097 342.772 296.833 342.985C296.338 343.386 295.868 343.818 295.425 344.276C295.653 344.549 295.89 344.814 296.13 345.075C296.17 345.096 296.215 345.119 296.239 345.183C297.224 346.187 298.347 347.046 299.574 347.734C302.062 349.163 304.915 350.055 307.738 351.015C310.315 351.897 312.868 352.836 315.079 354.305C315.559 354.617 316.021 354.955 316.463 355.319C318.395 356.929 319.883 359.033 321.878 360.561C322.099 360.735 322.339 360.899 322.561 361.048C322.935 360.482 323.31 359.91 323.686 359.333Z" fill="white" stroke="#FDDCD8" stroke-width="2" stroke-miterlimit="10"/>
<path d="M326.619 338.741C326.115 338.507 325.597 338.303 325.069 338.131L324.989 338.089C324.732 338.005 324.479 337.929 324.22 337.851C322.193 337.258 320.034 336.833 318.208 335.822C317.891 335.646 317.583 335.452 317.287 335.242C316.84 334.927 316.415 334.582 316.015 334.209C315.409 333.639 314.846 333.025 314.33 332.372C312.403 329.961 310.841 327.064 308.639 324.859C306.212 322.427 303.057 320.897 299.961 319.41C299.425 319.129 298.863 318.885 298.309 318.638C297.188 318.113 296.004 317.731 294.786 317.502C293.416 317.33 292.031 317.305 290.655 317.426L289.126 317.504L285.617 317.691C285.113 317.714 284.607 317.741 284.1 317.769L284.466 318.798C284.856 319.916 285.21 321.029 285.564 322.167C286.214 324.299 286.731 326.469 287.112 328.665L287.17 329.041C287.488 330.698 287.491 332.4 287.178 334.059C287.97 334.534 288.736 335.054 289.47 335.615C289.93 335.997 290.346 336.43 290.709 336.905C291.732 338.207 292.368 339.77 292.547 341.416C292.855 341.613 293.148 341.831 293.425 342.069C294.151 342.739 294.821 343.467 295.429 344.246C296.105 343.541 296.847 342.902 297.645 342.339C300.192 340.552 303.194 339.527 306.302 339.383C307.609 339.317 308.918 339.413 310.201 339.669C313.322 340.293 316.352 341.834 319.436 342.248C320.424 342.395 321.429 342.394 322.416 342.243C322.891 342.159 323.359 342.04 323.817 341.887C325.337 341.333 326.762 340.545 328.04 339.552C327.593 339.237 327.117 338.966 326.619 338.741Z" fill="white" stroke="#FDDCD8" stroke-width="2" stroke-miterlimit="10"/>
<path d="M241.478 295.799C241.491 295.167 241.504 294.535 241.548 293.881L241.557 293.643C241.625 291.894 241.713 290.143 241.821 288.39L241.849 287.837C241.897 287.102 241.958 286.354 242.044 285.608C242.141 284.708 242.3 283.816 242.52 282.939C241.994 283.09 241.477 283.259 240.975 283.449C237.431 284.723 234.27 286.798 232.259 289.944C231.509 291.148 230.921 292.446 230.512 293.804C230.508 294.102 230.479 294.426 230.478 294.706C230.402 296.225 230.214 297.761 230.057 299.263C229.86 300.801 229.749 302.348 229.723 303.897C229.721 304.267 229.736 304.639 229.774 305.016C229.782 305.244 229.798 305.47 229.826 305.683L229.839 305.926C231.029 305.626 232.253 305.483 233.48 305.501C236.81 302.877 239.538 299.569 241.478 295.799Z" fill="white" stroke="#FDDCD8" stroke-width="2" stroke-miterlimit="10"/>
<path d="M241.48 307.137L241.472 307.044C241.435 305.594 241.409 304.149 241.403 302.702C241.39 300.4 241.416 298.099 241.479 295.799C241.156 296.415 240.835 297.025 240.459 297.607C240.29 297.927 240.074 298.229 239.871 298.531C238.884 300.021 237.765 301.419 236.526 302.707C236.157 303.094 235.783 303.466 235.393 303.83C234.767 304.414 234.116 304.973 233.443 305.5C235.464 305.536 237.466 305.909 239.364 306.606C240.014 306.84 240.654 307.106 241.277 307.401C241.343 307.436 241.413 307.472 241.478 307.507L241.48 307.137Z" fill="white" stroke="#FDDCD8" stroke-width="2" stroke-miterlimit="10"/>
<path d="M259.793 299.151L260.073 297.05C260.213 295.818 260.429 294.596 260.719 293.391C260.305 293.729 259.896 294.057 259.475 294.385C258.904 294.826 258.334 295.254 257.749 295.675C257.164 296.096 256.433 296.6 255.754 297.041C254.906 297.601 254.042 298.134 253.162 298.643C254.289 301.19 255.133 303.959 256.926 305.98C257.218 306.316 257.538 306.627 257.881 306.91C257.956 306.949 258.015 307.019 258.09 307.071C258.33 307.259 258.579 307.433 258.838 307.592C258.969 307.66 259.104 307.732 259.234 307.8C259.182 304.907 259.369 302.014 259.793 299.151Z" fill="white" stroke="#FDDCD8" stroke-width="2" stroke-miterlimit="10"/>
<path d="M267.823 295.929C267.895 293.944 268.133 291.968 268.532 290.022L268.095 290.719L267.257 292.035L267.238 292.07C266.557 293.163 265.796 294.204 264.962 295.186C264.146 296.109 263.233 296.942 262.239 297.67C261.969 297.867 261.71 298.031 261.418 298.235C260.898 298.575 260.361 298.888 259.808 299.171C259.389 302.037 259.207 304.932 259.264 307.828C260.189 308.316 261.148 308.737 262.134 309.087C263.387 309.517 264.601 310.054 265.761 310.693C265.821 310.725 265.876 310.754 265.937 310.785C265.997 310.817 266.197 310.922 266.309 311.025C266.701 311.29 267.076 311.58 267.429 311.895C267.663 312.095 267.891 312.304 268.112 312.529C267.625 307.009 267.529 301.462 267.823 295.929Z" fill="white" stroke="#FDDCD8" stroke-width="2" stroke-miterlimit="10"/>
<path d="M287.098 328.703C286.436 325.026 285.439 321.417 284.121 317.921L284.086 317.807C282.715 314.059 281.118 310.377 279.551 306.685L279.232 305.943L278.682 304.619C278.319 303.79 277.978 302.933 277.641 302.092C277.39 301.474 277.15 300.837 276.935 300.188C276.282 298.247 275.835 296.205 276.141 294.322C275.702 295.011 275.246 295.685 274.762 296.338L274.419 296.796L274.045 297.276C272.927 298.677 271.699 299.986 270.372 301.191C269.781 301.732 269.177 302.238 268.558 302.71C268.26 302.949 267.954 303.178 267.647 303.399C267.677 306.469 267.824 309.527 268.088 312.574C269.962 314.453 271.322 316.899 272.545 319.298C273.056 319.567 273.553 319.86 274.037 320.178C275.441 321.082 276.725 322.16 277.857 323.387C280.069 325.827 281.724 328.779 283.873 331.23C284.253 331.66 284.647 332.078 285.051 332.488C285.506 332.922 285.99 333.324 286.501 333.691C286.676 333.783 286.833 333.923 287.005 334.033L287.155 334.112C287.484 332.322 287.465 330.485 287.098 328.703Z" fill="white" stroke="#FDDCD8" stroke-width="2" stroke-miterlimit="10"/>
<path d="M268.087 290.735L268.524 290.038C268.802 288.782 269.229 287.563 269.794 286.407C269.951 286.106 270.109 285.806 270.27 285.501C270.07 285.504 269.865 285.518 269.662 285.539L269.277 285.579C269.097 285.606 268.916 285.633 268.731 285.669C268.546 285.706 268.373 285.743 268.195 285.79C267.79 285.897 267.392 286.029 267.003 286.186C264.432 287.22 262.373 289.228 261.275 291.773C261.059 292.305 260.879 292.85 260.737 293.406C260.66 293.698 260.599 293.973 260.526 294.292C260.384 294.965 260.279 295.651 260.177 296.331L260.076 297.058L259.995 297.699L259.796 299.159C260.645 298.724 261.457 298.222 262.226 297.658C263.221 296.93 264.134 296.097 264.95 295.174C266.11 293.778 267.159 292.294 268.087 290.735Z" fill="white" stroke="#FDDCD8" stroke-width="2" stroke-miterlimit="10"/>
<path d="M290.966 284.515C289.933 284.221 288.899 283.927 287.869 283.615C286.838 283.303 285.707 282.952 284.652 282.564C283.887 282.283 283.124 281.971 282.346 281.69C280.736 281.001 278.997 280.667 277.246 280.709C275.944 280.824 274.692 281.264 273.604 281.989C272.247 282.888 271.11 284.08 270.276 285.477C270.115 285.783 269.957 286.083 269.799 286.383C269.234 287.539 268.808 288.758 268.53 290.015C268.333 290.909 268.182 291.813 268.078 292.722L267.974 293.734C267.912 294.411 267.865 295.095 267.829 295.772L267.821 295.921L267.741 297.629C267.706 298.506 267.674 299.377 267.645 300.243C267.629 301.282 267.621 302.319 267.63 303.358C271.008 300.906 273.887 297.832 276.114 294.301C276.162 293.998 276.229 293.699 276.317 293.405C276.453 292.914 276.649 292.442 276.902 292C277.974 290.143 279.934 289.001 281.872 288.097C282.899 287.614 283.957 287.181 285.03 286.793C287.438 285.916 289.933 285.3 292.472 284.955C291.99 284.816 291.482 284.664 290.966 284.515Z" fill="white" stroke="#FDDCD8" stroke-width="2" stroke-miterlimit="10"/>
<path d="M332.761 333.667C332.822 333.284 332.878 332.898 332.916 332.509C333.03 331.392 333.068 330.268 333.03 329.145C332.868 325.547 332.106 322.001 330.776 318.654C329.5 315.357 327.798 312.242 325.713 309.388C323.547 307.943 321.098 306.963 319.674 304.739C319.416 304.341 319.171 303.944 318.934 303.558C317.35 300.969 316.129 298.685 313.153 296.981C311.376 295.964 309.401 295.322 307.649 294.255C305.233 292.774 303.326 290.52 301.011 288.849C298.456 287.002 295.521 285.926 292.484 285.007C290.977 285.211 289.485 285.513 288.017 285.911C285.911 286.48 283.858 287.231 281.881 288.154C281.646 288.26 281.414 288.375 281.181 288.489C280.296 288.92 279.458 289.443 278.681 290.049C277.97 290.602 277.37 291.283 276.911 292.057C276.811 292.247 276.711 292.438 276.613 292.623C276.326 293.276 276.142 293.971 276.068 294.681C275.946 296.568 276.231 298.46 276.902 300.229C277.117 300.878 277.357 301.515 277.607 302.132C277.955 302.954 278.291 303.821 278.649 304.66L279.199 305.984C279.231 305.534 279.295 305.095 279.365 304.659C279.662 302.819 280.364 301.067 281.421 299.531C282.467 298.121 283.698 296.858 285.081 295.776C286.007 294.968 287.02 294.264 288.1 293.677C288.495 293.475 288.905 293.304 289.327 293.166C290.545 292.782 291.83 292.661 293.098 292.809C294.12 292.916 295.124 293.154 296.085 293.517C298.216 294.392 300.201 295.588 301.97 297.063C313.562 306.189 321.364 319.285 323.871 333.823C324.139 335.166 324.226 336.54 324.127 337.906C325.485 338.253 326.777 338.821 327.95 339.589L328.659 339.055L329.759 338.176C330.33 337.723 330.894 337.233 331.465 336.729C331.71 336.506 331.955 336.271 332.187 336.035C332.422 335.257 332.613 334.466 332.761 333.667Z" fill="white" stroke="#FDDCD8" stroke-width="2" stroke-miterlimit="10"/>
<path d="M297.211 317.302C297.174 317.25 297.135 317.204 297.095 317.158C295.03 314.596 292.615 312.338 289.922 310.449C289.263 309.988 288.592 309.552 287.902 309.139C286.951 308.562 285.958 308.059 284.93 307.634C284.488 307.452 284.036 307.293 283.577 307.159C282.269 306.786 280.91 306.626 279.552 306.686L279.584 306.76C279.69 307.007 279.796 307.255 279.895 307.505C280.129 308.043 280.361 308.587 280.58 309.142C281.232 310.673 281.869 312.207 282.493 313.744C283.054 315.106 283.578 316.454 284.079 317.823L290.644 317.485C292.016 317.361 293.397 317.386 294.763 317.561C294.896 317.586 295.038 317.609 295.169 317.64C295.299 317.67 295.451 317.698 295.587 317.732C296.349 317.929 297.094 318.184 297.817 318.495C297.967 318.574 298.117 318.653 298.286 318.697C297.957 318.204 297.59 317.737 297.211 317.302Z" fill="white" stroke="#FDDCD8" stroke-width="2" stroke-miterlimit="10"/>
<path d="M324.255 336.919C324.248 335.878 324.153 334.841 323.969 333.817C323.381 330.339 322.477 326.921 321.267 323.608C317.468 313.141 310.818 303.944 302.068 297.057C300.299 295.582 298.315 294.386 296.184 293.511C294.037 292.632 291.656 292.507 289.428 293.154C289.007 293.293 288.596 293.464 288.201 293.666C287.659 293.944 287.137 294.261 286.642 294.616C286.123 294.982 285.615 295.354 285.162 295.754C284.575 296.238 284.004 296.742 283.452 297.27C282.904 297.799 282.393 298.365 281.923 298.964C281.785 299.141 281.642 299.327 281.512 299.515C280.902 300.377 280.409 301.316 280.044 302.307C279.77 303.06 279.561 303.835 279.421 304.624C280.518 304.568 281.608 304.414 282.677 304.164C284.037 303.863 285.384 303.511 286.735 303.103L286.965 302.764C287.943 301.502 289.297 300.585 290.832 300.146C291.3 300.013 291.778 299.916 292.262 299.856C294.326 299.641 296.411 299.969 298.31 300.805C299.425 301.267 300.484 301.855 301.464 302.559C304.196 304.494 306.283 307.206 307.453 310.343C308.781 311.268 309.962 312.389 310.957 313.667C311.132 313.893 311.301 314.129 311.461 314.372C312.921 316.577 313.65 319.177 314.228 321.761C314.371 322.411 314.507 323.076 314.62 323.749C315.125 326.665 315.271 329.706 314.376 332.404C315.429 333.799 316.747 334.971 318.255 335.854C318.415 335.938 318.58 336.025 318.755 336.117C319.076 336.285 319.414 336.419 319.753 336.552C321.211 337.107 322.772 337.455 324.274 337.893C324.24 337.568 324.251 337.242 324.255 336.919Z" fill="white" stroke="#FDDCD8" stroke-width="2" stroke-miterlimit="10"/>
<path d="M285.361 306.13C285.676 305.074 286.126 304.063 286.699 303.122C286.084 303.297 285.458 303.466 284.838 303.626C284.217 303.785 283.371 303.986 282.644 304.153C282.299 304.227 281.933 304.29 281.595 304.362C281.258 304.434 280.857 304.479 280.489 304.522C280.122 304.565 279.755 304.595 279.401 304.588C279.331 305.024 279.267 305.463 279.235 305.913L279.554 306.655C279.789 306.645 280.032 306.645 280.267 306.647C281.389 306.653 282.505 306.81 283.586 307.114C283.825 307.182 284.058 307.26 284.292 307.338C284.372 307.38 284.457 307.425 284.537 307.467C284.617 307.509 284.796 307.558 284.926 307.614C285.053 307.118 285.202 306.615 285.361 306.13Z" fill="white" stroke="#FDDCD8" stroke-width="2" stroke-miterlimit="10"/>
<path d="M307.149 309.73C306.789 308.87 306.356 308.043 305.856 307.256C305.064 305.999 304.109 304.853 303.016 303.847C301.616 302.553 299.998 301.517 298.237 300.786C296.338 299.95 294.253 299.622 292.189 299.837C290.541 300.037 288.994 300.734 287.753 301.836C287.503 302.067 287.271 302.317 287.06 302.584L286.917 302.758L286.688 303.097C286.617 303.232 286.548 303.362 286.477 303.498C286.077 304.216 285.75 304.973 285.501 305.757L285.375 306.118C285.216 306.603 285.066 307.106 284.942 307.622C285.97 308.047 286.963 308.55 287.914 309.126C288.604 309.54 289.275 309.976 289.933 310.437C290.676 309.42 291.624 308.571 292.716 307.945C293.808 307.318 295.02 306.928 296.272 306.799C297.365 306.68 298.469 306.714 299.553 306.901C301.575 307.27 303.518 307.982 305.3 309.007C306.026 309.41 306.729 309.854 307.405 310.337C307.315 310.143 307.233 309.934 307.149 309.73Z" fill="white" stroke="#FDDCD8" stroke-width="2" stroke-miterlimit="10"/>
<path d="M255.418 347.55C253.075 343.866 250.518 340.323 247.759 336.939C247.421 336.525 247.088 336.114 246.752 335.707C243.937 332.312 241.017 328.995 238.375 325.479C237.488 324.298 236.632 323.094 235.813 321.846C232.677 317.043 230.256 311.599 229.792 305.907C229.734 305.238 229.692 304.577 229.704 303.874C229.709 300.497 230.442 297.146 230.492 293.78C230.494 293.356 230.49 292.913 230.481 292.452C230.417 290.926 230.114 289.42 229.583 287.988C229.21 286.994 228.691 286.061 228.04 285.223C227.793 284.906 227.523 284.608 227.231 284.331C225.286 285.794 223.619 287.594 222.31 289.647C221.862 290.366 221.467 291.117 221.129 291.894C220.669 292.925 220.318 294.001 220.081 295.105C219.269 298.626 219.739 302.32 221.408 305.525C222.19 306.889 223.109 308.17 224.15 309.349C225.416 310.753 226.587 312.239 227.657 313.798C229.763 317.083 230.631 320.95 232.272 324.463C237.326 335.289 248.853 341.628 257.058 350.226C256.538 349.333 255.974 348.436 255.418 347.55Z" fill="white" stroke="#FDDCD8" stroke-width="2" stroke-miterlimit="10"/>
<path d="M209.398 353.074L208.821 349.724L209.89 350.535C210.475 350.976 211.061 351.418 211.639 351.862C211.808 351.99 211.987 352.122 212.154 352.255C211.52 348.457 211.369 344.594 211.706 340.758C212.129 335.766 213.4 330.882 215.463 326.316C216.787 323.422 218.446 320.64 220.005 317.844C221.612 315.136 222.99 312.298 224.125 309.361C223.138 308.237 222.257 307.024 221.495 305.737C221.458 305.673 221.416 305.606 221.382 305.537C219.714 302.333 219.243 298.638 220.055 295.118C219.352 295.786 218.717 296.522 218.159 297.315L218.019 297.51L217.701 297.981C217.197 298.732 216.719 299.509 216.233 300.276C215.336 301.802 214.221 303.19 212.925 304.395C212.516 304.744 212.081 305.062 211.626 305.347C208.469 307.355 204.445 307.865 200.756 308.929C198.41 309.612 196.21 310.506 194.456 312.165C189.923 316.452 190.443 323.777 192.13 329.78C193.739 335.506 196.656 341.561 201.975 343.973C202.29 344.139 202.632 344.254 202.976 344.378C203.381 344.476 203.756 344.673 204.067 344.951C204.799 345.77 204.048 347.005 203.713 348.055C203.403 349.068 203.477 350.16 203.922 351.122C204.298 351.956 204.82 352.717 205.462 353.369C206.057 353.99 206.722 354.539 207.445 355.005C207.854 355.271 208.277 355.525 208.704 355.781C209.131 356.038 209.581 356.3 210.018 356.562L209.398 353.074Z" fill="white" stroke="#FDDCD8" stroke-width="2" stroke-miterlimit="10"/>
<path d="M304.336 378.394C304.457 376.576 304.421 374.75 304.226 372.939C304.017 370.963 303.511 369.03 302.724 367.205C300.428 362.032 295.757 358.389 292.039 354.123C291.691 353.729 291.35 353.32 291.022 352.911C287.214 348.233 284.195 342.808 280.249 338.345C278.991 336.898 277.6 335.572 276.095 334.386C275.848 334.199 275.597 334.009 275.342 333.824C271.845 331.303 267.731 329.76 264.134 327.378C260.001 324.644 256.677 320.904 253.289 317.265C249.9 313.625 246.361 310.04 241.968 307.738C241.808 307.654 241.648 307.57 241.468 307.475C240.717 307.109 239.945 306.788 239.155 306.516C237.314 305.863 235.38 305.513 233.427 305.479C232.359 305.467 231.293 305.575 230.249 305.802C230.097 305.837 229.942 305.864 229.787 305.904C229.866 306.83 229.996 307.751 230.176 308.663C230.874 312.076 232.09 315.362 233.78 318.408C234.434 319.595 235.114 320.731 235.816 321.828C239.255 327.11 243.559 331.768 247.537 336.656L247.747 336.913C251.178 341.103 254.285 345.548 257.041 350.21C258.416 352.556 259.669 354.971 260.794 357.446C263.275 362.813 264.939 368.521 265.73 374.381L265.763 374.756C268.72 376.134 271.575 377.718 274.31 379.496C274.965 379.199 275.654 378.982 276.361 378.85C277.854 378.585 279.37 378.474 280.885 378.519C282.031 378.527 283.174 378.527 284.322 378.53C286.611 378.539 288.91 378.54 291.202 378.53C293.175 378.52 295.151 378.494 297.132 378.453C298.061 378.443 298.993 378.432 299.927 378.421C301.35 378.594 302.781 378.765 304.209 378.927L304.3 378.937L304.336 378.394Z" fill="white" stroke="#FDDCD8" stroke-width="2" stroke-miterlimit="10"/>
<path d="M339.871 366.3C339.727 366.225 339.582 366.161 339.435 366.109C338.179 365.67 336.897 365.308 335.597 365.025C334.572 364.8 333.542 364.584 332.506 364.391C328.959 363.702 325.443 362.991 322.529 361.025C322.283 360.896 322.057 360.707 321.845 360.538C319.853 359.006 318.363 356.907 316.43 355.297C310.55 350.406 301.369 350.627 296.123 345.065C295.882 344.805 295.645 344.54 295.418 344.267C294.81 343.488 294.14 342.76 293.413 342.089C293.137 341.852 292.843 341.634 292.536 341.437C291.051 340.567 289.432 339.952 287.745 339.615C285.826 339.152 283.884 338.79 281.927 338.531C281.334 338.443 280.789 338.387 280.224 338.332C281.341 339.597 282.389 340.946 283.4 342.327C284.658 344.055 285.866 345.839 287.09 347.607L288.108 349.061C289.035 350.372 289.987 351.659 290.997 352.898C291.325 353.307 291.666 353.716 292.014 354.11C292.973 355.253 294.049 356.316 295.072 357.372C298.016 360.388 301.005 363.377 302.689 367.187C302.814 367.47 302.925 367.758 303.035 368.047C304.277 371.312 304.507 374.824 304.301 378.376L304.253 378.99C309.547 379.596 314.852 380.125 320.168 380.576C320.261 380.472 320.362 380.378 320.46 380.276C320.558 380.174 320.68 380.04 320.796 379.929C321.033 379.696 321.265 379.473 321.512 379.258C322.649 378.273 323.866 377.385 325.15 376.602L325.946 376.108L327.485 375.185L335.518 370.426C337.307 369.367 339.154 368.248 340.506 366.66C340.303 366.525 340.091 366.404 339.871 366.3Z" fill="white" stroke="#FDDCD8" stroke-width="2" stroke-miterlimit="10"/>
<path d="M325.202 381.159C323.492 381.033 321.79 380.892 320.083 380.749C316.981 380.486 313.881 380.194 310.784 379.873C308.584 379.65 306.381 379.414 304.174 379.165C302.715 378.999 301.257 378.82 299.799 378.642C293.457 378.741 287.114 378.765 280.77 378.715C279.038 378.654 277.306 378.817 275.616 379.2C275.445 379.244 275.28 379.291 275.117 379.346C274.802 379.444 274.493 379.561 274.192 379.697C274.606 379.966 275.021 380.235 275.433 380.509C281.158 384.284 286.622 388.631 292.338 392.51C293.81 393.514 295.3 394.482 296.817 395.401C297.122 395.561 297.406 395.762 297.704 395.937C297.889 396.034 298.079 396.134 298.246 396.267C298.356 396.325 298.466 396.382 298.571 396.438C299.316 396.82 300.08 397.163 300.86 397.468C300.08 397.163 299.316 396.82 298.571 396.438C300.532 397.568 302.553 398.592 304.625 399.504C307.082 400.578 309.693 401.529 312.182 402.626C312.789 401.576 313.485 400.581 314.263 399.651C314.028 399.824 313.782 399.983 313.528 400.127C313.782 399.983 314.028 399.824 314.263 399.651C314.52 399.332 314.787 399.019 315.046 398.708C316.075 397.48 317.114 396.269 318.165 395.058C319.217 393.848 320.337 392.591 321.437 391.374C323.194 389.423 324.981 387.498 326.797 385.599L327.259 385.12C327.745 384.609 328.238 384.096 328.734 383.59L328.874 383.446C329.522 382.784 330.2 382.137 330.855 381.498C328.95 381.429 327.068 381.303 325.202 381.159ZM307.334 400.014C307.334 400.014 307.288 399.991 307.268 399.98C307.248 399.969 307.314 400.004 307.334 400.014Z" fill="white" stroke="#FDDCD8" stroke-width="2" stroke-miterlimit="10"/>
</svg>
