<svg width="481" height="500" viewBox="0 0 481 500" fill="none" xmlns="http://www.w3.org/2000/svg">
<path d="M304.263 291.657C311.322 286.625 317.38 280.341 323.843 274.554C326.783 271.932 329.809 269.409 332.894 266.959C332.556 267.456 332.232 267.966 331.881 268.449C359.234 259.861 379.012 267.178 400.644 269.33C401.836 269.462 403.001 269.555 404.186 269.641C403.636 269.833 403.12 270.058 402.584 270.264C395.73 273.002 389.19 276.47 383.077 280.606C381.124 281.911 379.25 283.228 377.482 284.519C368.51 291.068 361.889 297.067 357.625 298.431C352.52 300.066 347.289 302.543 341.899 304.264C329.716 308.157 321.353 305.807 311.514 301.424L309.885 300.695C307.243 299.483 304.475 298.159 301.476 296.762C316.661 290.506 332.567 286.166 348.825 283.844C332.567 286.166 316.661 290.506 301.476 296.762L300.171 296.16C298.702 296.226 297.205 296.257 295.682 296.252C296.331 296.04 296.973 295.809 297.609 295.531C299.96 294.482 302.191 293.184 304.263 291.657Z" fill="white" stroke="#FDDCD8" stroke-width="2" stroke-miterlimit="10"/>
<path d="M276.018 224.172C277.905 223.609 279.752 223.006 281.619 222.41C284.413 221.51 287.201 220.563 289.916 219.411C289.71 219.696 289.505 220.007 289.3 220.305C283.01 229.72 278.15 245.228 270.773 260.841C266.443 270.005 261.245 279.202 254.379 287.22C254.074 287.525 253.77 287.829 253.518 288.187C245.431 297.55 234.917 304.5 223.133 308.269C219.2 309.519 215.132 310.296 211.016 310.587C209.175 312.322 207.286 314.087 205.348 315.884C201.905 319.062 198.548 322.141 195.37 325.028C201.933 320.495 208.746 316.335 215.777 312.567C226.761 306.662 238.253 301.756 250.115 297.907C257.781 295.456 265.588 293.472 273.495 291.968C277.294 281.319 282.832 271.374 289.883 262.536C296.13 254.553 303.982 247.969 312.931 243.208C315.827 241.722 318.841 240.48 321.943 239.494C322.012 239.468 322.083 239.445 322.155 239.427C322.645 239.268 323.148 239.096 323.592 238.984C324.459 238.725 325.294 238.5 326.088 238.302C326.234 238.262 326.366 238.236 326.505 238.202C337.384 235.534 342.436 237.421 353.957 234.057C352.706 235.6 351.441 237.355 350.163 239.255C347.707 242.904 345.204 247.115 342.569 251.525C339.523 256.636 336.311 261.966 332.862 266.979C329.776 269.429 326.75 271.951 323.81 274.573C317.348 280.36 311.289 286.644 304.231 291.676C302.15 293.216 299.907 294.526 297.544 295.583C296.914 295.854 296.272 296.086 295.617 296.305C295.372 296.298 295.133 296.311 294.882 296.311C289.929 296.232 285.261 295.96 281.023 295.854C276.786 295.748 272.985 295.762 269.807 296C268.953 296.06 268.125 296.133 267.363 296.205C262 297.463 256.531 298.947 251.015 300.728C246.619 302.145 242.335 303.674 238.203 305.29C239.77 305.215 241.341 305.275 242.898 305.469C243.707 304.4 244.829 303.61 246.109 303.211C263.166 297.755 280.123 303.138 291.955 309.501C301.238 314.494 307.35 320.102 307.82 321.552C307.932 321.916 307.873 322.201 308.085 322.85C308.647 324.631 311.15 327.531 314.832 330.828C322.625 337.827 335.689 346.6 346.833 350.262L347.23 350.394C344.016 352.231 340.609 353.71 337.073 354.804L336.609 354.95C333.605 355.862 330.552 356.607 327.465 357.181C325.042 357.645 322.493 358.049 319.871 358.38C317.54 358.698 315.203 358.916 312.819 359.101C309.634 359.346 306.403 359.492 303.198 359.532C284.771 359.75 267.118 356.387 264.311 347.594C264.311 347.594 252.969 340.145 245.99 328.332C245.005 326.646 244.138 324.893 243.394 323.088C242.97 322.082 242.586 321.062 242.255 320.016C241.052 316.464 240.752 312.668 241.381 308.971C242.436 308.849 243.498 308.796 244.56 308.812C250.153 309.024 255.625 310.509 260.557 313.156C266.5 316.176 271.812 320.302 276.21 325.313C271.812 320.302 266.5 316.176 260.557 313.156C255.625 310.509 250.153 309.024 244.56 308.812C243.498 308.796 242.436 308.849 241.381 308.971C241.479 308.533 241.598 308.1 241.739 307.673C241.799 307.614 241.792 307.501 241.825 307.415C240.017 307.211 238.192 307.203 236.382 307.389C234.245 307.601 232.13 307.993 230.059 308.561C225.45 310.521 221.083 312.567 216.955 314.699C208.774 318.811 200.841 323.401 193.198 328.445C190.675 330.861 187.676 333.821 184.484 337.158C183.908 337.734 183.358 338.39 182.71 339.012L182.538 339.184C182.405 339.317 182.266 339.456 182.134 339.588C179.912 342.159 177.348 344.411 174.512 346.283C173.383 346.948 172.19 347.498 170.95 347.925C170.21 348.581 169.407 349.162 168.553 349.659C165.534 351.354 162.707 351.957 161.899 351.719C161.696 351.791 161.484 351.833 161.27 351.845C161.161 351.85 161.052 351.844 160.945 351.825C160.821 351.811 160.7 351.775 160.588 351.719C160.553 351.692 160.522 351.661 160.495 351.626C160.123 351.726 159.741 351.788 159.356 351.811C159.229 351.851 159.098 351.875 158.966 351.884L154.821 352.374L158.436 350.242C158.178 349.693 158.985 348.779 160.316 348.362C160.908 348.183 161.541 348.187 162.13 348.375C162.687 348.137 163.495 347.832 164.468 347.441C164.72 347.335 164.958 347.203 165.203 347.077C165.66 346.845 166.103 346.653 166.547 346.435C168.05 345.289 169.493 344.296 170.685 343.541C170.729 343.505 170.768 343.465 170.805 343.422C172.46 342.244 174.433 340.88 176.525 339.357C177.386 338.734 178.227 338.132 179.041 337.569C180.094 336.635 181.041 335.768 181.869 335.033C182.094 334.808 182.319 334.583 182.571 334.411C182.571 334.411 182.571 334.41 182.61 334.371C188.464 328.756 195.893 321.777 204.03 314.275C205.328 313.07 206.613 311.891 207.884 310.726L207.593 310.739C207.672 310.289 207.778 309.799 207.877 309.316C224.458 298.981 238.966 285.645 250.658 269.991C238.966 285.645 224.458 298.981 207.877 309.316C210.347 297.218 218.783 277.937 231.41 260.543C243.023 244.307 258.444 229.76 276.018 224.172ZM344.813 350.56C344.111 350.745 343.396 350.904 342.661 351.057C343.39 350.871 344.131 350.712 344.846 350.527L344.813 350.56Z" fill="white" stroke="#FDDCD8" stroke-width="2" stroke-miterlimit="10"/>
<path d="M277.707 213.877C269.181 216.014 260.802 218.425 253.456 220.826C240.97 224.921 231.372 229.054 228.75 232.008C232.998 230.031 239.47 228.131 246.255 226.31C249.594 225.392 253.048 224.53 256.322 223.67C262.048 222.167 270.148 220.165 277.604 218.149C280.37 217.401 283.038 216.653 285.468 215.932C289.35 214.689 293.115 213.11 296.722 211.213C296.739 211.16 296.744 211.104 296.737 211.049C296.369 209.428 291.547 210.623 285.726 211.95C283.054 212.564 280.381 213.206 277.707 213.877Z" fill="white" stroke="#FDDCD8" stroke-width="2" stroke-miterlimit="10"/>
<path d="M280.278 236.914C280.015 236.047 262.097 240.21 243.58 244.802C237.875 246.211 232.128 247.652 226.82 249.004C214.152 252.214 204.007 254.859 203.222 255.113C202.06 255.469 200.788 255.871 199.491 256.281C199.931 255.957 200.367 255.645 200.803 255.317C217.049 243.206 231.09 229.639 243.265 216.176C250.35 216.121 265.522 209.612 280.261 202.078C282.33 201.02 284.396 199.942 286.429 198.855C299.524 191.87 309.365 185.327 312.237 182.723C312.867 182.146 313.179 181.762 313.092 181.603C312.9 181.235 302.863 184.572 282.453 195.435C277.678 197.983 272.841 200.635 267.956 203.295C265.96 204.377 263.956 205.459 261.956 206.528C257.604 208.851 253.248 211.112 248.891 213.217C247.788 213.761 246.714 214.276 245.636 214.787C244.99 215.089 244.386 215.332 243.785 215.547C246.44 212.601 249.017 209.659 251.496 206.743C254.976 202.642 258.287 198.575 261.426 194.541C261.749 194.427 262.068 194.301 262.383 194.195C265.32 193.215 268.312 192.112 271.341 190.922C283.28 186.208 295.853 180.02 308.066 173.503C310.707 172.095 313.017 170.833 315.042 169.706C323.579 164.939 326.781 162.595 326.488 161.941C325.746 160.27 301.995 169.749 286.027 178.263C284.896 178.869 283.806 179.466 282.737 180.059C278.174 182.589 274.197 185.011 270.854 187.16C269.663 187.926 268.55 188.679 267.506 189.354C265.782 190.515 264.299 191.555 263.068 192.445C268.698 185.215 273.825 178.224 278.484 171.628C282.326 169.708 286.344 167.651 290.357 165.573C297.027 162.088 303.759 158.54 309.831 155.126C320.744 149.031 329.659 143.514 332.878 140.267C332.963 140.18 333.008 140.134 332.978 140.081C332.787 139.746 327.973 141.745 325.098 143.143C319.589 145.867 309.947 150.956 300.68 156.219C292.617 160.801 284.858 165.495 280.41 168.844C282.304 166.085 284.149 163.442 285.905 160.865C287.58 158.384 289.186 155.988 290.723 153.676C298.953 150.257 307.473 146.221 315.667 141.994C325.636 136.853 334.397 131.808 341.594 127.214C348.939 122.537 354.638 118.334 358.311 115.004C361.882 111.754 363.545 109.321 362.905 108.076C362.028 106.402 355.887 109.555 352.401 111.328C347.258 113.98 342.262 116.91 337.436 120.103C335.647 121.28 333.941 122.445 332.316 123.598C327.683 126.872 323.589 130.008 319.679 132.918C310.818 139.464 303.216 145.556 290.945 153.3C297.654 143.147 303.026 134.706 306.921 128.465C309.342 124.606 311.18 121.581 312.428 119.538C313.676 117.495 314.264 116.366 314.186 116.313C314.108 116.26 313.35 117.273 311.974 119.239C310.598 121.205 308.628 124.149 306.059 127.911C302.786 132.772 298.592 139.052 293.542 146.469C293.951 142.578 294.524 138.432 295.261 134.029C296.294 127.874 297.633 121.239 299.216 114.257C301.637 103.571 304.624 92.0505 307.984 80.0506C308.544 78.0554 308.659 76.3885 308.297 76.2935C308.112 76.2338 307.461 76.8636 306.226 79.3576C304.93 81.963 302.988 86.6095 300.247 94.6812C294.409 111.825 291.665 126.088 291.204 135.787C290.931 141.509 291.458 145.635 292.62 147.807C290.063 151.546 287.296 155.548 284.32 159.813C281.835 163.357 279.191 167.079 276.393 170.926C277.721 165.637 279.273 160.243 280.826 154.443C282.169 149.437 283.493 144.128 284.652 138.332C287.085 126.12 288.297 113.697 288.272 101.245C288.279 97.2287 287.705 95.95 286.946 95.9696C285.797 95.9642 284.779 97.1842 283.86 99.3224C281.897 103.899 280.406 112.726 279.104 123.283C278.899 124.967 278.711 126.663 278.542 128.372C277.113 142.413 276.719 157.396 275.705 171.917C271.542 177.627 267.041 183.623 262.194 189.832C262.63 184.416 263.023 178.713 263.374 172.978C263.928 164.386 264.342 155.77 264.5 147.879C264.807 133.697 264.41 121.782 262.733 116.715C262.691 116.584 262.637 116.515 262.583 116.511C262.042 116.492 261.064 122.335 260.758 125.937C260.167 132.851 259.539 145.231 259.384 157.319C259.176 172.444 259.731 187.131 262.007 190.071C258.124 194.991 254.008 200.031 249.655 205.148C248.867 206.058 248.064 206.977 247.26 207.895C247.523 206.203 247.79 204.042 247.897 202.392C248.34 196.422 248.841 185.738 249.02 175.315C249.253 161.913 248.944 148.939 247.305 146.973C246.969 151.789 246.633 156.879 246.39 161.99C245.993 169.354 245.687 176.791 245.51 183.599C245.251 194.724 245.387 204.213 246.25 209.091C240.032 216.133 233.339 223.246 226.07 230.257C226.538 227.129 227.015 223.942 227.501 220.696C229.397 207.927 231.314 194.283 232.367 180.467C232.835 174.424 233.392 164.03 233.07 159.975C232.99 158.93 232.853 158.291 232.639 158.277C231.567 158.193 229.569 170.172 227.905 183.16C227.374 187.313 226.877 191.565 226.46 195.561C226.085 199.257 225.757 202.673 225.531 205.621C225.203 209.924 224.997 214.119 225.023 218.127C225.043 222.431 225.013 227.001 225.054 231.227C218.435 237.551 211.372 243.748 203.818 249.651C204.582 247.653 205.31 245.644 206.013 243.676C207.115 240.531 208.242 236.922 209.317 233.101C211.162 226.564 212.923 219.326 214.44 212.361C218.109 195.366 220.33 180.061 218.616 180.55C218.01 180.72 216.911 182.868 215.224 187.594L214.937 188.409C208.176 207.785 208.29 226.476 204.822 243.946C204.431 246.001 204.091 247.757 203.537 249.871C202.115 250.972 200.69 252.068 199.236 253.153C179.368 267.929 158.82 279.793 140.407 290.941C134.396 294.532 128.574 297.959 122.941 301.221C123.259 301.817 123.572 302.409 123.865 303.005C129.581 299.802 135.481 296.436 141.566 292.907C159.676 282.226 179.793 270.792 199.402 256.38C207.105 254.444 216.095 254.567 228.911 252.73C237.914 251.428 246.803 249.438 255.501 246.776C255.837 246.675 256.361 246.514 257.019 246.306C262.983 244.395 280.761 238.501 280.278 236.914Z" fill="white" stroke="#FDDCD8" stroke-width="2" stroke-miterlimit="10"/>
<path d="M323.064 72.7621C319.45 81.3264 316.168 89.9161 313.534 97.6709C309.065 110.818 306.464 121.555 307.303 125.646C308.328 120.807 310.832 114.128 313.605 107.242C314.976 103.832 316.411 100.372 317.77 97.056C320.144 91.2566 323.586 83.1412 326.636 75.5916C327.766 72.7827 328.827 70.0442 329.759 67.5367C331.178 63.47 332.236 59.2863 332.922 55.0341C332.89 54.9822 332.846 54.9389 332.793 54.9081C331.182 54.1891 329.128 59.0254 326.553 64.7816C325.348 67.4107 324.188 70.0846 323.064 72.7621Z" fill="white" stroke="#FDDCD8" stroke-width="2" stroke-miterlimit="10"/>
<path d="M337.782 68.9048C330.32 81.8138 323.073 94.9833 317.132 107.394C315.624 110.538 314.197 113.633 312.897 116.682C312.379 117.864 311.8 119.101 311.151 120.301C311.819 119.42 314.218 116.222 317.721 111.027C318.461 109.925 319.262 108.719 320.095 107.447C322.428 103.876 325.091 99.6452 327.946 94.83C328.62 93.7035 329.294 92.5523 329.989 91.3559C339.723 74.507 351.639 49.8338 350.428 49.2875C349.954 49.0745 347.489 52.5321 342.106 61.5646C340.826 63.6734 339.397 66.1159 337.782 68.9048Z" fill="white" stroke="#FDDCD8" stroke-width="2" stroke-miterlimit="10"/>
<path d="M327.247 113.238C334.368 106.678 341.044 99.651 347.232 92.2042C350.85 87.9027 354.746 83.0282 358.996 77.4037C361.893 73.6219 363.888 70.653 363.45 70.3207C361.854 69.1134 354.998 75.4726 346.261 84.6767C341.391 89.8066 335.947 95.8118 330.491 101.903C322.737 110.552 314.969 119.382 308.849 125.993C314.627 121.761 317.562 121.536 324.627 115.544C325.457 114.838 326.312 114.092 327.247 113.238Z" fill="white" stroke="#FDDCD8" stroke-width="2" stroke-miterlimit="10"/>
<path d="M188.959 268.496C197.293 266.731 205.523 264.505 213.611 261.829C223.728 258.531 234.441 254.453 245.572 249.732C262.615 242.541 280.678 233.906 299.291 224.325C302.383 222.73 305.25 222.22 305.747 223.008C306.011 223.432 305.415 225.034 301.999 228.292C298.423 231.695 291.749 236.899 279.639 244.481C253.902 260.577 230.74 269.053 213.842 271.516C202.142 273.27 193.402 272.052 188.959 268.496Z" fill="white" stroke="#FDDCD8" stroke-width="2" stroke-miterlimit="10"/>
<path d="M175.386 311.719C177.519 311.362 179.679 311.191 181.841 311.21C180.239 312.613 180.232 315.984 179.425 317.427C176.18 323.241 173.227 328.922 170.625 334.49C167.135 341.953 164.123 349.057 161.64 355.738C160.699 357.446 159.825 359.036 158.958 360.592C150.039 376.609 144.126 385.302 140.451 388.951C134.717 394.685 134.426 388.063 136.69 377.933C138.475 370.337 140.816 362.884 143.696 355.632C144.332 354.56 144.967 353.487 145.603 352.401C144.961 353.48 144.318 354.546 143.696 355.632C138.472 364.458 133.651 373.053 129.102 380.621C123.322 390.255 117.985 398.227 112.827 402.895C111.877 403.761 110.861 404.552 109.788 405.259C108.371 406.19 106.843 406.94 105.239 407.491C105.582 398.406 107.57 389.46 111.106 381.085C113.162 376.211 115.634 371.523 118.495 367.074C126.5 354.473 137.359 343.35 148.894 333.232C157.634 325.565 166.758 318.467 175.326 311.753L175.412 311.746L175.386 311.719ZM171.294 316.103L170.373 317.142L171.294 316.103ZM169.36 318.314C168.983 318.692 168.658 319.135 168.307 319.552C168.658 319.135 169.016 318.725 169.36 318.314ZM167.652 320.354C165.507 322.949 163.421 325.626 161.395 328.385C163.408 325.622 165.493 322.945 167.652 320.354ZM150.112 345.098C153.687 339.403 157.442 333.795 161.395 328.385C157.422 333.788 153.674 339.416 150.112 345.098ZM146.073 351.653C146.569 350.825 147.106 349.944 147.629 349.09C147.112 349.938 146.596 350.799 146.08 351.646L146.073 351.653ZM148.059 348.342C148.615 347.428 149.185 346.515 149.754 345.601C149.225 346.515 148.655 347.428 148.099 348.342L148.059 348.342ZM172.532 314.692C172.79 314.434 173.048 314.176 173.3 313.924C173.068 314.156 172.816 314.421 172.571 314.692L172.532 314.692Z" fill="white" stroke="#FDDCD8" stroke-width="2" stroke-miterlimit="10"/>
<path d="M176.684 226.535C177.688 234.46 178.656 242.462 179.515 249.86C181.579 267.51 183.072 281.684 183.129 282.796C183.248 285.239 183.288 287.995 183.413 290.769C182.855 279.3 176.132 267.558 170.93 249.081C167.566 237.127 165.594 224.824 165.054 212.417C165.029 211.944 165.005 211.195 164.99 210.265C164.713 201.701 164.564 176.231 167.945 176.1C169.79 176.012 173.469 200.834 176.684 226.535Z" fill="white" stroke="#FDDCD8" stroke-width="2" stroke-miterlimit="10"/>
<path d="M144.53 194.747C146.808 198.27 149.013 201.878 151.079 205.626C160.64 222.55 168.394 241.348 174.79 260.259C176.154 264.271 177.452 268.31 178.657 272.283C179.475 280.97 181.304 289.532 184.106 297.795C185.289 301.217 186.662 304.571 188.218 307.84C188.132 307.926 188.072 308.052 188.006 308.158C187.791 307.554 187.504 306.978 187.152 306.443C185.51 303.977 183.046 302.175 180.199 301.358C179.9 300.743 179.422 300.233 178.829 299.894L178.186 298.312C177.584 298.376 176.975 298.316 176.396 298.137C175.818 297.957 175.282 297.66 174.823 297.265C169.29 292.086 164.416 286.247 160.309 279.878C155.454 272.229 151.491 264.049 148.496 255.498C147.274 252.103 146.152 248.656 145.133 245.156C141.517 232.8 139.008 219.935 136.406 207.123C134.115 195.813 131.751 184.55 128.52 173.731C134.425 180.284 139.78 187.313 144.53 194.747Z" fill="white" stroke="#FDDCD8" stroke-width="2" stroke-miterlimit="10"/>
<path d="M89.1291 232.364C97.4455 237.078 109.192 244.812 120.746 252.764C126.096 256.445 131.413 260.173 136.326 263.669C144.952 272.734 154.2 281.186 164.003 288.963C169.916 293.597 176.098 297.878 182.517 301.782C183.343 302.321 184.31 302.606 185.298 302.603C185.913 303.218 186.569 303.781 187.198 304.384C184.768 303.728 182.265 302.973 179.676 302.159L180.073 302.04C164.182 291.26 150.092 282.745 137.856 276.097C128.168 270.747 118.162 265.995 107.894 261.868L106.06 260.312C88.6723 245.361 76.4625 229.629 77.6809 228.079C78.5549 226.98 82.8719 228.821 89.1291 232.364Z" fill="white" stroke="#FDDCD8" stroke-width="2" stroke-miterlimit="10"/>
<path d="M144.006 279.388C151.569 282.979 158.92 287 166.022 291.432C172.856 295.723 170.141 299.232 158.302 298.279C153.056 297.764 147.859 296.832 142.762 295.491C130.803 292.498 114.932 286.97 95.2534 277.859C88.1686 274.574 79.2033 269.754 71.165 265.463C71.2577 265.371 71.986 265.026 75.449 265.324C93.459 266.847 107.192 268.013 117.746 268.993C120.143 269.748 122.573 270.575 125.01 271.449C131.327 273.714 137.723 276.402 144.006 279.388Z" fill="white" stroke="#FDDCD8" stroke-width="2" stroke-miterlimit="10"/>
<path d="M127.659 309.441C120.855 308.236 114.196 306.325 107.788 303.74C107.08 303.456 106.371 303.171 105.669 302.866C91.7868 296.918 79.2877 288.157 68.9607 277.136C71.9867 278.082 76.3567 279.235 82.8523 280.804C89.1823 282.327 97.4987 284.247 108.477 286.697C122.104 289.729 139.836 293.596 162.865 298.523L165.162 299.019L180.093 302.217C163.275 310.679 145.086 312.513 127.659 309.441Z" fill="white" stroke="#FDDCD8" stroke-width="2" stroke-miterlimit="10"/>
<path d="M187.131 306.462C187.484 306.997 187.77 307.573 187.985 308.177C187.329 309.201 186.622 310.191 185.866 311.143C184.118 310.389 182.94 310.455 182.132 310.984C182.04 311.064 181.953 311.15 181.874 311.243C179.711 311.224 177.551 311.395 175.418 311.752C175.491 311.68 175.564 311.607 175.63 311.541C175.544 311.627 175.458 311.713 175.371 311.799C170.955 312.566 166.586 313.587 162.288 314.858C158.434 315.931 154.362 317.156 150.164 318.374C146.681 319.38 143.106 320.387 139.464 321.3C131.577 323.423 123.487 324.704 115.329 325.121C110.316 325.332 105.297 324.905 100.391 323.85C89.4795 321.4 79.3885 315.202 71.3304 302.734C75.4842 302.995 79.6093 303.147 83.7057 303.191C91.0421 303.284 98.3918 303.151 105.722 302.959C113.098 306.124 120.827 308.394 128.744 309.72C145.827 312.501 163.638 310.581 180.179 302.344L179.854 302.284C180.007 302.22 180.131 302.101 180.201 301.95C180.271 301.799 180.282 301.628 180.232 301.47C183.045 302.275 185.486 304.042 187.131 306.462Z" fill="white" stroke="#FDDCD8" stroke-width="2" stroke-miterlimit="10"/>
<path d="M114.714 334.543C113.283 335.47 111.469 336.728 109.423 338.218C107.251 339.807 104.828 341.661 102.319 343.707C97.4824 343.688 92.6603 343.187 87.9237 342.211C78.1043 340.112 69.2383 335.444 63.246 326.671C65.934 326.078 68.6596 325.671 71.4035 325.452C79.6537 324.724 88.1554 325.174 96.2401 324.333C97.6107 324.181 98.9747 324.009 100.312 323.77C112.846 326.598 126.473 324.466 139.385 321.221C130.846 325.052 122.6 329.505 114.714 334.543Z" fill="white" stroke="#FDDCD8" stroke-width="2" stroke-miterlimit="10"/>
<path d="M188.269 197.342C193.95 216.187 198.466 235.998 199.227 255.471C199.879 268.322 198.439 281.194 194.963 293.584C193.396 298.966 191.35 304.198 188.852 309.217L188.627 308.727C186.9 305.179 185.387 301.53 184.098 297.801C181.315 289.54 179.504 280.983 178.701 272.303C178.476 269.879 178.291 267.416 178.132 264.926C177.549 253.061 178.271 241.056 179.291 229.006C180.688 212.234 182.614 195.409 182.283 178.829C184.349 184.908 186.355 191.059 188.269 197.342Z" fill="white" stroke="#FDDCD8" stroke-width="2" stroke-miterlimit="10"/>
<path d="M226.648 196.681C227.34 197.671 227.656 198.875 227.542 200.077C227.092 204.527 226.538 208.956 225.88 213.366C223.178 231.562 218.651 249.439 212.366 266.728C211.876 268.079 211.366 269.409 210.857 270.74C206.017 283.409 200.227 295.693 193.535 307.489L193.019 308.416C192.913 308.522 192.873 308.667 192.8 308.806C191.498 311.08 190.154 313.338 188.768 315.58C188.648 313.289 188.609 311.011 188.629 308.727L188.854 309.217C197.263 292.359 199.958 274.064 199.236 255.465C200.031 253.094 200.865 250.724 201.706 248.36C207.638 231.714 214.459 215.187 219.617 198.667C220.398 196.182 221.128 193.686 221.808 191.178C223.073 193.158 225.37 194.714 226.648 196.681Z" fill="white" stroke="#FDDCD8" stroke-width="2" stroke-miterlimit="10"/>
<path d="M245.32 220.822C245.537 232.321 243.392 243.742 239.017 254.379C232.429 260.411 225.979 266.582 220 273.038C209.91 283.95 201.183 295.683 195.508 309.038C195.462 309.084 195.422 309.124 195.435 309.217C195.448 309.309 195.356 309.296 195.369 309.376L193.906 309.051C193.594 308.992 193.283 308.919 192.972 308.846C192.92 308.831 192.867 308.822 192.813 308.819C192.919 308.714 192.952 308.561 193.032 308.429L193.548 307.502C200.955 294.466 207.254 280.831 212.379 266.741C214.412 263.649 216.484 260.57 218.511 257.445C219.583 255.789 220.643 254.121 221.662 252.425C224.218 248.039 226.441 243.466 228.31 238.746C233.766 225.477 237.785 211.724 244.36 207.48C244.969 211.902 245.29 216.358 245.32 220.822Z" fill="white" stroke="#FDDCD8" stroke-width="2" stroke-miterlimit="10"/>
<path d="M245.36 266.694C242.341 270.455 239.222 274.156 235.971 277.738C232.72 281.32 229.601 284.704 226.31 288.074C221.243 290.126 216.385 292.661 211.803 295.642C211.545 295.808 211.306 295.98 211.015 296.178C209.77 297 208.545 297.854 207.34 298.728C203.101 301.835 199.127 305.29 195.461 309.057C199.742 299.322 205.363 290.233 212.16 282.055C220.113 272.222 229.402 263.158 238.997 254.371C245.347 248.551 251.829 242.863 258.112 237.123C262.966 232.706 267.76 228.23 272.262 223.701C265.403 239.142 256.067 253.405 245.36 266.694Z" fill="white" stroke="#FDDCD8" stroke-width="2" stroke-miterlimit="10"/>
<path d="M132.869 338.329C128.188 342.084 123.414 345.904 118.779 349.625C104.669 360.915 91.8564 371.145 86.9566 374.959C85.8509 375.813 85.1556 376.349 84.9305 376.495C83.5996 377.349 82.335 376.137 81.2755 374.508C77.6735 368.933 84.99 359.458 94.0282 350.936C96.7495 348.361 99.5967 345.911 102.318 343.706C106.291 340.442 110.428 337.383 114.713 334.542C120.348 330.923 126.182 327.622 132.187 324.656C134.571 323.478 136.968 322.326 139.371 321.246C147.403 319.227 155.15 316.777 162.195 314.804C155.401 320.246 144.436 329.053 132.869 338.329Z" fill="white" stroke="#FDDCD8" stroke-width="2" stroke-miterlimit="10"/>
<path d="M136.022 345.323C129.436 351.939 123.553 359.219 118.469 367.048C112.456 373.258 107.782 378.423 105.047 380.469C104.882 380.635 104.676 380.734 104.511 380.846C102.466 382.183 100.124 382.997 97.6908 383.217C98.0483 375.271 101.379 368.458 106.054 362.446C109.853 357.746 114.124 353.448 118.8 349.62C129.943 340.688 141.901 331.1 151.377 323.492C155.574 320.116 159.296 317.136 162.236 314.779C166.534 313.508 170.903 312.486 175.319 311.72C162.401 321.844 148.225 332.815 136.022 345.323Z" fill="white" stroke="#FDDCD8" stroke-width="2" stroke-miterlimit="10"/>
<path d="M185.881 311.144C181.716 330.591 177.744 346.588 174.075 359.539C173.493 361.446 172.956 363.307 172.447 365.141C168.619 378.013 165.163 387.481 162.177 393.95C152.708 414.794 148.457 405.392 153.827 381.363C155.849 372.648 158.448 364.076 161.607 355.706C164.09 349.025 167.077 341.893 170.593 334.458C170.977 333.663 171.374 332.855 171.764 332.041C174.089 327.267 176.638 322.347 179.392 317.395C180.2 315.951 180.22 312.594 181.809 311.177C181.889 311.085 181.975 310.998 182.067 310.919C182.941 310.455 184.12 310.389 185.881 311.144Z" fill="white" stroke="#FDDCD8" stroke-width="2" stroke-miterlimit="10"/>
<path d="M188.754 315.593C190.127 313.337 191.471 311.08 192.787 308.819L192.932 308.965C192.456 312.461 192.098 315.944 191.793 319.467L191.76 319.91C191.588 321.95 191.436 323.995 191.303 326.075C191.151 328.571 191.072 331.074 191.012 333.583C190.707 344.738 191.419 355.896 193.138 366.922C191.562 382.773 188.741 394.533 186.152 402.538C183.345 411.185 180.809 415.456 180.358 415.747C179.908 416.039 178.769 415.297 178.187 414.397C178.187 414.397 178.107 404.398 176.796 387.461C176.187 379.555 175.306 370.16 174.042 359.546C174.644 357.407 175.267 355.169 175.882 352.858C179.028 341.198 182.371 327.379 185.814 311.144C186.653 310.094 187.432 308.998 188.145 307.859L188.576 308.753C188.595 311.024 188.615 313.282 188.754 315.593Z" fill="white" stroke="#FDDCD8" stroke-width="2" stroke-miterlimit="10"/>
<path d="M194.229 310.408L194.494 311.467C194.917 313.096 195.394 314.725 195.897 316.367C197.381 321.187 199.162 326.081 201.036 331.014C203.658 337.939 206.465 344.958 208.908 351.983C212.06 361.028 214.609 370.119 215.331 379.012C216.225 389.785 214.49 400.326 208.021 410.344C206.153 407.105 204.449 403.775 202.916 400.365C198.214 389.685 194.932 378.435 193.156 366.901C192.448 362.538 191.944 358.128 191.593 353.698C190.871 344.501 190.78 335.264 191.322 326.054C191.428 324.001 191.58 321.956 191.779 319.89L191.812 319.446C192.117 315.923 192.501 312.414 192.951 308.945L194.229 310.408Z" fill="white" stroke="#FDDCD8" stroke-width="2" stroke-miterlimit="10"/>
<path d="M194.72 310.952C195.819 312.157 196.925 313.342 198.044 314.527C200.56 317.202 203.133 319.824 205.764 322.393C211.863 328.418 218.296 334.095 225.032 339.397C229.914 347.244 233.804 355.667 236.613 364.472C241.844 381.158 240.487 392.381 240.016 392.732C238.957 393.421 238.354 393.851 232.256 385.581C227.939 379.728 220.874 369.537 208.909 351.984C207.85 348.925 206.744 345.846 205.552 342.827C202.156 333.882 198.554 325.009 195.898 316.368C195.395 314.726 194.918 313.097 194.495 311.468L194.23 310.409L194.72 310.952Z" fill="white" stroke="#FDDCD8" stroke-width="2" stroke-miterlimit="10"/>
<path d="M111.774 216.777C117.693 223.147 127.599 234.231 144.444 253.287C146.476 256.551 148.535 259.789 150.608 263.014C156.733 272.529 162.997 282.024 168.38 291.128C169.399 292.863 170.373 294.591 171.313 296.299L171.935 297.438L171.32 296.823C169.909 295.492 168.499 294.174 167.069 292.863C163.855 289.897 160.619 286.992 157.362 284.149C149.774 277.501 141.987 271.105 134.015 265.12C126.96 256.705 120.59 247.74 114.965 238.31C104.537 220.637 101.954 209.09 102.299 208.785C103.02 208.183 103.391 207.812 111.774 216.777Z" fill="white" stroke="#FDDCD8" stroke-width="2" stroke-miterlimit="10"/>
<path d="M220.703 316.952C231.207 320.865 241.248 325.924 250.645 332.035C262.506 339.702 272.852 349.491 281.162 360.911C282.116 362.381 278.606 366.724 277.137 367.678C276.335 367.42 275.554 367.142 274.766 366.87C256.154 360.494 239.719 350.88 225 339.352C223.285 338.008 221.597 336.624 219.928 335.233C212.215 328.76 204.896 321.831 198.012 314.482C196.859 313.33 195.787 312.112 194.688 310.907L194.171 310.39L192.913 309L192.754 308.841C192.808 308.843 192.861 308.852 192.913 308.867C193.224 308.94 193.536 309.013 193.847 309.072L195.31 309.397C197.548 309.913 199.786 310.456 202.017 311.046L202.249 311.092C208.497 312.728 214.656 314.684 220.703 316.952Z" fill="white" stroke="#FDDCD8" stroke-width="2" stroke-miterlimit="10"/>
<path d="M278.183 318.296C284.098 321.606 289.544 325.69 294.379 330.439C284.169 325.063 273.972 323.381 256.942 320.812C250.042 319.766 241.984 318.554 232.37 316.899C223.723 315.402 213.811 313.555 202.263 311.092L202.038 311.039C199.806 310.45 197.568 309.907 195.33 309.39C195.33 309.39 195.37 309.284 195.397 309.231C200.072 306.609 205.11 304.695 210.348 303.55C214.79 302.585 219.307 301.998 223.848 301.796L226.623 302.305C244.646 305.603 262.703 309.516 278.183 318.296Z" fill="white" stroke="#FDDCD8" stroke-width="2" stroke-miterlimit="10"/>
<path d="M268.541 287.319C273.152 289.448 277.387 292.31 281.082 295.794C272.262 300.138 263.019 301.409 253.603 301.701C250.048 301.813 246.459 301.787 242.87 301.721C236.547 301.621 230.184 301.429 223.867 301.76C219.325 301.962 214.809 302.549 210.366 303.515C205.129 304.659 200.091 306.574 195.415 309.196C195.455 309.156 195.495 309.117 195.488 309.017C199.154 305.25 203.127 301.795 207.367 298.688C208.804 297.635 210.287 296.615 211.77 295.609C214.962 293.544 218.284 291.686 221.715 290.047C223.225 289.332 224.734 288.657 226.304 288.014C232.859 285.314 239.818 283.726 246.896 283.313C254.329 282.877 261.757 284.252 268.541 287.319Z" fill="white" stroke="#FDDCD8" stroke-width="2" stroke-miterlimit="10"/>
<path d="M267.025 264.179C261.728 271.078 254.941 276.991 247.909 282.527C247.565 282.792 247.221 283.07 246.87 283.341C239.792 283.753 232.832 285.342 226.277 288.042C232.938 281.209 239.348 274.098 245.327 266.662C247.538 265.258 249.75 263.841 251.955 262.431C252.385 262.146 252.816 261.875 253.246 261.603C259.871 257.477 266.141 252.806 271.991 247.639C273.62 246.142 275.196 244.593 276.699 242.931C275.248 250.694 271.927 257.987 267.025 264.179Z" fill="white" stroke="#FDDCD8" stroke-width="2" stroke-miterlimit="10"/>
<path d="M202.06 311.012L202.288 311.065L202.046 311.025L202.06 311.012Z" fill="white" stroke="#FDDCD8" stroke-width="2" stroke-miterlimit="10"/>
<path d="M175.385 311.721L175.299 311.727C175.385 311.641 175.471 311.555 175.557 311.469C175.524 311.568 175.444 311.648 175.385 311.721Z" fill="white" stroke="#FDDCD8" stroke-width="2" stroke-miterlimit="10"/>
<path d="M175.385 311.721L175.299 311.727C175.385 311.641 175.471 311.555 175.557 311.469C175.524 311.568 175.444 311.648 175.385 311.721Z" fill="white" stroke="#FDDCD8" stroke-width="2" stroke-miterlimit="10"/>
<path d="M181.61 283.738C181.834 283.384 182.108 283.065 182.425 282.791C183.007 282.407 186.768 283.36 187.781 284.93C187.972 285.185 188.107 285.477 188.178 285.788C188.248 286.098 188.252 286.42 188.19 286.733C188.127 287.045 188 287.341 187.815 287.601C187.631 287.861 187.393 288.078 187.119 288.24C185.51 289.28 182.113 289.353 181.034 287.704C180.704 287.192 180.561 286.581 180.63 285.976C180.756 285.157 181.093 284.385 181.61 283.738Z" fill="white" stroke="#FDDCD8" stroke-width="2" stroke-miterlimit="10"/>
<path d="M177.756 289.473C178.04 288.142 180.55 289.499 181.338 290.724C181.554 291.017 181.705 291.352 181.782 291.708C181.859 292.064 181.86 292.432 181.784 292.788C181.708 293.144 181.558 293.48 181.343 293.773C181.128 294.067 180.853 294.312 180.537 294.492C179.757 294.913 178.856 295.051 177.985 294.883C177.115 294.716 176.33 294.252 175.763 293.571C175.539 292.951 175.517 292.276 175.699 291.643C175.881 291.009 176.257 290.449 176.776 290.042C177.113 289.824 177.478 289.658 177.756 289.473Z" fill="white" stroke="#FDDCD8" stroke-width="2" stroke-miterlimit="10"/>
<path d="M173.194 285.731C173.279 285.512 173.423 285.322 173.611 285.181C174.333 284.711 175.578 286.287 176.021 286.982C177.068 288.584 177.226 290.372 175.611 291.365C175.226 291.662 174.783 291.872 174.31 291.981C173.837 292.09 173.346 292.095 172.871 291.997C172.396 291.899 171.947 291.7 171.556 291.412C171.165 291.125 170.841 290.757 170.605 290.332C169.731 288.982 171.525 286.763 172.638 285.995C172.816 285.892 173.002 285.804 173.194 285.731Z" fill="white" stroke="#FDDCD8" stroke-width="2" stroke-miterlimit="10"/>
<path d="M189.223 291.763C189.482 291.598 189.674 291.313 189.879 291.201C190.435 290.843 191.66 292.2 192.024 292.763C193.461 294.994 193.527 295.935 191.316 297.352C189.647 298.438 187.528 298.411 186.396 296.67C185.264 294.928 186.032 292.505 187.019 291.863C187.195 291.748 187.405 291.697 187.614 291.717C188.23 291.803 188.667 291.313 189.223 291.763Z" fill="white" stroke="#FDDCD8" stroke-width="2" stroke-miterlimit="10"/>
<path d="M184.053 290.869C184.732 290.955 185.382 291.198 185.951 291.578C186.519 291.959 186.992 292.466 187.331 293.061C189.35 296.193 189.112 299.331 185.854 301.45C185.425 301.783 184.928 302.018 184.398 302.14C183.869 302.261 183.319 302.266 182.787 302.154C182.256 302.042 181.755 301.815 181.319 301.49C180.884 301.165 180.524 300.749 180.266 300.271C178.703 297.861 179.2 292.875 181.292 291.525C182.118 291.014 183.086 290.784 184.053 290.869Z" fill="white" stroke="#FDDCD8" stroke-width="2" stroke-miterlimit="10"/>
<path d="M177.471 283.772C177.575 283.527 177.742 283.315 177.954 283.156C178.003 283.125 178.056 283.102 178.113 283.089C179.025 282.847 179.989 282.883 180.881 283.192C181.773 283.501 182.552 284.069 183.119 284.824C184.291 286.632 183.364 288.194 181.609 289.327C179.854 290.459 178.093 290.711 176.702 288.579C176.619 288.449 176.56 288.306 176.53 288.155C176.299 286.652 176.888 285.281 177.471 283.772Z" fill="white" stroke="#FDDCD8" stroke-width="2" stroke-miterlimit="10"/>
<path d="M175.332 291.352C176.049 291.494 176.728 291.783 177.326 292.201C177.925 292.619 178.43 293.158 178.808 293.782C180.212 295.954 180.536 299.748 178.517 301.053C176.497 302.357 173.18 300.841 171.935 298.907C170.068 296.021 172.829 292.637 174.352 291.657C174.634 291.445 174.98 291.338 175.332 291.352Z" fill="white" stroke="#FDDCD8" stroke-width="2" stroke-miterlimit="10"/>
<path d="M170.791 287.009C171.599 286.493 172.572 287.691 173.115 288.525C174.962 291.393 174.088 294.875 172.082 296.18C171.234 296.633 170.244 296.743 169.317 296.487C168.39 296.231 167.597 295.627 167.103 294.803C165.587 292.465 167.315 288.287 168.56 287.479C168.794 287.333 169.039 287.207 169.295 287.102C169.768 286.902 170.296 286.869 170.791 287.009Z" fill="white" stroke="#FDDCD8" stroke-width="2" stroke-miterlimit="10"/>
<path d="M193.071 288.962C193.283 287.982 195.747 287.863 197.647 290.796C198.686 292.405 199.322 294.286 196.832 295.888C194.833 297.186 191.184 296.239 190.589 295.325C190.518 295.217 190.479 295.091 190.476 294.961C190.427 293.83 190.635 292.703 191.085 291.663C191.534 290.624 192.214 289.701 193.071 288.962Z" fill="white" stroke="#FDDCD8" stroke-width="2" stroke-miterlimit="10"/>
<path d="M190.693 294.862C191.641 295.359 192.443 296.096 193.017 297.001C194.063 298.603 194.917 301.722 192.891 303.033C190.865 304.344 187.965 302.768 186.885 301.093C185.707 299.265 187.177 295.504 187.998 294.922C188.206 294.8 188.423 294.694 188.647 294.604C189.336 294.418 190.071 294.51 190.693 294.862Z" fill="white" stroke="#FDDCD8" stroke-width="2" stroke-miterlimit="10"/>
<path d="M197.308 296.431C198.332 296.866 199.217 297.577 199.864 298.483C200.718 299.814 200.824 301.628 199.327 302.595C198.621 303.05 197.765 303.212 196.941 303.047C196.117 302.883 195.389 302.405 194.911 301.714C194.557 301.26 194.361 300.702 194.354 300.125C194.347 299.549 194.529 298.986 194.871 298.523C195.569 297.703 196.392 296.997 197.308 296.431Z" fill="white" stroke="#FDDCD8" stroke-width="2" stroke-miterlimit="10"/>
<path d="M182.192 296.319C182.547 296.712 182.871 297.133 183.159 297.577C184.477 299.623 185.298 302.444 183.265 303.762C181.457 304.934 178.431 304.53 177.431 302.974C176.981 302.285 177.902 299.087 181.285 296.895C181.563 296.67 181.874 296.491 182.192 296.319Z" fill="white" stroke="#FDDCD8" stroke-width="2" stroke-miterlimit="10"/>
<path d="M185.198 285.194C185.403 284.989 185.668 284.83 185.906 284.671C188.906 282.731 193.11 285.015 194.09 286.538C195.07 288.061 195.368 290.094 193.686 291.18C192.005 292.266 187.006 294.193 184.893 290.928L184.781 290.723C184.239 289.549 184.156 288.214 184.549 286.982C184.754 286.379 185.065 285.817 185.198 285.194Z" fill="white" stroke="#FDDCD8" stroke-width="2" stroke-miterlimit="10"/>
<path d="M169.797 315.018C169.384 314.937 168.985 314.796 168.612 314.601C168.043 314.19 167.579 310.336 168.692 308.827C168.863 308.56 169.089 308.332 169.355 308.159C169.62 307.985 169.919 307.87 170.233 307.821C170.546 307.771 170.866 307.789 171.173 307.872C171.479 307.955 171.764 308.102 172.009 308.304C173.545 309.416 174.849 312.574 173.717 314.13C173.354 314.62 172.832 314.969 172.241 315.117C171.432 315.301 170.589 315.267 169.797 315.018Z" fill="white" stroke="#FDDCD8" stroke-width="2" stroke-miterlimit="10"/>
<path d="M176.524 316.553C175.174 316.764 175.545 313.944 176.405 312.765C176.601 312.459 176.859 312.197 177.163 311.997C177.467 311.798 177.81 311.665 178.169 311.607C178.528 311.55 178.895 311.569 179.246 311.663C179.597 311.758 179.924 311.926 180.206 312.156C180.882 312.735 181.335 313.532 181.488 314.41C181.64 315.287 181.482 316.19 181.04 316.963C180.541 317.392 179.919 317.653 179.264 317.71C178.608 317.767 177.951 317.617 177.385 317.281C177.081 317.029 176.796 316.758 176.524 316.553Z" fill="white" stroke="#FDDCD8" stroke-width="2" stroke-miterlimit="10"/>
<path d="M170.208 322.155C169.978 322.16 169.752 322.096 169.559 321.97C168.858 321.467 169.884 319.739 170.367 319.07C171.486 317.54 173.095 316.726 174.625 317.832C175.032 318.089 175.379 318.43 175.644 318.833C175.909 319.235 176.084 319.69 176.159 320.166C176.233 320.642 176.205 321.128 176.077 321.592C175.948 322.056 175.722 322.488 175.413 322.857C174.466 324.162 171.731 323.321 170.639 322.52C170.486 322.41 170.342 322.288 170.208 322.155Z" fill="white" stroke="#FDDCD8" stroke-width="2" stroke-miterlimit="10"/>
<path d="M174.544 305.025C174.332 304.813 173.975 304.76 173.783 304.621C173.26 304.23 174.087 302.595 174.478 302.059C176.041 299.913 176.895 299.523 179.034 301.079C180.643 302.251 181.391 304.244 180.166 305.919C178.941 307.594 176.405 307.76 175.458 307.064C175.29 306.94 175.169 306.763 175.114 306.561C174.942 305.939 174.326 305.707 174.544 305.025Z" fill="white" stroke="#FDDCD8" stroke-width="2" stroke-miterlimit="10"/>
<path d="M174.313 317.136C174.149 316.472 174.143 315.779 174.295 315.113C174.447 314.446 174.752 313.824 175.187 313.296C177.378 310.283 180.417 309.389 183.543 311.667C184.007 311.949 184.404 312.328 184.708 312.778C185.011 313.228 185.213 313.739 185.299 314.275C185.385 314.811 185.354 315.359 185.207 315.882C185.061 316.404 184.802 316.889 184.45 317.302C182.781 319.606 177.921 320.944 175.915 319.48C175.143 318.891 174.582 318.069 174.313 317.136Z" fill="white" stroke="#FDDCD8" stroke-width="2" stroke-miterlimit="10"/>
<path d="M171.3 318.864C171.033 318.858 170.774 318.778 170.551 318.632L170.432 318.513C169.879 317.748 169.567 316.835 169.536 315.891C169.506 314.947 169.758 314.015 170.26 313.216C171.531 311.481 173.312 311.779 175.007 313.011C176.703 314.242 177.537 315.778 176.06 317.864C175.975 317.989 175.867 318.097 175.742 318.182C174.412 318.93 172.935 318.884 171.3 318.864Z" fill="white" stroke="#FDDCD8" stroke-width="2" stroke-miterlimit="10"/>
<path d="M175.452 323.665C175.324 322.947 175.349 322.21 175.523 321.502C175.697 320.794 176.018 320.13 176.465 319.553C177.981 317.467 181.418 315.805 183.378 317.196C185.337 318.586 185.092 322.248 183.702 324.142C181.676 326.923 177.531 325.559 176.087 324.473C175.786 324.288 175.56 324.002 175.452 323.665Z" fill="white" stroke="#FDDCD8" stroke-width="2" stroke-miterlimit="10"/>
<path d="M170.566 302.41C169.573 302.569 168.58 300.304 170.639 297.477C171.751 295.941 173.287 294.67 175.684 296.404C177.604 297.808 178.008 301.589 177.399 302.436C177.333 302.548 177.24 302.642 177.128 302.708C176.082 303.153 174.949 303.358 173.813 303.306C172.677 303.255 171.568 302.948 170.566 302.41Z" fill="white" stroke="#FDDCD8" stroke-width="2" stroke-miterlimit="10"/>
<path d="M178.006 303.349C178.131 302.284 178.533 301.271 179.172 300.409C180.284 298.873 182.893 296.94 184.846 298.363C186.799 299.787 186.362 303.058 185.157 304.674C183.873 306.435 179.814 306.455 178.999 305.852C178.811 305.702 178.64 305.531 178.49 305.342C178.282 305.058 178.133 304.736 178.05 304.394C177.967 304.052 177.952 303.697 178.006 303.349Z" fill="white" stroke="#FDDCD8" stroke-width="2" stroke-miterlimit="10"/>
<path d="M193.402 310.708C193.438 309.594 193.782 308.513 194.395 307.583C195.329 306.305 196.984 305.55 198.428 306.609C199.101 307.103 199.558 307.839 199.702 308.662C199.847 309.485 199.668 310.332 199.202 311.026C198.903 311.519 198.45 311.902 197.914 312.116C197.378 312.329 196.786 312.363 196.229 312.211C195.214 311.86 194.26 311.353 193.402 310.708Z" fill="white" stroke="#FDDCD8" stroke-width="2" stroke-miterlimit="10"/>
<path d="M190.126 311.999C190.365 311.529 190.642 311.079 190.954 310.655C192.391 308.675 194.715 306.894 196.681 308.33C198.429 309.602 199.138 312.561 198.032 314.091C197.542 314.753 194.225 315.051 190.974 312.674C190.68 312.464 190.397 312.238 190.126 311.999Z" fill="white" stroke="#FDDCD8" stroke-width="2" stroke-miterlimit="10"/>
<path d="M169.856 311.144C169.611 310.992 169.353 310.839 169.115 310.667C166.234 308.568 166.857 303.827 167.916 302.357C168.975 300.887 170.77 299.914 172.399 301.066C174.028 302.218 177.583 306.251 175.319 309.376C175.269 309.432 175.216 309.485 175.16 309.535C174.257 310.454 173.043 311.002 171.756 311.071C171.121 311.137 170.492 311.038 169.856 311.144Z" fill="white" stroke="#FDDCD8" stroke-width="2" stroke-miterlimit="10"/>
<path d="M165.355 318.228C164.586 318.334 164.302 317.175 164.202 316.401C163.832 313.779 165.593 311.607 167.434 311.342C168.182 311.294 168.92 311.538 169.492 312.024C170.064 312.509 170.425 313.198 170.499 313.944C170.804 316.089 168.222 318.473 167.109 318.659C166.897 318.692 166.682 318.703 166.467 318.692C166.052 318.677 165.657 318.512 165.355 318.228Z" fill="white" stroke="#FDDCD8" stroke-width="2" stroke-miterlimit="10"/>
<path d="M173.525 327.512C172.75 326.962 173.525 325.605 174.101 324.803C176.114 322.049 179.676 321.612 181.603 323.035C182.33 323.665 182.788 324.551 182.881 325.508C182.973 326.466 182.693 327.423 182.099 328.18C180.47 330.431 175.968 330.339 174.743 329.445C174.533 329.267 174.339 329.072 174.16 328.862C173.804 328.495 173.58 328.02 173.525 327.512Z" fill="white" stroke="#FDDCD8" stroke-width="2" stroke-miterlimit="10"/>
<path d="M204.156 309.806C204.421 310.127 204.639 310.484 204.805 310.865C204.984 311.547 202.904 314.818 201.097 315.302C200.794 315.4 200.474 315.432 200.158 315.398C199.842 315.364 199.537 315.263 199.262 315.102C198.988 314.941 198.75 314.724 198.566 314.466C198.381 314.207 198.253 313.912 198.19 313.6C197.68 311.766 198.693 308.502 200.547 308.012C201.138 307.865 201.762 307.923 202.315 308.177C203.061 308.549 203.696 309.111 204.156 309.806Z" fill="white" stroke="#FDDCD8" stroke-width="2" stroke-miterlimit="10"/>
<path d="M199.924 304.344C201.103 305.032 199.03 306.985 197.626 307.343C197.278 307.452 196.911 307.486 196.549 307.443C196.187 307.399 195.838 307.28 195.526 307.093C195.213 306.905 194.943 306.653 194.735 306.354C194.526 306.055 194.384 305.715 194.316 305.357C194.16 304.483 194.311 303.583 194.741 302.808C195.172 302.032 195.856 301.429 196.68 301.099C197.34 301.082 197.988 301.273 198.534 301.645C199.079 302.017 199.494 302.551 199.719 303.172C199.778 303.628 199.831 304.026 199.924 304.344Z" fill="white" stroke="#FDDCD8" stroke-width="2" stroke-miterlimit="10"/>
<path d="M204.89 301.192C205.074 301.334 205.212 301.528 205.287 301.748C205.499 302.583 203.618 303.271 202.817 303.49C201.009 303.973 199.222 303.576 198.745 301.748C198.591 301.292 198.536 300.808 198.585 300.329C198.634 299.85 198.785 299.386 199.027 298.97C199.27 298.554 199.599 298.195 199.993 297.917C200.386 297.639 200.834 297.449 201.307 297.358C202.87 296.948 204.453 299.325 204.797 300.636C204.845 300.818 204.876 301.004 204.89 301.192Z" fill="white" stroke="#FDDCD8" stroke-width="2" stroke-miterlimit="10"/>
<path d="M193.627 308.111C193.7 308.409 193.892 308.68 193.951 308.912C194.117 309.541 192.448 310.283 191.799 310.455C189.23 311.13 188.29 310.918 187.648 308.329C187.138 306.403 187.826 304.39 189.819 303.88C191.813 303.37 193.892 304.84 194.189 305.972C194.246 306.172 194.23 306.386 194.143 306.575C193.898 307.151 194.203 307.694 193.627 308.111Z" fill="white" stroke="#FDDCD8" stroke-width="2" stroke-miterlimit="10"/>
<path d="M187.78 309.786C187.487 310.405 187.054 310.947 186.515 311.368C185.976 311.79 185.346 312.081 184.675 312.216C181.079 313.163 178.159 311.951 177.173 308.197C176.99 307.686 176.92 307.14 176.969 306.599C177.018 306.058 177.184 305.534 177.455 305.064C177.727 304.593 178.097 304.187 178.541 303.874C178.985 303.561 179.492 303.348 180.027 303.251C182.821 302.523 187.383 304.555 188.019 306.952C188.247 307.898 188.164 308.892 187.78 309.786Z" fill="white" stroke="#FDDCD8" stroke-width="2" stroke-miterlimit="10"/>
<path d="M205.42 305.866C205.623 306.04 205.772 306.267 205.851 306.522C205.87 306.575 205.877 306.632 205.871 306.688C205.813 307.63 205.476 308.533 204.903 309.283C204.33 310.033 203.546 310.595 202.653 310.899C200.56 311.455 199.382 310.078 198.859 308.071C198.336 306.065 198.653 304.304 201.083 303.675C201.23 303.633 201.383 303.624 201.534 303.648C203.043 303.847 204.162 304.82 205.42 305.866Z" fill="white" stroke="#FDDCD8" stroke-width="2" stroke-miterlimit="10"/>
<path d="M199.448 304.913C199.092 305.551 198.607 306.106 198.023 306.544C197.439 306.982 196.769 307.293 196.058 307.456C193.562 308.111 189.847 307.231 189.245 304.906C188.642 302.582 191.105 299.907 193.33 299.325C196.66 298.457 199.011 302.132 199.474 303.88C199.586 304.217 199.577 304.582 199.448 304.913Z" fill="white" stroke="#FDDCD8" stroke-width="2" stroke-miterlimit="10"/>
<path d="M204.428 298.504C204.679 299.457 203.242 299.967 202.262 300.232C198.971 301.099 195.926 299.193 195.323 296.868C195.156 295.921 195.36 294.946 195.892 294.144C196.425 293.343 197.245 292.777 198.183 292.565C200.878 291.856 204.308 294.796 204.686 296.233C204.75 296.503 204.794 296.777 204.818 297.054C204.859 297.568 204.721 298.08 204.428 298.504Z" fill="white" stroke="#FDDCD8" stroke-width="2" stroke-miterlimit="10"/>
<path d="M192.607 316.454C193.448 316.937 192.826 319.321 189.429 320.228C187.588 320.744 185.595 320.724 184.841 317.864C184.238 315.566 186.337 312.395 187.33 312.103C187.457 312.075 187.589 312.079 187.714 312.117C188.803 312.426 189.808 312.977 190.655 313.728C191.502 314.479 192.169 315.41 192.607 316.454Z" fill="white" stroke="#FDDCD8" stroke-width="2" stroke-miterlimit="10"/>
<path d="M190.407 313.646C189.641 314.393 188.691 314.923 187.653 315.182C185.832 315.678 182.574 315.52 181.959 313.182C181.343 310.845 183.753 308.58 185.726 308.09C187.699 307.601 190.983 310.09 191.248 311.07C191.299 311.305 191.33 311.545 191.341 311.785C191.288 312.504 190.953 313.174 190.407 313.646Z" fill="white" stroke="#FDDCD8" stroke-width="2" stroke-miterlimit="10"/>
<path d="M190.593 323.22C189.857 324.052 188.907 324.668 187.846 325.001C186.316 325.405 184.555 324.941 184.098 323.213C183.893 322.402 184.008 321.544 184.418 320.816C184.829 320.087 185.503 319.545 186.303 319.3C186.842 319.109 187.428 319.098 187.974 319.268C188.519 319.439 188.995 319.782 189.329 320.247C189.901 321.166 190.328 322.169 190.593 323.22Z" fill="white" stroke="#FDDCD8" stroke-width="2" stroke-miterlimit="10"/>
<path d="M192.025 306.428C191.54 306.64 191.04 306.813 190.528 306.945C188.171 307.567 185.238 307.468 184.622 305.13C184.066 303.038 185.397 300.29 187.231 299.793C188.032 299.588 190.786 301.455 191.806 305.362C191.886 305.72 191.965 306.077 192.025 306.428Z" fill="white" stroke="#FDDCD8" stroke-width="2" stroke-miterlimit="10"/>
<path d="M198.838 313.759C198.947 314.032 199.04 314.31 199.117 314.594C200.024 318.043 196.561 321.308 194.786 321.784C193.012 322.261 191.005 321.884 190.509 319.957C190.012 318.03 189.728 312.66 193.495 311.674L193.714 311.627C194.997 311.492 196.285 311.836 197.329 312.594C197.852 312.958 198.289 313.435 198.838 313.759Z" fill="white" stroke="#FDDCD8" stroke-width="2" stroke-miterlimit="10"/>
<path d="M209.651 310.098C210.313 310.495 209.79 311.561 209.379 312.236C208.015 314.501 205.247 315.044 203.685 314.117C203.073 313.681 202.655 313.024 202.519 312.285C202.383 311.546 202.54 310.783 202.956 310.157C204.075 308.31 207.585 308.098 208.571 308.687C208.751 308.805 208.921 308.935 209.081 309.078C209.385 309.341 209.586 309.702 209.651 310.098Z" fill="white" stroke="#FDDCD8" stroke-width="2" stroke-miterlimit="10"/>
<path d="M161.891 302.159C161.772 301.757 161.712 301.34 161.712 300.92C161.818 300.219 165.016 298.04 166.87 298.318C167.187 298.347 167.493 298.443 167.77 298.599C168.047 298.755 168.287 298.968 168.476 299.224C168.664 299.48 168.796 299.773 168.863 300.084C168.93 300.394 168.93 300.716 168.863 301.026C168.579 302.927 166.393 305.509 164.486 305.231C163.886 305.131 163.337 304.83 162.931 304.377C162.391 303.744 162.032 302.978 161.891 302.159Z" fill="white" stroke="#FDDCD8" stroke-width="2" stroke-miterlimit="10"/>
<path d="M163.624 308.831C162.823 307.739 165.511 306.746 166.941 306.984C167.303 307.017 167.653 307.125 167.97 307.303C168.286 307.48 168.562 307.722 168.778 308.014C168.994 308.305 169.146 308.639 169.225 308.993C169.303 309.347 169.306 309.714 169.232 310.07C169.031 310.934 168.536 311.703 167.832 312.245C167.129 312.787 166.26 313.069 165.372 313.043C164.76 312.798 164.24 312.367 163.886 311.811C163.532 311.255 163.362 310.602 163.399 309.944C163.458 309.553 163.584 309.176 163.624 308.831Z" fill="white" stroke="#FDDCD8" stroke-width="2" stroke-miterlimit="10"/>
<path d="M157.8 309.773C157.693 309.565 157.647 309.33 157.667 309.097C157.8 308.25 159.766 308.323 160.62 308.488C162.474 308.766 163.957 309.826 163.679 311.693C163.638 312.174 163.494 312.64 163.258 313.06C163.022 313.481 162.699 313.846 162.311 314.132C161.922 314.418 161.477 314.618 161.005 314.718C160.533 314.818 160.045 314.816 159.574 314.712C157.998 314.461 157.475 311.66 157.674 310.322C157.703 310.136 157.745 309.953 157.8 309.773Z" fill="white" stroke="#FDDCD8" stroke-width="2" stroke-miterlimit="10"/>
<path d="M172.941 301.768C172.988 301.47 172.922 301.126 172.955 300.894C173.054 300.252 174.941 300.232 175.544 300.331C178.166 300.728 178.914 301.304 178.543 303.953C178.245 305.919 176.808 307.515 174.769 307.184C172.73 306.853 171.412 304.701 171.584 303.536C171.612 303.329 171.713 303.139 171.869 303C172.319 302.536 172.22 301.867 172.941 301.768Z" fill="white" stroke="#FDDCD8" stroke-width="2" stroke-miterlimit="10"/>
<path d="M167.062 304.31C167.576 303.858 168.188 303.533 168.851 303.361C169.513 303.188 170.206 303.173 170.876 303.317C174.557 303.873 176.749 306.131 176.173 309.938C176.134 310.476 175.979 310.999 175.72 311.472C175.46 311.945 175.101 312.356 174.668 312.677C174.235 312.998 173.737 313.222 173.21 313.333C172.682 313.445 172.136 313.441 171.61 313.322C168.763 312.885 165.373 309.217 165.744 306.754C165.914 305.82 166.375 304.965 167.062 304.31Z" fill="white" stroke="#FDDCD8" stroke-width="2" stroke-miterlimit="10"/>
<path d="M159.169 305.264C159.054 305.027 159.006 304.764 159.03 304.502C159.04 304.445 159.056 304.39 159.077 304.337C159.504 303.495 160.171 302.799 160.994 302.337C161.816 301.875 162.758 301.668 163.698 301.741C165.824 302.065 166.38 303.787 166.069 305.859C165.758 307.932 164.771 309.409 162.262 309.031C162.11 309.009 161.963 308.957 161.831 308.879C160.553 308.064 159.918 306.714 159.169 305.264Z" fill="white" stroke="#FDDCD8" stroke-width="2" stroke-miterlimit="10"/>
<path d="M173.433 297.027C172.837 296.219 174.38 294.292 177.836 294.809C179.749 295.107 181.55 295.875 181.113 298.802C180.789 301.126 177.611 303.244 176.558 303.105C176.428 303.085 176.306 303.027 176.207 302.94C175.328 302.228 174.622 301.326 174.141 300.302C173.661 299.278 173.419 298.158 173.433 297.027Z" fill="white" stroke="#FDDCD8" stroke-width="2" stroke-miterlimit="10"/>
<path d="M175.246 305.78C176.245 305.396 177.328 305.282 178.385 305.449C180.265 305.74 183.185 307.15 182.828 309.547C182.47 311.944 179.338 313.037 177.359 312.752C175.379 312.467 173.32 308.845 173.472 307.832C173.515 307.597 173.581 307.366 173.671 307.144C173.828 306.822 174.049 306.536 174.32 306.301C174.591 306.067 174.906 305.89 175.246 305.78Z" fill="white" stroke="#FDDCD8" stroke-width="2" stroke-miterlimit="10"/>
<path d="M179.112 298.801C180.112 298.318 181.225 298.121 182.33 298.232C183.893 298.47 185.33 299.589 185.058 301.357C184.93 302.181 184.488 302.924 183.826 303.431C183.164 303.938 182.332 304.17 181.503 304.079C180.925 304.045 180.374 303.822 179.936 303.443C179.498 303.065 179.197 302.553 179.079 301.986C178.93 300.929 178.941 299.855 179.112 298.801Z" fill="white" stroke="#FDDCD8" stroke-width="2" stroke-miterlimit="10"/>
<path d="M171.691 310.051C172.221 310.041 172.75 310.078 173.273 310.163C175.69 310.527 178.305 311.752 177.981 314.169C177.657 316.308 175.359 318.314 173.492 318.023C172.671 317.904 170.883 315.096 171.492 311.11C171.545 310.752 171.591 310.441 171.691 310.051Z" fill="white" stroke="#FDDCD8" stroke-width="2" stroke-miterlimit="10"/>
<path d="M163.201 298.384C163.214 298.088 163.241 297.797 163.28 297.51C163.817 293.981 168.313 292.345 170.1 292.61C171.888 292.875 173.603 294.02 173.325 296.007C173.047 297.993 171.153 303.012 167.3 302.429L167.081 302.383C165.839 301.997 164.785 301.164 164.121 300.046C163.797 299.509 163.585 298.9 163.201 298.384Z" fill="white" stroke="#FDDCD8" stroke-width="2" stroke-miterlimit="10"/>
<path d="M156.99 299.697C156.54 299.074 157.461 298.286 158.083 297.836C160.241 296.3 163.009 296.882 164.055 298.366C164.449 299.005 164.576 299.774 164.411 300.506C164.245 301.239 163.799 301.877 163.168 302.285C161.407 303.543 158.096 302.352 157.421 301.411C157.297 301.233 157.188 301.045 157.096 300.849C156.929 300.488 156.892 300.081 156.99 299.697Z" fill="white" stroke="#FDDCD8" stroke-width="2" stroke-miterlimit="10"/>
<path d="M163.433 311.899C164.013 311.457 164.679 311.14 165.388 310.969C166.097 310.798 166.834 310.777 167.552 310.906C170.108 311.29 173.167 313.568 172.809 315.938C172.452 318.309 169.115 319.792 166.837 319.448C163.407 318.905 162.732 314.627 163.01 312.84C163.034 312.486 163.184 312.152 163.433 311.899Z" fill="white" stroke="#FDDCD8" stroke-width="2" stroke-miterlimit="10"/>
<path d="M157.17 312.428C157.316 311.448 158.898 311.507 159.838 311.693C163.209 312.203 165.241 315.163 164.884 317.533C164.662 318.469 164.089 319.285 163.283 319.81C162.477 320.335 161.499 320.53 160.553 320.354C157.799 319.93 155.786 315.851 156.031 314.401C156.078 314.129 156.147 313.861 156.236 313.6C156.404 313.114 156.733 312.7 157.17 312.428Z" fill="white" stroke="#FDDCD8" stroke-width="2" stroke-miterlimit="10"/>
</svg>
