<svg width="67" height="165" viewBox="0 0 67 165" fill="none" xmlns="http://www.w3.org/2000/svg">
<path fill-rule="evenodd" clip-rule="evenodd" d="M50.0033 165C50.4181 165 50.9413 164.411 51 164C51 161 51 154.5 52.1067 142.9C66.218 138.564 66.2099 121.069 66.2077 120.889C66.2035 120.644 66.0946 120.409 65.9019 120.254C65.7091 120.097 65.4577 120.032 65.2169 120.08C57.116 121.614 53.3929 127.821 51.6896 132.665C51.015 123.799 49.3936 114.271 46.0584 105.73C53.3865 102.782 52.0586 91.8737 52.0414 91.7584C52.0079 91.5175 51.8717 91.3017 51.6706 91.1676C51.4695 91.0315 51.2181 90.9958 50.9793 91.0671C45.7336 92.6006 44.0116 96.9289 43.4603 99.9998C41.5957 96.43 39.3605 93.1324 36.6642 90.2685C45.5299 84.4276 40.5482 74.7049 40.4938 74.6046C40.2822 74.2024 39.7794 74.0516 39.3855 74.2485C33.587 77.1479 33.0796 83.7052 33.2389 87.101C32.049 86.129 30.813 85.203 29.4764 84.3881C25.5756 82.0082 22.0496 80.2904 18.901 79.113C23.0301 73.507 25.9025 65.4458 27.8466 58.0963C28.098 58.1026 28.3536 58.1151 28.6007 58.1151C44.4282 58.1151 49.0914 45.047 49.1375 44.9129C49.2192 44.6741 49.1899 44.4101 49.0558 44.1985C48.9196 43.9848 48.6976 43.8424 48.4462 43.8131C38.4344 42.6524 32.5726 47.188 29.5559 50.8183C30.2409 47.4747 30.6997 44.6508 30.9804 42.7319C31.4664 42.7884 31.9713 42.8659 32.4113 42.8659C38.5348 42.8659 40.2295 37.7857 40.2483 37.7291C40.3258 37.484 40.2881 37.2159 40.1415 37.0043C39.9948 36.7906 39.756 36.6586 39.5004 36.644C36.3119 36.4638 34.1415 36.9498 32.6438 37.572C32.715 37.3772 32.7967 37.2075 32.8637 37.0043C33.0376 36.4806 33.1884 35.9086 33.333 35.3304C33.377 35.1565 33.4314 35.0036 33.4734 34.8235C33.6535 34.0462 33.8085 33.2292 33.9342 32.3745C34.3155 29.9736 34.4622 27.311 34.37 24.4618C34.1102 17.0082 32.1284 10.5071 29.3211 7.90337C28.3889 7.04024 27.4106 6.65061 26.3819 6.65898C23.8449 6.71345 21.729 9.76579 20.5684 14.6784C19.3868 11.4773 18.9301 8.68675 18.7625 7.18455C18.9343 7.20969 19.0998 7.25788 19.2758 7.25788C19.7869 7.25788 20.3086 7.14685 20.8051 6.9164C22.6172 6.07006 23.4029 3.90596 22.5586 2.09174C21.7143 0.281711 19.5565 -0.508108 17.736 0.342473C15.9239 1.18882 15.1382 3.35291 15.9825 5.16713C16.2256 5.68458 16.5963 6.08893 17.0133 6.42412C17.0908 7.60566 17.4867 11.4645 19.2863 15.9875C17.4825 13.4841 15.4924 11.4939 14.602 10.6538C14.9079 9.90174 14.9288 9.03862 14.5601 8.24671C14.2186 7.51765 13.6111 6.96252 12.8548 6.68809C12.0964 6.41366 11.2815 6.44928 10.5441 6.79076C9.81501 7.13223 9.25989 7.73765 8.98546 8.49604C8.70893 9.25443 8.74454 10.0756 9.08602 10.8068C9.59719 11.9024 10.6887 12.5477 11.8262 12.5477C12.2557 12.5477 12.6893 12.4555 13.1041 12.2649C13.2717 12.1852 13.3869 12.0512 13.5315 11.9464C14.3066 12.6859 15.8339 14.2132 17.3254 16.1384C12.8422 13.9073 9.16982 13.5847 7.52122 15.4764C6.82987 16.2411 6.51355 17.2718 6.5785 18.5455C6.77751 22.3667 10.496 28.0526 16.0518 33.0365C18.1761 34.9345 20.315 36.5267 22.3931 37.7648C25.0118 39.3758 27.5047 40.3876 29.5683 40.7438C29.2415 43.197 28.0097 51.537 25.4559 60.342C24.1843 54.8572 20.1599 44.9463 7.49397 43.5449C7.27191 43.5198 7.03519 43.591 6.8613 43.7398C6.68533 43.8906 6.57849 44.1043 6.56801 44.3368C6.56173 44.5086 6.04636 61.2369 23.4847 66.3779C21.8171 70.9344 19.7745 75.2602 17.2668 78.5435C9.2077 75.8892 3.88004 76.9409 1.41035 79.2872C-0.010004 80.6363 -0.389218 82.3982 0.417332 83.8814C1.41454 85.7166 4.39982 87.2144 9.83217 85.9177C12.8824 85.1887 15.5326 83.2215 17.8264 80.4919C19.98 81.2691 22.3808 82.3522 24.9973 83.7579C23.1098 83.7977 20.887 84.2188 18.8593 85.6748C18.654 85.8193 18.5262 86.0497 18.5136 86.2991C18.4969 86.5484 18.5911 86.7914 18.7734 86.9632C18.809 86.9967 21.103 89.0812 24.8572 89.0812C26.573 89.0812 28.6051 88.6077 30.851 87.3361C39.2394 93.5122 44.139 103.517 46.9294 114.296C43.4162 109.383 36.3331 103.603 22.5275 104.538C22.2468 104.557 21.9933 104.716 21.8571 104.961C21.7168 105.206 21.7147 105.506 21.8446 105.755C22.2573 106.549 32.0011 124.878 49.0535 125.029C51.5486 142.658 49.0018 147.257 49 161.5C48.9998 162.867 49 165 49 165H50.0033ZM52.0794 141.158C62.6839 137.57 64.2718 125.566 64.498 121.946C54.1636 124.579 52.2972 135.768 52.004 138.326C52.0375 139.285 52.0626 140.228 52.0794 141.158ZM18.4346 1.85102C17.4562 2.30774 17.0331 3.47673 17.4898 4.45715C17.7119 4.9306 18.1057 5.29095 18.5959 5.46902C19.0903 5.64709 19.6183 5.62405 20.0917 5.39989C21.0742 4.94317 21.4974 3.77418 21.0407 2.79376C20.7097 2.08355 19.9995 1.66666 19.2621 1.66666C18.9855 1.66666 18.7027 1.72532 18.4346 1.85102ZM10.5932 10.0949C10.9075 10.7653 11.7014 11.0648 12.3928 10.7464C13.0652 10.43 13.3586 9.62561 13.0422 8.95314C12.8893 8.62423 12.619 8.37702 12.2796 8.25342C12.1288 8.19895 11.9738 8.17171 11.8167 8.17171C11.6239 8.17171 11.4291 8.21362 11.2489 8.29951H11.2447C10.9179 8.45246 10.6707 8.72271 10.5471 9.06209C10.4235 9.40146 10.4403 9.76808 10.5932 10.0949ZM31.2075 41.0936C35.303 41.5524 37.2995 39.5811 38.1312 38.2696C33.3946 38.2738 31.6767 39.9267 31.2975 40.3751C31.2813 40.5195 31.2557 40.7184 31.2235 40.9692L31.2075 41.0936ZM26.4939 8.3245C26.4751 8.3245 26.452 8.3245 26.429 8.3266C24.2628 8.37272 22.2558 12.7006 21.5624 18.6713C23.2048 19.8298 24.644 20.959 25.8989 22.107C28.5826 24.4911 30.8661 27.1077 32.5378 29.6614C32.6782 28.0274 32.7578 26.3325 32.697 24.5183C32.4561 17.5946 30.6419 11.4083 28.1845 9.12686C27.6126 8.59265 27.0449 8.3245 26.4939 8.3245ZM17.1611 31.7858C19.2077 33.6106 21.2565 35.1399 23.2551 36.3298C25.79 37.8884 28.1746 38.8776 30.0496 39.1583C30.1711 38.9613 30.2905 38.7581 30.4057 38.5361C30.4359 38.4771 30.4666 38.4196 30.4974 38.3619C30.5562 38.2517 30.6153 38.141 30.6717 38.0186C30.8268 37.6771 30.9692 37.2959 31.1096 36.9104C31.1353 36.8408 31.1616 36.774 31.1877 36.7075C31.2339 36.5898 31.2797 36.4733 31.3212 36.3448C31.5014 35.7917 31.6647 35.1988 31.8114 34.5745C31.8345 34.4769 31.8553 34.3761 31.8761 34.2751C31.8892 34.2113 31.9024 34.1475 31.9161 34.0843C32.0335 33.5375 32.1403 32.9698 32.2325 32.379C30.6488 29.4122 28.013 26.2156 24.7827 23.3455C23.4607 22.1346 21.965 20.9551 20.1947 19.7317C16.5242 17.2534 13.034 15.8644 10.7986 15.8644C9.88944 15.8644 9.18551 16.0969 8.76443 16.5788C8.37058 17.0124 8.19879 17.6389 8.24069 18.4517C8.41659 21.7993 11.9991 27.1581 17.1611 31.7858ZM47.1439 45.3591C34.0902 44.3916 29.1419 54.0846 28.5239 55.4191L28.5188 55.4406C28.441 55.7683 28.365 56.0882 28.2809 56.4182C40.8316 56.5775 45.778 48.292 47.1439 45.3591ZM24.3611 63.8702C24.2544 62.1733 22.8884 47.5273 8.23866 45.3151C8.36684 48.7549 9.87452 60.6901 24.0427 64.8087C24.0721 64.7222 24.1015 64.6359 24.1309 64.5498L24.1343 64.5397C24.2105 64.3167 24.2863 64.0945 24.3611 63.8702ZM1.88042 83.0786C2.55509 84.3125 4.94543 85.3683 9.43699 84.2874C11.9402 83.6883 14.1632 82.1212 16.1304 79.9152C13.1994 79.0081 10.74 78.6499 8.72884 78.6499C5.6283 78.6499 3.59828 79.4983 2.55918 80.4872C1.69818 81.3063 1.44467 82.2741 1.88042 83.0786ZM28.6877 85.8628C28.2163 85.7182 24.3174 84.6309 20.8565 86.3949C22.2831 87.2182 25.2666 88.2384 29.2868 86.2692C29.1979 86.2114 29.1118 86.1509 29.0257 86.0903C28.915 86.0125 28.8043 85.9346 28.6877 85.8628ZM39.3756 76.1654C34.0503 79.5253 34.8589 87.2559 35.0579 88.6742C35.143 88.7541 35.2249 88.8372 35.307 88.9205C35.3322 88.946 35.3573 88.9716 35.3827 88.9971C35.409 89.0236 35.4355 89.0501 35.4622 89.0764C42.1619 84.8948 40.2953 78.407 39.3756 76.1654ZM50.4622 93.0086C44.8248 95.3297 44.8289 101.734 44.8771 102.92C44.9484 103.078 45.0219 103.236 45.0954 103.394C45.2098 103.639 45.3243 103.885 45.4302 104.135C50.326 102.124 50.5795 95.577 50.4622 93.0086ZM48.2897 120.431C47.372 117.486 42.5077 105.48 23.9821 106.125C26.3934 110.103 35.2004 123.004 48.7883 123.322C48.6353 122.359 48.4698 121.395 48.2897 120.431Z" fill="#F5523D" fill-opacity="0.5"/>
</svg>
