<svg width="64" height="145" viewBox="0 0 64 145" fill="none" xmlns="http://www.w3.org/2000/svg">
<path fill-rule="evenodd" clip-rule="evenodd" d="M3.83597 16.4602C5.94851 16.4602 7.66828 18.188 7.66828 20.3103C7.66828 20.4644 7.59855 20.5952 7.57996 20.7446C9.73664 21.7836 16.4066 25.5403 21.8724 34.1835C18.5839 22.6381 14.6259 14.0527 13.3385 11.412C12.4971 11.8603 11.5536 12.1381 10.5358 12.1381C7.20541 12.1381 4.49581 9.41336 4.49581 6.06775C4.49581 2.72196 7.20565 -0.00018573 10.5358 -0.00018573C13.8684 -0.00252098 16.578 2.71987 16.578 6.06536C16.578 7.71139 15.918 9.201 14.8559 10.2937C15.8181 12.2479 18.916 18.8295 21.9394 28.0731C22.6226 20.6531 25.437 15.2176 26.4549 13.4968C25.8228 12.6259 25.437 11.5636 25.437 10.4055C25.437 7.49866 27.7912 5.13353 30.6846 5.13353C33.5757 5.13353 35.9299 7.49866 35.9299 10.4055C35.9299 13.3123 33.5757 15.6775 30.6846 15.6775C29.6365 15.6775 28.6627 15.3599 27.8424 14.8252C26.5153 17.1881 22.9597 24.4633 23.6894 33.7654C23.6894 33.7771 23.6777 33.7841 23.6801 33.7958C24.3842 36.28 25.0489 38.888 25.6555 41.6054C25.6718 41.6451 25.6903 41.6825 25.7066 41.7222C25.7229 41.7595 25.695 41.7969 25.7043 41.8342C26.2621 44.3488 26.7733 46.9288 27.1917 49.5949C28.7859 43.8139 31.4911 39.3149 32.5903 37.664C31.0588 36.3075 30.0734 34.344 30.0734 32.1352C30.0734 28.0517 33.3805 24.729 37.443 24.729C41.5055 24.729 44.8126 28.0515 44.8126 32.1352C44.8126 36.2165 41.5055 39.5391 37.443 39.5391C36.2438 39.5391 35.1283 39.2239 34.1267 38.7102C32.7927 40.7345 28.6862 47.524 27.9493 55.3946C28.2933 58.689 28.4931 62.0489 28.5024 65.4415C29.0114 67.23 29.5064 69.0862 29.9875 71.0287C31.4469 63.4432 36.2672 49.3803 52.2445 38.2809C52.521 38.0894 52.8836 38.0614 53.1834 38.2132C53.4878 38.3649 53.683 38.6708 53.6946 39.0093C53.7063 39.3012 54.4755 68.2086 32.8667 84.9229C33.9427 91.2126 34.8328 98.1119 35.451 105.672C38.6884 91.7129 45.9929 74.3183 62.3956 62.1496C62.6698 61.9488 63.0324 61.9091 63.3368 62.0562C63.6436 62.201 63.8481 62.5021 63.869 62.8454C64.0085 65.2222 66.8902 120.982 36.2807 139.83C36.4318 141.574 36.6412 142.37 36.6412 142.809C36.6412 143.247 36.6412 143.247 36.6412 143.247L36.6412 145H35.563C35.0517 145 34.8964 144.637 34.8964 144.123V142.809C34.8894 142.606 34.2848 134.045 31.7052 122.906C29.086 121.68 16.7922 115.369 9.08527 101.575C1.30216 87.6476 1.21176 75.5816 1.21176 75.0748C1.21176 74.7456 1.38606 74.4421 1.66495 74.274C1.94615 74.1082 2.29475 74.1035 2.58294 74.26C18.6346 83.1252 27.1126 100.328 31.5771 115.273C31.6724 115.525 31.7863 115.782 31.8746 116.034C31.9025 116.111 31.856 116.181 31.863 116.261C32.3324 117.888 32.7577 119.48 33.1365 121.033C33.3061 118.628 33.6083 115.756 34.1126 112.562C34.1079 112.536 34.0847 112.522 34.0823 112.497C33.5548 103.307 32.6159 95.009 31.4097 87.5424C28.9486 85.9198 15.8786 76.4753 11.8901 56.7652C8.99269 42.4539 9.68664 30.1211 9.6939 29.9921C9.71482 29.6232 9.95189 29.3033 10.2982 29.1749C10.6491 29.0418 11.0303 29.1375 11.2859 29.406C11.8111 29.9571 19.5848 38.3669 26.35 58.4834C25.9177 52.8168 25.0323 47.3277 23.8958 42.1934C18.6226 29.158 9.47545 23.7882 6.90468 22.4947C6.20978 23.48 5.12217 24.1641 3.83464 24.1641C1.71978 24.1641 1.88217e-05 22.4364 1.88217e-05 20.3117C-0.00230504 18.1871 1.71744 16.4593 3.8323 16.4593L3.83597 16.4602ZM6.34844 6.06551C6.34844 3.74473 8.22863 1.85584 10.5387 1.85584C12.8488 1.85584 14.7289 3.74473 14.7289 6.06551C14.7289 8.38862 12.8488 10.2775 10.5387 10.2775C8.22863 10.2775 6.34844 8.38862 6.34844 6.06551ZM34.0855 10.4085C34.0855 12.2879 32.5633 13.8196 30.6901 13.8196C28.817 13.8196 27.2925 12.2903 27.2948 10.4085C27.2948 8.52896 28.817 6.99733 30.6901 6.99733C32.5633 6.99733 34.0855 8.52663 34.0855 10.4085ZM42.9676 32.1409C42.9676 35.1971 40.4903 37.6861 37.4482 37.6861C34.4061 37.6861 31.9286 35.1971 31.9286 32.1409C31.9286 29.0847 34.406 26.5958 37.4482 26.5958C40.4902 26.5958 42.9676 29.0824 42.9676 32.1409ZM35.1267 130.766C37.1766 121.006 42.4126 99.8723 51.9849 84.0874C52.2522 83.6438 52.8239 83.5037 53.2561 83.7768C53.6931 84.043 53.8302 84.615 53.5652 85.054C41.054 105.689 36.0432 135.689 35.9268 136.386L35.9262 136.389C35.9843 136.887 36.0331 137.319 36.0796 137.765C61.9967 120.893 62.318 74.4075 62.0877 64.7365C32.8449 87.7364 34.7761 128.207 34.7993 128.62C34.8016 128.659 34.7667 128.685 34.7644 128.722C34.8898 129.413 35.0199 130.11 35.1267 130.766ZM9.8715 86.4298C10.0226 86.5858 24.7521 102.141 29.8974 116.053C30.3436 117.571 30.7648 119.07 31.132 120.527C27.0953 118.368 17.118 112.153 10.6991 100.665C4.80752 90.121 3.46196 80.4879 3.15519 76.7336C13.1646 82.7662 19.9948 92.2435 24.6637 102.155C18.6191 92.9649 11.6377 85.5916 11.2078 85.1433C10.8546 84.7768 10.2666 84.7628 9.89939 85.1153C9.5322 85.4702 9.51825 86.0586 9.8715 86.4298ZM32.5119 82.8292C49.575 69.0305 51.6199 47.2213 51.834 40.8707C32.0568 55.4888 31.2387 74.5993 31.2084 76.2944C31.6616 78.3981 32.1005 80.5618 32.5119 82.8292ZM13.7086 56.3943C11.6193 46.0815 11.4264 36.8243 11.4752 32.5703C15.3215 37.6974 25.5008 53.6628 30.9716 84.9188C26.895 81.7527 16.9877 72.6 13.7086 56.3943ZM5.68596 20.9545C5.41633 21.7343 4.70058 22.3016 3.83606 22.3016C2.74147 22.3016 1.85371 21.4097 1.85371 20.3101C1.85371 19.2151 2.7415 18.3208 3.83608 18.3208C4.92603 18.3208 5.81612 19.2127 5.81612 20.3101C5.81612 20.5342 5.758 20.742 5.68828 20.9451L5.68596 20.9475V20.9545Z" fill="#F5523D" fill-opacity="0.5"/>
</svg>
