<svg width="210" height="70" viewBox="0 0 210 70" fill="none" xmlns="http://www.w3.org/2000/svg">
<path fill-rule="evenodd" clip-rule="evenodd" d="M125.601 17.1579C109.612 11.1251 92.3944 8.79802 68.5991 8.79802C34.7656 8.79802 1.78559 20.7157 0.750265 21.093C0.680344 21.1182 0.616018 21.1462 0.554485 21.1825L0.551678 21.1853C0.400646 21.272 0.27479 21.3951 0.185291 21.5322C0.101384 21.6552 0.045454 21.7951 0.0174802 21.9461C0.00349616 22.0188 -0.00209753 22.0943 0.000699137 22.1698V23.1613H2.23223C6.83864 22.7389 26.7356 21.1084 50.2481 22.0089C64.0754 22.5907 75.4475 32.2369 86.4365 41.6286C88.0811 43.0326 89.7144 44.431 91.345 45.7847C101.363 54.1138 109.958 55.1484 113.611 55.1484C114.713 55.1484 115.365 55.0533 115.465 55.0366C115.829 54.9806 116.136 54.7485 116.296 54.4185C116.455 54.0884 116.441 53.6997 116.262 53.3836C107.273 37.6289 94.3437 29.4874 84.2553 25.2924C93.9048 26.9062 103.257 29.1996 111.608 32.3908C120.656 47.9135 129.69 56.1446 132.263 58.3119C131.967 58.9803 131.788 59.7131 131.788 60.4906C131.788 63.4749 134.216 65.9053 137.2 65.9053C140.184 65.9053 142.614 63.4749 142.614 60.4906C142.614 57.5064 140.184 55.0787 137.2 55.0787C135.804 55.0787 134.56 55.6437 133.597 56.5135C131.231 54.4886 123.286 47.0882 115.102 33.8144C119.725 35.7974 124.005 38.0712 127.752 40.717C131.083 43.0692 134.442 44.971 137.798 46.5289C153.819 60.7929 169.419 62.8957 173.886 63.2065C173.883 63.2904 173.86 63.3715 173.86 63.4582C173.86 67.0662 176.794 70 180.402 70C184.01 70 186.941 67.0661 186.941 63.4582C186.941 59.8502 184.01 56.9192 180.402 56.9192C177.667 56.9192 175.326 58.6113 174.35 60.9998C171.128 60.7844 158.52 59.2713 144.757 49.2561C177.667 59.8391 208.337 38.315 208.695 38.0544C209.14 37.7355 209.288 37.1398 209.039 36.6504C208.793 36.1581 208.22 35.926 207.705 36.0882C207.386 36.1917 175.38 46.193 152.345 31.0986C149.419 29.1799 146.553 27.4263 143.711 25.7929C145.26 25.8936 146.765 25.9496 148.208 25.9496C163.593 25.9496 172.873 20.6747 175.718 18.7811C176.823 20.1599 178.501 21.0633 180.402 21.0633C183.725 21.0633 186.43 18.356 186.43 15.0333C186.43 11.7106 183.725 9.00604 180.402 9.00604C177.08 9.00604 174.375 11.7106 174.375 15.0333C174.375 15.6542 174.496 16.2415 174.672 16.8065C171.76 18.7279 159.303 25.8709 138.737 23.0575C135.697 21.4688 132.663 20.0368 129.603 18.7475C141.073 16.566 147.841 10.7349 150.199 8.29262C151.136 9.43656 152.501 10.2113 154.092 10.2113C156.909 10.2113 159.199 7.92066 159.199 5.10424C159.199 2.2906 156.909 0 154.092 0C151.279 0 148.988 2.2906 148.988 5.10424C148.988 5.46503 149.122 5.78108 149.195 6.12231C147.797 7.68575 140.019 15.6765 125.607 17.1615L125.601 17.1579ZM140.38 60.4892C140.38 58.7328 138.95 57.3036 137.194 57.3036C135.438 57.3036 134.008 58.7328 134.008 60.4892C134.008 62.2456 135.438 63.6748 137.194 63.6748C138.95 63.6748 140.38 62.2456 140.38 60.4892ZM184.713 63.4594C184.713 61.0793 182.777 59.1467 180.4 59.1467C178.023 59.1467 176.087 61.0793 176.087 63.4594C176.087 65.8368 178.023 67.7722 180.4 67.7722C182.78 67.7722 184.713 65.8368 184.713 63.4594ZM184.201 15.032C184.201 12.9372 182.495 11.2311 180.4 11.2311C178.305 11.2311 176.599 12.9344 176.599 15.032C176.599 17.1297 178.305 18.8357 180.4 18.8357C182.495 18.8357 184.201 17.1297 184.201 15.032ZM92.7603 44.0658C101.996 51.7488 109.992 52.834 113.384 52.9011C99.1455 29.4863 75.8642 24.326 70.058 23.3806C67.731 23.1401 65.4125 22.9387 63.1022 22.7569C72.0944 26.5352 80.0877 33.27 87.877 39.9293L87.9779 40.0155L87.9785 40.0161C89.5831 41.3879 91.1744 42.7483 92.7603 44.0658ZM201.267 39.9158C190.186 42.0639 168.306 44.2197 151.122 32.9572L151.123 32.9569C126.1 16.5589 105.275 11.0239 68.605 11.0211C45.5063 11.0211 22.7929 16.6486 10.621 20.2481C17.0256 19.8286 26.1688 19.3923 36.7154 19.3923C59.8505 19.3923 89.7575 21.5066 112.596 30.367C112.607 30.3726 112.616 30.3782 112.63 30.381C118.668 32.7251 124.242 35.5163 129.03 38.8977C157.7 59.133 188.468 46.7849 201.267 39.9158ZM156.968 5.10042C156.968 3.51464 155.676 2.22249 154.087 2.22249C152.501 2.22249 151.209 3.51464 151.209 5.10042C151.209 6.689 152.501 7.98115 154.087 7.98115C155.675 7.98115 156.968 6.68907 156.968 5.10042Z" fill="#F5523D" fill-opacity="0.5"/>
</svg>
