<svg width="30" height="30" viewBox="0 0 30 30" fill="none" xmlns="http://www.w3.org/2000/svg">
<g clip-path="url(#clip0_287_23776)">
<path d="M0.439453 12.4168C2.25879 12.4168 2.25879 13.3562 4.07812 13.3562C5.89746 13.3562 5.89746 12.4168 7.7168 12.4168C9.53619 12.4168 9.53619 13.3562 11.3555 13.3562C13.1754 13.3562 13.1754 12.4168 14.9952 12.4168C16.8157 12.4168 16.8157 13.3562 18.6362 13.3562C20.4561 13.3562 20.4561 12.4168 22.2759 12.4168C24.0971 12.4168 24.0971 13.3562 25.9182 13.3562C27.7394 13.3562 27.7394 12.4168 29.5605 12.4168" stroke="#044222" stroke-miterlimit="10" stroke-linecap="round" stroke-linejoin="round"/>
<path d="M0.439453 22.75H2.3182" stroke="#044222" stroke-miterlimit="10" stroke-linecap="round" stroke-linejoin="round"/>
<path d="M3.1167 14.7651L3.25756 13.3563" stroke="#044222" stroke-miterlimit="10" stroke-linecap="round" stroke-linejoin="round"/>
<path d="M2.31836 22.75L2.92896 16.6441" stroke="#044222" stroke-miterlimit="10" stroke-linecap="round" stroke-linejoin="round"/>
<path d="M23.9242 12.8865L27.6818 22.7501L26.2727 27.447H29.5605V10.0683L15 2.55323L0.439453 10.0683V27.447H3.72732L2.31826 22.7501L6.07582 12.8865" stroke="#044222" stroke-miterlimit="10" stroke-linecap="round" stroke-linejoin="round"/>
<path d="M29.5606 22.75H27.6819" stroke="#044222" stroke-miterlimit="10" stroke-linecap="round" stroke-linejoin="round"/>
<path d="M27.6818 22.75L26.7424 13.3561" stroke="#044222" stroke-miterlimit="10" stroke-linecap="round" stroke-linejoin="round"/>
<path d="M25.3335 10.0684H29.5607" stroke="#044222" stroke-miterlimit="10" stroke-linecap="round" stroke-linejoin="round"/>
<path d="M0.439453 10.0684H23.4546" stroke="#044222" stroke-miterlimit="10" stroke-linecap="round" stroke-linejoin="round"/>
</g>
<defs>
<clipPath id="clip0_287_23776">
<rect width="30" height="30" fill="white"/>
</clipPath>
</defs>
</svg>
