<svg width="30" height="30" viewBox="0 0 30 30" fill="none" xmlns="http://www.w3.org/2000/svg">
<g clip-path="url(#clip0_287_23770)">
<path d="M23.9351 14.0465C24.1446 13.741 24.19 13.3521 24.0564 13.0065C23.6648 11.993 22.6717 11.3121 21.5853 11.3121H20.0514V9.93886C20.5668 9.75664 20.9372 9.26478 20.9372 8.68772V8.03916C20.9372 7.6652 20.6329 7.36091 20.2589 7.36091H18.9618C18.5878 7.36091 18.2836 7.6652 18.2836 8.03916V8.68772C18.2836 9.26478 18.654 9.75664 19.1694 9.93886V11.3121H16.3791V8.13736C16.4324 7.51749 15.8547 6.89187 15.4054 6.47997V4.83553C15.4054 4.59192 15.208 4.39453 14.9644 4.39453C14.7208 4.39453 14.5234 4.59192 14.5234 4.83553V6.47997C14.0749 6.91027 13.5334 7.42353 13.5497 8.13736V11.3121H10.7594V9.93886C11.2748 9.75664 11.6452 9.26478 11.6452 8.68772V8.03916C11.6452 7.6652 11.341 7.36091 10.9669 7.36091H9.66982C9.29586 7.36091 8.99157 7.6652 8.99157 8.03916V8.68772C8.99157 9.26478 9.36195 9.75664 9.87739 9.93886V11.3121H8.36735C7.28092 11.3121 6.28785 11.993 5.8963 13.0065C5.61765 13.6629 6.1482 14.5444 6.94405 14.5345H12.5937V15.545C12.5937 16.26 13.1754 16.8417 13.8904 16.8417H14.5354V22.7497L12.4674 24.414C11.9989 24.7279 12.1948 25.6012 12.8543 25.6055L17.0991 25.6032C17.6754 25.6175 18.0095 24.811 17.4845 24.4111L15.4174 22.7553V16.8417H16.0623C16.7773 16.8417 17.359 16.26 17.359 15.545V14.0935C17.359 13.8499 17.1616 13.6525 16.918 13.6525H6.94411C6.83622 13.6285 6.68839 13.616 6.71909 13.3244C6.98027 12.6483 7.64271 12.1941 8.36741 12.1941H21.5853C22.31 12.1941 22.9725 12.6483 23.2336 13.3244C23.2501 13.4337 23.2918 13.576 23.0086 13.6525H19.0218C18.7782 13.6525 18.5808 13.8499 18.5808 14.0935C18.5808 14.3371 18.7782 14.5345 19.0218 14.5345H23.0087C23.3792 14.5345 23.7255 14.3521 23.9351 14.0465ZM19.1656 8.24284H20.0552V8.68766C20.0552 8.93292 19.8557 9.13242 19.6104 9.13242C19.3652 9.13242 19.1657 8.93286 19.1657 8.68766V8.24284H19.1656ZM9.87356 8.24284H10.7632V8.68766C10.7632 8.93292 10.5636 9.13242 10.3184 9.13242C10.0731 9.13242 9.87356 8.93286 9.87356 8.68766V8.24284ZM13.49 24.7232L14.9731 23.5296L16.4613 24.7215L13.49 24.7232ZM16.477 14.5345V15.545C16.477 15.7737 16.2909 15.9598 16.0623 15.9598H13.8904C13.6617 15.9598 13.4757 15.7737 13.4757 15.545V14.5345H16.477ZM14.4317 11.3121V8.13736C14.7678 6.87987 15.3408 7.36026 15.4972 8.13736V11.3121H14.4317Z" fill="#044222"/>
<path d="M7.12321 19.974C7.10357 19.921 7.08023 19.87 7.05536 19.8201C7.91977 19.936 8.7529 19.3671 8.76149 18.4643C8.76149 17.7166 8.15326 17.1084 7.40568 17.1084H2.7116V12.4383C2.7116 12.1947 2.51415 11.9973 2.2706 11.9973C2.02706 11.9973 1.82961 12.1947 1.82961 12.4383V17.1683C1.82961 17.6216 2.1984 17.9904 2.65168 17.9904H7.40563C7.66687 17.9904 7.87943 18.2029 7.87943 18.4642C7.87943 18.7255 7.66687 18.938 7.40563 18.938H2.65168C1.67585 18.9381 0.881993 18.1442 0.881993 17.1684V9.45596C0.881993 9.19471 1.09455 8.98209 1.3558 8.98209C1.61705 8.98209 1.82961 9.19465 1.82961 9.45596V10.3618C1.82961 10.6054 2.02706 10.8028 2.2706 10.8028C2.51415 10.8028 2.7116 10.6054 2.7116 10.3618V9.45596C2.7116 8.70832 2.10338 8.1001 1.3558 8.1001C0.608223 8.1001 0 8.70832 0 9.45596V17.1684C0 18.5534 1.06756 19.6931 2.42289 19.8096C2.38785 19.8791 2.35704 19.9514 2.33205 20.0271L0.677959 25.0259C0.601461 25.2572 0.72688 25.5066 0.95808 25.5831C1.18934 25.6597 1.43877 25.5342 1.51526 25.303L3.16941 20.3041C3.2652 20.0146 3.53444 19.8201 3.83949 19.8201H5.63447C5.92823 19.8201 6.19418 20.0051 6.29626 20.2805L8.16338 25.3177C8.26386 25.4758 8.41022 25.6775 8.73015 25.578C8.95852 25.4934 9.075 25.2396 8.99033 25.0112L7.12321 19.974Z" fill="#044222"/>
<path d="M29.9994 17.1684V9.45596C29.9994 8.70832 29.3912 8.1001 28.6436 8.1001C27.896 8.1001 27.2878 8.70832 27.2878 9.45596V17.1084H22.5937C21.8462 17.1084 21.2379 17.7166 21.2379 18.4643C21.2278 19.3579 22.0898 19.933 22.944 19.8201C22.9191 19.87 22.8958 19.921 22.8762 19.974L21.009 25.0112C20.9244 25.2396 21.0409 25.4933 21.2693 25.578C21.4377 25.6355 21.7065 25.5934 21.8361 25.3177L23.7032 20.2806C23.8053 20.0051 24.0713 19.8201 24.365 19.8201H26.16C26.465 19.8201 26.7343 20.0146 26.8301 20.3042L28.4842 25.303C28.5607 25.5342 28.81 25.6597 29.0415 25.5831C29.2727 25.5066 29.3981 25.2572 29.3216 25.0259L27.6674 20.0271C27.6425 19.9516 27.6117 19.8792 27.5767 19.8097C28.8581 19.7281 30.0274 18.5295 29.9994 17.1684ZM29.1174 17.1684C29.1362 18.0606 28.3319 18.9553 27.3477 18.9381H22.5937C22.0088 18.9222 21.9616 18.0398 22.5937 17.9905H27.3477C27.801 17.9905 28.1698 17.6217 28.1698 17.1685V9.45596C28.1698 9.19471 28.3823 8.98209 28.6436 8.98209C28.9049 8.98209 29.1174 9.19465 29.1174 9.45596V17.1684Z" fill="#044222"/>
</g>
<defs>
<clipPath id="clip0_287_23770">
<rect width="30" height="30" fill="white"/>
</clipPath>
</defs>
</svg>
