<svg width="30" height="30" viewBox="0 0 30 30" fill="none" xmlns="http://www.w3.org/2000/svg">
<g clip-path="url(#clip0_244_53501)">
<path d="M28.5938 26.7188H26.7188V25.5309C27.0507 25.6908 27.4172 25.7812 27.7983 25.7812H29.1155L27.774 13.2623C28.2671 12.9244 28.5938 12.3605 28.5938 11.7188C28.5938 10.83 27.9718 10.0833 27.1397 9.89156C27.0094 9.32578 26.6194 8.86313 26.1052 8.62078C24.5874 4.29844 20.5322 1.40625 15.9376 1.40625H14.7432C14.4183 0.8475 13.8169 0.46875 13.1251 0.46875C12.2358 0.46875 11.4896 1.09078 11.2979 1.92281C11.0171 1.9875 10.763 2.11969 10.546 2.29547C10.3257 2.11828 10.073 1.98656 9.79646 1.92281C9.60475 1.09078 8.85803 0.46875 7.96881 0.46875C7.23709 0.46875 6.60709 0.893438 6.29865 1.50656C5.39678 0.83625 4.31162 0.46875 3.1674 0.46875H1.87506V1.76437C1.87506 2.3325 1.97865 2.90156 2.17178 3.43687C1.63553 3.66844 1.12506 3.96094 0.656309 4.3125L0.317871 4.56609L0.947402 5.61516C1.52725 6.58125 2.39443 7.31391 3.42522 7.72922C3.33568 7.94859 3.28131 8.18625 3.28131 8.4375C3.28131 8.62547 3.31318 8.81156 3.36803 8.98969C3.12287 9.23438 2.94053 9.54234 2.86037 9.89109C2.02834 10.0833 1.40631 10.83 1.40631 11.7188C1.40631 12.3605 1.73303 12.9244 2.22615 13.2623L0.88459 25.7812H2.20178C2.58287 25.7812 2.94943 25.6908 3.28131 25.5309V26.7188H1.40631C0.889277 26.7188 0.468809 27.1392 0.468809 27.6562V28.5938C0.468809 29.1108 0.889277 29.5312 1.40631 29.5312H7.96881C8.48584 29.5312 8.90631 29.1108 8.90631 28.5938V27.6562C8.90631 27.1392 8.48584 26.7188 7.96881 26.7188H6.09381V22.5502C6.62068 22.2727 7.07959 21.8658 7.42131 21.3534L7.52912 21.1917L6.93146 18.203C10.8971 16.9364 13.8966 13.7405 15.0001 9.83766C16.104 13.7405 19.103 16.9364 23.0687 18.203L22.471 21.1917L22.5788 21.3534C22.9205 21.8658 23.3794 22.2727 23.9063 22.5502V26.7188H22.0313C21.5143 26.7188 21.0938 27.1392 21.0938 27.6562V28.5938C21.0938 29.1108 21.5143 29.5312 22.0313 29.5312H28.5938C29.1108 29.5312 29.5313 29.1108 29.5313 28.5938V27.6562C29.5313 27.1392 29.1108 26.7188 28.5938 26.7188ZM17.3438 4.35047C17.9958 4.46953 18.6244 4.67062 19.2188 4.9425V6.52219C19.2188 8.92453 20.3537 11.1891 22.2577 12.6066C22.5104 13.0739 22.9538 13.4241 23.4849 13.5464C23.5491 13.8239 23.679 14.0747 23.851 14.2903L23.6227 15.4322C19.8483 14.1075 17.3438 10.5933 17.3438 6.52172V4.35047ZM24.2719 12.6562H23.9063C23.3893 12.6562 22.9688 12.2358 22.9688 11.7188C22.9688 11.2017 23.3893 10.7812 23.9063 10.7812H24.2719C24.0469 11.0306 23.9063 11.3573 23.9063 11.7188C23.9063 12.0802 24.0474 12.4069 24.2719 12.6562ZM23.4854 9.89156C22.8141 10.0462 22.2854 10.5656 22.104 11.2266C20.8749 9.99469 20.1563 8.30438 20.1563 6.52172V5.44266C21.7215 6.42516 22.9412 7.94109 23.5257 9.76594C23.5126 9.80812 23.4952 9.84797 23.4854 9.89156ZM24.3751 13.125V12.7594C24.6244 12.9844 24.9512 13.125 25.3126 13.125C25.674 13.125 26.0007 12.9839 26.2501 12.7594V13.125C26.2501 13.642 25.8296 14.0625 25.3126 14.0625C24.7955 14.0625 24.3751 13.642 24.3751 13.125ZM24.8438 11.7188C24.8438 11.46 25.0543 11.25 25.3126 11.25C25.5708 11.25 25.7813 11.46 25.7813 11.7188C25.7813 11.9775 25.5708 12.1875 25.3126 12.1875C25.0543 12.1875 24.8438 11.9775 24.8438 11.7188ZM27.7983 24.8438C27.2794 24.8438 26.798 24.5859 26.5102 24.1542C26.3401 23.8988 26.2501 23.6025 26.2501 23.2955V14.7464C26.5257 14.5861 26.7554 14.3578 26.9194 14.0841L28.0721 24.8438H27.7983ZM26.7188 10.7812C27.2358 10.7812 27.6563 11.2017 27.6563 11.7188C27.6563 12.2358 27.2358 12.6562 26.7188 12.6562H26.3532C26.5782 12.4069 26.7188 12.0802 26.7188 11.7188C26.7188 11.3573 26.5777 11.0306 26.3532 10.7812H26.7188ZM26.2501 10.6781C26.0007 10.4531 25.674 10.3125 25.3126 10.3125C24.9512 10.3125 24.6244 10.4536 24.3751 10.6781V10.3125C24.3751 9.79547 24.7955 9.375 25.3126 9.375C25.8296 9.375 26.2501 9.79547 26.2501 10.3125V10.6781ZM25.0458 8.46047C24.7229 8.50688 24.4271 8.63437 24.1791 8.82375C22.8746 5.64844 19.794 3.45937 16.3444 3.29812C16.2507 2.92359 16.0501 2.59125 15.7688 2.34375H15.9376C19.9641 2.34375 23.5388 4.77562 25.0458 8.46047ZM14.5313 4.6875H14.1657C14.3902 4.43812 14.5313 4.11141 14.5313 3.75C14.5313 3.38859 14.3902 3.06188 14.1657 2.8125H14.5313C15.0483 2.8125 15.4688 3.23297 15.4688 3.75C15.4688 4.26703 15.0483 4.6875 14.5313 4.6875ZM6.56256 2.8125H6.92818C6.70365 3.06188 6.56256 3.38859 6.56256 3.75C6.56256 4.11141 6.70365 4.43812 6.92818 4.6875H6.56256C6.04553 4.6875 5.62506 4.26703 5.62506 3.75C5.62506 3.23297 6.04553 2.8125 6.56256 2.8125ZM10.5282 5.19141C10.749 5.37422 11.0096 5.51062 11.2979 5.57719C11.4797 6.36656 12.1632 6.96047 12.9924 7.01953C13.0782 7.16391 13.1251 7.32937 13.1251 7.5C13.1251 8.01703 12.7046 8.4375 12.1876 8.4375H11.8219C12.0469 8.18813 12.1876 7.86141 12.1876 7.5C12.1876 6.72469 11.5566 6.09375 10.7813 6.09375C10.4199 6.09375 10.0932 6.23484 9.84381 6.45937V6.09375C9.84381 5.66906 10.1326 5.30297 10.5282 5.19141ZM9.84381 8.54062C10.0932 8.76562 10.4199 8.90625 10.7813 8.90625C11.1427 8.90625 11.4694 8.76516 11.7188 8.54062V8.90625C11.7188 9.42328 11.2983 9.84375 10.7813 9.84375C10.2643 9.84375 9.84381 9.42328 9.84381 8.90625V8.54062ZM10.3126 7.5C10.3126 7.24125 10.523 7.03125 10.7813 7.03125C11.0396 7.03125 11.2501 7.24125 11.2501 7.5C11.2501 7.75875 11.0396 7.96875 10.7813 7.96875C10.523 7.96875 10.3126 7.75875 10.3126 7.5ZM9.74068 8.4375H9.37506C8.85803 8.4375 8.43756 8.01703 8.43756 7.5C8.43756 6.98297 8.85803 6.5625 9.37506 6.5625H9.74068C9.51568 6.81187 9.37506 7.13859 9.37506 7.5C9.37506 7.86141 9.51615 8.18813 9.74068 8.4375ZM6.51475 9.89156C6.51053 9.87281 6.50209 9.85594 6.4974 9.83719C6.51943 9.83813 6.54006 9.84375 6.56256 9.84375C6.92396 9.84375 7.25068 9.70266 7.50006 9.47812V9.84375C7.50006 10.0219 7.44615 10.1892 7.35568 10.3355C7.12131 10.1217 6.83443 9.96516 6.51475 9.89156ZM5.72818 10.7812H6.09381C6.61084 10.7812 7.03131 11.2017 7.03131 11.7188C7.03131 12.2358 6.61084 12.6562 6.09381 12.6562H5.72818C5.95318 12.4069 6.09381 12.0802 6.09381 11.7188C6.09381 11.3573 5.95271 11.0306 5.72818 10.7812ZM6.09381 8.4375C6.09381 8.17875 6.30428 7.96875 6.56256 7.96875C6.82084 7.96875 7.03131 8.17875 7.03131 8.4375C7.03131 8.69625 6.82084 8.90625 6.56256 8.90625C6.30428 8.90625 6.09381 8.69625 6.09381 8.4375ZM7.94209 8.70328C8.10662 8.89875 8.31146 9.05672 8.54209 9.1725C8.38084 9.29813 8.18256 9.375 7.96881 9.375H7.60318C7.77146 9.18844 7.8924 8.95969 7.94209 8.70328ZM7.5085 7.40391C7.25818 7.17469 6.92772 7.03125 6.56256 7.03125C6.20115 7.03125 5.87443 7.17234 5.62506 7.39687V7.03125C5.62506 6.58313 5.94146 6.20859 6.3624 6.11625C6.62584 6.555 7.06272 6.87563 7.57834 6.98578C7.5399 7.11984 7.516 7.25953 7.5085 7.40391ZM5.62506 10.3125V10.6781C5.37568 10.4531 5.04896 10.3125 4.68756 10.3125C4.32615 10.3125 3.99943 10.4536 3.75006 10.6781V10.3125C3.75006 9.79547 4.17053 9.375 4.68756 9.375C5.20459 9.375 5.62506 9.79547 5.62506 10.3125ZM5.15631 11.7188C5.15631 11.9775 4.94584 12.1875 4.68756 12.1875C4.42928 12.1875 4.21881 11.9775 4.21881 11.7188C4.21881 11.46 4.42928 11.25 4.68756 11.25C4.94584 11.25 5.15631 11.46 5.15631 11.7188ZM3.75006 13.125V12.7594C3.99943 12.9839 4.32615 13.125 4.68756 13.125C5.04896 13.125 5.37568 12.9839 5.62506 12.7594V13.125C5.62506 13.642 5.20459 14.0625 4.68756 14.0625C4.17053 14.0625 3.75006 13.642 3.75006 13.125ZM6.14865 14.2898C6.32068 14.0742 6.451 13.8234 6.51475 13.5459C7.34678 13.3542 7.96881 12.6075 7.96881 11.7188C7.96881 11.5284 7.93506 11.3466 7.88209 11.1731C8.13428 10.9233 8.31146 10.6102 8.39068 10.2647C8.68271 10.1972 8.95084 10.0589 9.17631 9.86906C9.50443 10.4142 10.0997 10.7812 10.7813 10.7812C11.1615 10.7812 11.5121 10.6622 11.8079 10.4672C10.7588 12.7744 8.80693 14.58 6.3774 15.4355L6.14865 14.2898ZM13.1251 6.09375C12.608 6.09375 12.1876 5.67328 12.1876 5.15625V4.79063C12.4369 5.01562 12.7637 5.15625 13.1251 5.15625C13.4865 5.15625 13.8132 5.01516 14.0626 4.79063V5.15625C14.0626 5.67328 13.6421 6.09375 13.1251 6.09375ZM12.6563 3.75C12.6563 3.49125 12.8668 3.28125 13.1251 3.28125C13.3833 3.28125 13.5938 3.49125 13.5938 3.75C13.5938 4.00875 13.3833 4.21875 13.1251 4.21875C12.8668 4.21875 12.6563 4.00875 12.6563 3.75ZM13.1251 1.40625C13.6421 1.40625 14.0626 1.82672 14.0626 2.34375V2.70938C13.8132 2.48484 13.4865 2.34375 13.1251 2.34375C12.7637 2.34375 12.4369 2.48484 12.1876 2.70938V2.34375C12.1876 1.82672 12.608 1.40625 13.1251 1.40625ZM11.7188 2.8125H12.0844C11.8599 3.06188 11.7188 3.38859 11.7188 3.75C11.7188 4.11141 11.8599 4.43812 12.0844 4.6875H11.7188C11.2018 4.6875 10.7813 4.26703 10.7813 3.75C10.7813 3.23297 11.2018 2.8125 11.7188 2.8125ZM9.37506 2.8125C9.60334 2.8125 9.81943 2.89688 9.98771 3.04266C9.89771 3.26156 9.84381 3.49875 9.84381 3.75C9.84381 3.98297 9.88881 4.20516 9.96662 4.41141C9.46318 4.6575 9.0835 5.11875 8.95459 5.67234C8.66397 5.73891 8.40193 5.87672 8.18022 6.06141C8.11037 6.07781 8.04053 6.09375 7.96881 6.09375C7.45178 6.09375 7.03131 5.67328 7.03131 5.15625V4.79063C7.28068 5.01562 7.6074 5.15625 7.96881 5.15625C8.74412 5.15625 9.37506 4.52531 9.37506 3.75C9.37506 3.38859 9.23396 3.06188 9.00943 2.8125H9.37506ZM7.50006 3.75C7.50006 3.49125 7.71053 3.28125 7.96881 3.28125C8.22709 3.28125 8.43756 3.49125 8.43756 3.75C8.43756 4.00875 8.22709 4.21875 7.96881 4.21875C7.71053 4.21875 7.50006 4.00875 7.50006 3.75ZM7.96881 1.40625C8.48584 1.40625 8.90631 1.82672 8.90631 2.34375V2.70938C8.65693 2.48484 8.33022 2.34375 7.96881 2.34375C7.6074 2.34375 7.28068 2.48484 7.03131 2.70938V2.34375C7.03131 1.82672 7.45178 1.40625 7.96881 1.40625ZM2.81256 1.76437V1.40625H3.1674C4.0449 1.40625 4.88209 1.66641 5.59271 2.14875C5.32084 2.31422 5.0935 2.54531 4.93506 2.82188C4.29756 2.84063 3.66568 2.94281 3.0549 3.12187C2.89693 2.68734 2.81256 2.22563 2.81256 1.76437ZM1.75131 5.13281L1.56428 4.82063C2.49615 4.21266 3.5799 3.84797 4.68897 3.76734C4.69318 4.23984 4.876 4.66781 5.16943 4.99594L3.35818 4.69406L3.20396 5.61891L5.05975 5.92828C4.90881 6.12984 4.79303 6.35859 4.7349 6.61078C4.47147 6.67172 4.23334 6.79266 4.02475 6.95156C3.07365 6.63469 2.27115 5.99906 1.75131 5.13281ZM4.21881 8.4375C4.21881 7.92047 4.63928 7.5 5.15631 7.5H5.52193C5.29693 7.74937 5.15631 8.07609 5.15631 8.4375C5.15631 8.46094 5.16193 8.4825 5.16334 8.50547C5.01053 8.46516 4.85256 8.4375 4.68756 8.4375C4.52772 8.4375 4.37537 8.46375 4.22725 8.50172C4.22537 8.48016 4.21881 8.45906 4.21881 8.4375ZM3.28131 10.7812H3.64693C3.4224 11.0306 3.28131 11.3573 3.28131 11.7188C3.28131 12.0802 3.4224 12.4069 3.64693 12.6562H3.28131C2.76428 12.6562 2.34381 12.2358 2.34381 11.7188C2.34381 11.2017 2.76428 10.7812 3.28131 10.7812ZM2.20178 24.8438H1.92803L3.08068 14.0841C3.24475 14.3578 3.47443 14.5861 3.75006 14.7464V23.2955C3.75006 23.602 3.66006 23.8988 3.4899 24.1542C3.20256 24.5859 2.72068 24.8438 2.20178 24.8438ZM7.96928 28.5938H1.40631V27.6562H7.96881L7.96928 28.5938ZM5.15631 26.7188H4.21881V24.742C4.23522 24.7191 4.25443 24.6984 4.2699 24.6745C4.54318 24.2648 4.68756 23.7877 4.68756 23.2955V22.9509C4.84647 22.9388 5.00256 22.9167 5.15631 22.8839V26.7188ZM4.68756 22.0148V15C4.90693 15 5.1174 14.9616 5.31287 14.8922L6.53162 20.9864C6.08209 21.5691 5.41647 21.938 4.68756 22.0148ZM6.74631 17.2786L6.56256 16.3608C9.91646 15.2278 12.4622 12.4556 13.2957 9.00375C13.7583 8.66203 14.0626 8.11781 14.0626 7.5C14.0626 7.27125 14.0204 7.04719 13.9412 6.83719C14.1657 6.7275 14.3677 6.57938 14.5313 6.39375V6.52172C14.5313 11.4136 11.3522 15.7598 6.74631 17.2786ZM15.4688 6.52172V5.36812C15.8912 5.1225 16.2052 4.7175 16.3355 4.23516C16.359 4.23656 16.3829 4.23703 16.4063 4.23844V6.52172C16.4063 11.0419 19.2165 14.9367 23.438 16.358L23.2538 17.2786C18.6479 15.7598 15.4688 11.4136 15.4688 6.52172ZM23.468 20.9864L24.6868 14.8922C24.8827 14.9616 25.0932 15 25.3126 15V22.0148C24.5837 21.938 23.918 21.5691 23.468 20.9864ZM24.8438 22.8844C24.9976 22.9167 25.1537 22.9388 25.3126 22.9514V23.2959C25.3126 23.7881 25.4569 24.2648 25.7302 24.6745C25.7462 24.6984 25.7649 24.7191 25.7813 24.742V26.7188H24.8438V22.8844ZM28.5938 28.5938H22.0313V27.6562H28.5938V28.5938Z" fill="#044222"/>
</g>
<defs>
<clipPath id="clip0_244_53501">
<rect width="30" height="30" fill="white"/>
</clipPath>
</defs>
</svg>
