<svg width="30" height="30" viewBox="0 0 30 30" fill="none" xmlns="http://www.w3.org/2000/svg">
<g clip-path="url(#clip0_244_53532)">
<path d="M13.5938 22.9688H14.5312V24.8438H13.5938V22.9688Z" fill="#044222"/>
<path d="M6.22852 18.417L7.16587 17.4796L7.82879 18.1425L6.89143 19.0799L6.22852 18.417Z" fill="#044222"/>
<path d="M22.1646 18.4189L23.1019 17.4816L23.7648 18.1445L22.8275 19.0819L22.1646 18.4189Z" fill="#044222"/>
<path d="M13.7285 10.9189L14.6659 9.98159L15.3288 10.6445L14.3914 11.5819L13.7285 10.9189Z" fill="#044222"/>
<path d="M29.5312 7.03114C29.5324 5.44539 28.9589 3.91293 27.9171 2.71744C26.8752 1.52195 25.4356 0.744406 23.8645 0.528734C22.2935 0.313061 20.6976 0.673869 19.3721 1.54437C18.0466 2.41486 17.0814 3.7361 16.6552 5.26349C14.7438 5.02141 12.8027 5.18983 10.9616 5.7575C9.12044 6.32518 7.42157 7.27905 5.97836 8.55545C4.53516 9.83185 3.38081 11.4014 2.59238 13.1594C1.80396 14.9173 1.39958 16.8232 1.40625 18.7499V26.7186H0.9375C0.81318 26.7186 0.693951 26.768 0.606044 26.8559C0.518136 26.9438 0.46875 27.0631 0.46875 27.1874V29.0624C0.46875 29.1867 0.518136 29.3059 0.606044 29.3939C0.693951 29.4818 0.81318 29.5311 0.9375 29.5311H29.0625C29.1868 29.5311 29.306 29.4818 29.394 29.3939C29.4819 29.3059 29.5312 29.1867 29.5312 29.0624V27.1874C29.5312 27.0631 29.4819 26.9438 29.394 26.8559C29.306 26.768 29.1868 26.7186 29.0625 26.7186H28.5938V18.7499C28.5923 16.4781 28.0213 14.2429 26.933 12.2488C27.7395 11.6388 28.3939 10.8502 28.8446 9.945C29.2954 9.03976 29.5304 8.04242 29.5312 7.03114ZM24.3806 13.4366C24.5813 13.7909 24.7615 14.1563 24.9206 14.5311H20.1562V12.9515C21.4693 13.5851 22.9581 13.7561 24.3806 13.4366ZM18.2812 26.7186V24.8436H25.7812V26.7186H18.2812ZM20.1562 15.4686H22.3059L20.1562 17.6183V15.4686ZM19.2188 23.9061H18.2812V20.6249C18.2812 19.7547 17.9355 18.9201 17.3202 18.3047C16.7048 17.6893 15.8702 17.3436 15 17.3436C14.1298 17.3436 13.2952 17.6893 12.6798 18.3047C12.0645 18.9201 11.7188 19.7547 11.7188 20.6249V23.9061H10.7812V15.4686H19.2188V23.9061ZM17.2969 20.1561H12.7031C12.8107 19.6263 13.0982 19.15 13.5168 18.8078C13.9354 18.4657 14.4594 18.2788 15 18.2788C15.5406 18.2788 16.0646 18.4657 16.4832 18.8078C16.9018 19.15 17.1893 19.6263 17.2969 20.1561ZM4.21875 18.944L7.69406 15.4686H9.1875C8.82375 15.8282 8.33016 16.3218 7.64062 17.0122L8.30344 17.6751L9.84375 16.1315V23.9061H4.21875V18.944ZM10.7812 8.82927C11.7433 8.41898 12.7604 8.15207 13.8 8.03708L10.7812 11.0558V8.82927ZM9.84375 14.5311H5.07938C6.0353 12.298 7.71299 10.4503 9.84375 9.28396V14.5311ZM4.73109 15.4686H6.36844L4.28719 17.5499C4.36542 16.8431 4.51413 16.1459 4.73109 15.4686ZM4.21875 24.8436H11.7188V26.7186H4.21875V24.8436ZM12.6562 21.0936H17.3438V26.7186H12.6562V21.0936ZM20.1562 23.9061V18.944L23.6316 15.4686H25.1316C24.8278 15.7616 24.353 16.2365 23.5772 17.0122L24.24 17.6751L25.5187 16.3958C25.6923 17.1685 25.7804 17.958 25.7812 18.7499V23.9061H20.1562ZM19.2188 14.5311H10.7812V12.3815L15.1875 7.97521C15.6267 7.98366 16.065 8.01856 16.5 8.07974C16.5033 8.09989 16.5061 8.12052 16.5094 8.14114L15.1392 9.5113L15.802 10.1741L16.7812 9.19489C17.2377 10.4948 18.0902 11.6189 19.2188 12.4091V14.5311ZM2.34375 18.7499C2.33656 16.9622 2.70975 15.1934 3.43854 13.561C4.16734 11.9286 5.23506 10.4699 6.57082 9.28178C7.90658 8.09365 9.47981 7.20327 11.1861 6.66976C12.8923 6.13626 14.6925 5.97183 16.4672 6.18739C16.4287 6.46703 16.4083 6.74887 16.4062 7.03114C16.4062 7.06302 16.4105 7.09396 16.4109 7.12489C15.9429 7.06575 15.4718 7.03444 15 7.03114C11.8931 7.03462 8.91437 8.27038 6.71743 10.4673C4.52049 12.6643 3.28472 15.643 3.28125 18.7499V26.7186H2.34375V18.7499ZM28.5938 28.5936H1.40625V27.6561H28.5938V28.5936ZM27.6562 18.7499V26.7186H26.7188V18.7499C26.7175 16.797 26.228 14.8755 25.2947 13.1601C25.5882 13.0499 25.8735 12.9188 26.1483 12.7677C27.1368 14.6068 27.6549 16.662 27.6562 18.7499ZM22.9688 12.6561C21.8562 12.6561 20.7687 12.3262 19.8437 11.7082C18.9186 11.0901 18.1977 10.2116 17.7719 9.18374C17.3462 8.1559 17.2348 7.02491 17.4518 5.93376C17.6689 4.84262 18.2046 3.84034 18.9913 3.05367C19.7779 2.267 20.7802 1.73127 21.8714 1.51423C22.9625 1.29719 24.0935 1.40858 25.1213 1.83432C26.1492 2.26007 27.0277 2.98104 27.6458 3.90606C28.2638 4.83109 28.5938 5.91862 28.5938 7.03114C28.5921 8.52249 27.999 9.9523 26.9444 11.0068C25.8899 12.0614 24.4601 12.6545 22.9688 12.6561Z" fill="#044222"/>
<path d="M27.0503 6.42526L26.3875 5.76245L25.5873 6.56261H24.1004L25.0379 5.62511H26.2501V4.68761H25.3126V3.75011H24.3751V4.9623L23.4376 5.8998V4.41292L24.2378 3.61276L23.575 2.94995L22.9689 3.55604L22.3628 2.94995L21.7 3.61276L22.5001 4.41292V5.8998L21.5626 4.9623V3.75011H20.6251V4.68761H19.6876V5.62511H20.8998L21.8373 6.56261H20.3504L19.5503 5.76245L18.8875 6.42526L19.4935 7.03136L18.8875 7.63745L19.5503 8.30026L20.3504 7.50011H21.8373L20.8998 8.43761H19.6876V9.37511H20.6251V10.3126H21.5626V9.10042L22.5001 8.16292V9.6498L21.7 10.45L22.3628 11.1128L22.9689 10.5067L23.575 11.1128L24.2378 10.45L23.4376 9.6498V8.16292L24.3751 9.10042V10.3126H25.3126V9.37511H26.2501V8.43761H25.0379L24.1004 7.50011H25.5873L26.3875 8.30026L27.0503 7.63745L26.4442 7.03136L27.0503 6.42526Z" fill="#044222"/>
</g>
<defs>
<clipPath id="clip0_244_53532">
<rect width="30" height="30" fill="white"/>
</clipPath>
</defs>
</svg>
