<svg width="659" height="1018" viewBox="0 0 659 1018" fill="none" xmlns="http://www.w3.org/2000/svg">
<g opacity="0.2" clip-path="url(#clip0_436_15318)">
<path d="M-626.57 1128.04C-511.44 1174.82 -387.83 1204.39 -263.18 1205.31C-141.47 1206.22 -21.2401 1177.44 82.2399 1112.24C184.84 1047.59 271.09 956.34 384.24 909C438.92 886.14 502.06 879.43 550.57 843.32C597.47 808.41 618.12 750.7 630.98 695.84C647.47 625.49 656.4 553.14 658.54 480.93C660.44 416.65 657.64 351.64 645.33 288.4C634.17 231.07 614.74 174.62 582.26 125.73C552.26 80.51 511.63 44.3699 461.76 22.4499C416.56 2.57993 365.05 -5.73007 316.32 4.19993C292.804 8.89322 270.443 18.1696 250.51 31.5C225.71 48.26 205.92 71.3199 189.43 96.0899C156.21 146.03 131.96 202.27 107.1 256.67C82.3699 310.75 58.0198 365.15 28.7598 416.99C-0.240173 468.28 -34.3002 517.14 -77.2402 557.76C-123.53 601.56 -179.17 633.19 -236.62 659.94C-295.09 687.16 -355.5 710 -413.55 738.15C-475.172 768.03 -534.38 802.651 -590.64 841.7C-635.4 872.77 -688.3 913.49 -698.59 970.7C-708.39 1025.18 -667.81 1070.05 -619.49 1088.1C-588.76 1099.58 -555.62 1101.99 -523.1 1102.55C-491.87 1103.1 -460.6 1102.74 -429.38 1102.13C-367.87 1100.91 -306.38 1097.66 -245.23 1090.48C-126.23 1076.48 -7.05005 1047.09 97.2399 986.38C149.24 956.1 194.32 917.28 239.13 877.38C283.4 837.99 328.83 797.82 383.13 772.69C409.54 760.47 437.36 754.58 465.13 746.38C489.37 739.21 513.97 728.38 527.49 705.81C542.6 680.56 540.96 649.13 539.41 620.87C537.603 587.857 534.373 554.97 529.72 522.21C520.054 454.158 504.393 387.094 482.92 321.8C462.38 259.34 437.24 197.05 404.92 139.7C379.47 94.5599 342.15 48.7 286.75 44.02C232.75 39.43 183.28 74.53 151.67 115.39C111.86 166.84 97.2598 232.81 74.5399 292.51C52.0399 351.64 17.95 403.03 -26.3901 448.07C-68.9801 491.32 -117.69 527.97 -166.77 563.45C-224.13 604.93 -281.6 646.23 -338.4 688.45C-397.68 732.53 -456.477 777.243 -514.79 822.59C-529.183 833.783 -543.544 845.01 -557.87 856.27C-568.87 864.92 -580.07 873.59 -589.25 884.27C-607.33 905.27 -610.89 932.21 -593.67 954.97C-576.45 977.73 -548.57 985.97 -521.2 987.7C-486.2 989.89 -450.38 986.45 -415.37 984.9C-341.304 981.633 -267.304 977.383 -193.37 972.15C-123.74 967.22 -53.4601 962.28 14.3199 944.59C78.3199 927.88 136.82 897.77 191.2 860.53C244.46 824.06 295.63 782.97 343.48 739.66C388.76 698.66 430.36 651.82 453.48 594.54C500.77 477.34 464.58 345.54 410.26 237.45C396.9 210.87 382.68 183.99 365.1 159.92C349.74 138.92 330.8 118.43 306.92 107.12C285.28 96.87 260.81 96.7699 239.78 108.69C215.03 122.69 198.05 148.61 184.26 172.69C154.2 225.24 138.58 284.27 119.26 341.21C100.26 397.12 76.4799 450.67 36.7598 495.1C-35.9502 576.42 -139.82 620.04 -234.12 670.42C-281.12 695.51 -329.69 722.3 -369.64 757.93C-379.16 766.42 -388.28 776.68 -390.92 789.54C-393.22 800.76 -389.92 811.91 -383.45 821.14C-368.11 843.01 -340.8 853.95 -316.87 863.31C-206.05 906.65 -79.9402 908.36 32.5298 869.99C142.06 832.62 234.53 755.9 294.62 657.28C351.77 563.43 382.74 446.12 361.7 336.75C351.7 285.02 329.06 234.41 289.19 198.87C272.59 184.07 246.12 163.67 225.29 182.94C215.48 192.03 208.02 204.76 201.44 216.27C194.27 228.931 188.059 242.111 182.86 255.7C161.97 309.46 153.69 367.02 135.37 421.58C126.07 449.3 113.95 476.02 97.1099 500.01C81.6156 521.767 63.1955 541.284 42.3699 558.01C-42.36 626.96 -151.41 655.37 -247 705.13C-270.05 717.13 -293.36 733.61 -290.88 762.73C-288.83 786.73 -271.62 807.95 -252.83 821.73C-207.07 855.3 -141.83 854.07 -89.3502 840.49C-29.5201 825 24.7999 793.27 74.6498 757.49C124.5 721.71 171.06 680.39 209.3 632.12C248.47 582.66 278.3 525.85 292.94 464.29C300.388 433.478 303.64 401.802 302.61 370.12C301.53 340.84 297.94 308.5 284.61 282C275.61 263.93 259.54 243.46 237.51 242.5C209.13 241.25 194.44 272.09 185.35 294.19C161.06 353.19 160.54 419.19 133.6 477.39C109.177 529.59 69.1706 572.933 19.0899 601.45C-7.9101 616.8 -37.0601 625.24 -66.6301 634.17C-94.8401 642.69 -123.79 653.12 -144.07 675.53C-160.73 693.93 -172.07 720.47 -163.76 745.18C-156.53 766.7 -136.3 780.09 -114.85 784.7C-55.8502 797.37 -6.77008 746.17 32.2099 709.86C80.3999 664.96 126.86 617.14 168.21 565.76C204.45 520.69 240.32 462.08 222.51 402.11C222.32 401.49 221.12 401.47 220.75 401.89L99.1298 541.54L38.7899 610.81C20.1899 632.17 0.589905 653.02 -16.2801 675.81C-32.6501 697.93 -45.8401 722.96 -45.9802 751.08C-45.9802 751.81 -44.1601 751.99 -44.1601 751.31C-43.9001 697.52 1.98987 655.55 34.7698 617.91L154.48 480.47C177.147 454.47 199.813 428.447 222.48 402.4L220.73 402.18C239.5 465.36 198.73 526.69 160.07 573.11C116.644 624.965 69.7534 673.817 19.7199 719.33C-20.8101 756.33 -81.0601 810.7 -138.77 773.95C-163.11 758.45 -170.16 729.36 -159.6 703.19C-148.45 675.55 -124.32 657.39 -97.6002 646.19C-69.2001 634.35 -38.6702 628.78 -10.2101 617.14C13.9727 607.2 36.5983 593.829 56.9699 577.44C98.9431 543.88 130.251 498.838 147.08 447.8C166.14 389.3 166.97 322.93 199.56 269.29C208.14 255.17 221.56 241.86 239.42 243.65C253.32 245.05 264.74 255.21 272.84 265.89C290.93 289.72 296.47 320.89 299.38 350.01C311.9 475.26 250.45 594.01 163.83 680.49C120.951 723.188 72.9567 760.421 20.9399 791.34C-31.6601 822.6 -91.7402 848.01 -153.86 848.34C-184.57 848.5 -217.98 842.34 -244.42 825.99C-266.58 812.25 -287.72 788.36 -289.18 761.15C-290.92 729.07 -261.07 713.69 -236.44 701.3C-213.23 689.64 -189.44 679.08 -165.65 668.79C-74.6501 629.49 26.9199 592.62 90.2698 512.05C124.15 468.97 140.27 416.97 153.52 364.58C167.32 310.09 179.05 253.14 210.16 205.32C219.16 191.53 230.34 173.32 249.41 176.32C265 178.83 278.88 191.16 290.14 201.54C310.06 219.91 325.79 242.44 337.43 266.84C360.43 315.06 368.22 369.84 365.92 422.92C361.18 532.43 316.03 639.44 245.34 722.64C169.838 811.382 65.3079 870.468 -49.6601 889.39C-109.51 899.292 -170.639 898.548 -230.23 887.19C-260.655 881.37 -290.456 872.664 -319.23 861.19C-343.74 851.39 -374.23 838.98 -386.17 813.4C-399.98 783.72 -372.32 761.08 -351.28 744.92C-330.579 729.198 -308.99 714.681 -286.62 701.44C-240.92 674.07 -193.01 650.71 -145.91 625.92C-56.8101 579.03 32.5699 524.33 82.4199 433.44C110.23 382.75 125.42 326.53 143.84 272.06C153.31 244.06 163.65 216.2 177.02 189.76C190.02 164.05 205.86 137.01 228.31 118.39C252.72 98.15 283.64 95.32 311.31 110.67C335.98 124.35 355.04 147.19 370.47 170.35C387.47 195.82 401.82 223.35 415.04 250.96C428.313 278.457 439.735 306.81 449.23 335.83C467.89 393.48 478.14 454.89 471.31 515.46C464.5 575.82 439.39 630.77 401.13 677.64C362.41 725.1 314.13 764.01 266.54 802.12C216.44 842.23 164.27 880.62 106.47 909C45.8999 938.74 -19.5302 953.66 -86.2402 961.65C-156.55 970.07 -227.58 973.65 -298.24 977.78C-333.573 979.84 -368.907 981.673 -404.24 983.28C-438.78 984.86 -473.54 987.28 -508.13 987.04C-541.07 986.8 -577.3 979.59 -595.78 949.3C-603.41 936.81 -605.9 921.95 -601.38 907.89C-596.74 893.48 -586.07 881.89 -574.96 872.06C-549.74 849.68 -521.88 829.82 -495.23 809.19C-467.537 787.75 -439.737 766.457 -411.83 745.31C-355.63 702.73 -298.997 660.73 -241.93 619.31C-147.06 550.44 -42.5302 485.15 26.3998 388C43.6415 363.614 58.092 337.369 69.4799 309.76C81.3799 281.08 90.6998 251.44 101.03 222.18C121.28 164.88 146.96 108.72 198.03 72.54C221.1 56.2 248.5 44.76 277.11 44.65C306.73 44.55 334.01 57.38 355.66 77.05C376.81 96.27 392.66 120.77 406.3 145.7C421.3 173.14 434.4 201.7 446.63 230.44C498.558 352.607 529.18 482.765 537.17 615.27C538.88 644.01 541.41 676.01 527.33 702.27C513.67 727.8 486.52 739.02 460.05 746.51C434.22 753.82 408.49 759.63 383.93 770.8C359.1 782.09 335.93 796.69 313.93 812.87C268.13 846.66 227.7 886.96 184.01 923.3C139.12 960.743 89.4059 991.989 36.1999 1016.2C-72.0201 1065.31 -190.8 1086.36 -308.63 1095.39C-368.18 1099.96 -427.93 1101.46 -487.63 1101.57C-550 1101.68 -621.82 1102.9 -669.07 1055.16C-688.54 1035.48 -700.01 1009.23 -698.07 981.31C-696.13 953.39 -681.84 928.25 -664.33 907.21C-645.33 884.4 -622.13 865.58 -597.98 848.52C-570.787 829.313 -542.89 811.153 -514.29 794.04C-458.29 760.52 -399.87 731.92 -339.93 706.22C-284.05 682.22 -227.4 659.55 -174.33 629.66C-123.72 601.16 -78.2701 565.53 -40.5701 521.23C-4.36011 478.68 24.5499 430.5 50.0899 380.96C76.1899 330.32 98.9399 278.04 122.93 226.38C134.93 200.46 147.32 174.68 160.57 149.38C174.35 123.04 189.07 96.9199 207.79 73.7099C243.04 29.9999 292.1 3.97001 348.36 1.28001C400.53 -1.21999 453.17 14.7 497.09 42.5C595.46 104.77 637.09 223.84 650.76 334.15C658.88 399.59 658.99 466.25 653.99 531.94C648.99 598.04 639.57 665.7 620.16 729.25C611.8 756.6 600.63 783.47 583.87 806.8C566.34 831.21 543 849.38 515.87 862.06C489.12 874.55 460.45 882.14 432.31 890.72C404.38 899.23 377.31 909.53 351.31 922.8C248.53 975.18 167.09 1059.67 68.6699 1118.87C-35.7401 1181.68 -157.2 1207.08 -278.25 1203.95C-397.47 1200.87 -515.38 1171.95 -625.56 1127.21C-626.24 1126.93 -627.7 1127.53 -626.56 1127.98L-626.57 1128.04Z" fill="#F5523D"/>
</g>
<defs>
<clipPath id="clip0_436_15318">
<rect width="659" height="1018" fill="white"/>
</clipPath>
</defs>
</svg>
